%TF.GenerationSoftware,KiCad,Pcbnew,9.0.0*%
%TF.CreationDate,2025-05-15T12:24:39+09:00*%
%TF.ProjectId,Raspberry Pi Pico(Designed By TORICA),52617370-6265-4727-9279-205069205069,rev?*%
%TF.SameCoordinates,Original*%
%TF.FileFunction,Soldermask,Top*%
%TF.FilePolarity,Negative*%
%FSLAX46Y46*%
G04 Gerber Fmt 4.6, Leading zero omitted, Abs format (unit mm)*
G04 Created by KiCad (PCBNEW 9.0.0) date 2025-05-15 12:24:39*
%MOMM*%
%LPD*%
G01*
G04 APERTURE LIST*
G04 Aperture macros list*
%AMRoundRect*
0 Rectangle with rounded corners*
0 $1 Rounding radius*
0 $2 $3 $4 $5 $6 $7 $8 $9 X,Y pos of 4 corners*
0 Add a 4 corners polygon primitive as box body*
4,1,4,$2,$3,$4,$5,$6,$7,$8,$9,$2,$3,0*
0 Add four circle primitives for the rounded corners*
1,1,$1+$1,$2,$3*
1,1,$1+$1,$4,$5*
1,1,$1+$1,$6,$7*
1,1,$1+$1,$8,$9*
0 Add four rect primitives between the rounded corners*
20,1,$1+$1,$2,$3,$4,$5,0*
20,1,$1+$1,$4,$5,$6,$7,0*
20,1,$1+$1,$6,$7,$8,$9,0*
20,1,$1+$1,$8,$9,$2,$3,0*%
%AMOutline5P*
0 Free polygon, 5 corners , with rotation*
0 The origin of the aperture is its center*
0 number of corners: always 5*
0 $1 to $10 corner X, Y*
0 $11 Rotation angle, in degrees counterclockwise*
0 create outline with 5 corners*
4,1,5,$1,$2,$3,$4,$5,$6,$7,$8,$9,$10,$1,$2,$11*%
%AMOutline6P*
0 Free polygon, 6 corners , with rotation*
0 The origin of the aperture is its center*
0 number of corners: always 6*
0 $1 to $12 corner X, Y*
0 $13 Rotation angle, in degrees counterclockwise*
0 create outline with 6 corners*
4,1,6,$1,$2,$3,$4,$5,$6,$7,$8,$9,$10,$11,$12,$1,$2,$13*%
%AMOutline7P*
0 Free polygon, 7 corners , with rotation*
0 The origin of the aperture is its center*
0 number of corners: always 7*
0 $1 to $14 corner X, Y*
0 $15 Rotation angle, in degrees counterclockwise*
0 create outline with 7 corners*
4,1,7,$1,$2,$3,$4,$5,$6,$7,$8,$9,$10,$11,$12,$13,$14,$1,$2,$15*%
%AMOutline8P*
0 Free polygon, 8 corners , with rotation*
0 The origin of the aperture is its center*
0 number of corners: always 8*
0 $1 to $16 corner X, Y*
0 $17 Rotation angle, in degrees counterclockwise*
0 create outline with 8 corners*
4,1,8,$1,$2,$3,$4,$5,$6,$7,$8,$9,$10,$11,$12,$13,$14,$15,$16,$1,$2,$17*%
G04 Aperture macros list end*
%ADD10R,1.500000X2.400000*%
%ADD11R,1.500000X1.050000*%
%ADD12Outline5P,-0.700000X0.575000X0.412500X0.575000X0.700000X0.287500X0.700000X-0.575000X-0.700000X-0.575000X180.000000*%
%ADD13R,1.400000X1.150000*%
%ADD14RoundRect,0.100000X0.100000X-0.130000X0.100000X0.130000X-0.100000X0.130000X-0.100000X-0.130000X0*%
%ADD15C,2.200000*%
%ADD16RoundRect,0.100000X-0.100000X0.130000X-0.100000X-0.130000X0.100000X-0.130000X0.100000X0.130000X0*%
%ADD17RoundRect,0.135000X0.185000X-0.135000X0.185000X0.135000X-0.185000X0.135000X-0.185000X-0.135000X0*%
%ADD18RoundRect,0.135000X-0.185000X0.135000X-0.185000X-0.135000X0.185000X-0.135000X0.185000X0.135000X0*%
%ADD19RoundRect,0.135000X-0.135000X-0.185000X0.135000X-0.185000X0.135000X0.185000X-0.135000X0.185000X0*%
%ADD20R,1.700000X1.700000*%
%ADD21O,1.700000X1.700000*%
%ADD22R,0.510000X0.400000*%
%ADD23RoundRect,0.100000X0.130000X0.100000X-0.130000X0.100000X-0.130000X-0.100000X0.130000X-0.100000X0*%
%ADD24RoundRect,0.050000X-0.387500X-0.050000X0.387500X-0.050000X0.387500X0.050000X-0.387500X0.050000X0*%
%ADD25RoundRect,0.050000X-0.050000X-0.387500X0.050000X-0.387500X0.050000X0.387500X-0.050000X0.387500X0*%
%ADD26R,3.200000X3.200000*%
%ADD27RoundRect,0.062500X-0.387500X-0.062500X0.387500X-0.062500X0.387500X0.062500X-0.387500X0.062500X0*%
%ADD28R,0.200000X1.600000*%
%ADD29RoundRect,0.140000X-0.140000X-0.170000X0.140000X-0.170000X0.140000X0.170000X-0.140000X0.170000X0*%
%ADD30RoundRect,0.225000X0.225000X0.250000X-0.225000X0.250000X-0.225000X-0.250000X0.225000X-0.250000X0*%
%ADD31O,1.100000X1.800000*%
%ADD32O,1.100000X2.100000*%
G04 APERTURE END LIST*
D10*
%TO.C,D2*%
X156420000Y-82550000D03*
D11*
X156420000Y-80175000D03*
%TD*%
D12*
%TO.C,Y1*%
X148650000Y-110300000D03*
D13*
X146450000Y-110300000D03*
X146450000Y-111900000D03*
X148650000Y-111900000D03*
%TD*%
D14*
%TO.C,C6*%
X150200000Y-114350000D03*
X150200000Y-113710000D03*
%TD*%
D15*
%TO.C,REF\u002A\u002A*%
X165500000Y-86000000D03*
%TD*%
D14*
%TO.C,C5*%
X154087500Y-110690000D03*
X154087500Y-110050000D03*
%TD*%
D16*
%TO.C,C13*%
X147225313Y-113710000D03*
X147225313Y-114350000D03*
%TD*%
%TO.C,R8*%
X150200000Y-110050000D03*
X150200000Y-110690000D03*
%TD*%
D17*
%TO.C,R13*%
X144000000Y-83010000D03*
X144000000Y-81990000D03*
%TD*%
D14*
%TO.C,C10*%
X153174688Y-114350000D03*
X153174688Y-113710000D03*
%TD*%
D18*
%TO.C,R2*%
X156000000Y-99240000D03*
X156000000Y-100260000D03*
%TD*%
D15*
%TO.C,REF\u002A\u002A*%
X165500000Y-114000000D03*
%TD*%
D19*
%TO.C,R3*%
X148090000Y-91000000D03*
X149110000Y-91000000D03*
%TD*%
%TO.C,R6*%
X146990000Y-95250000D03*
X148010000Y-95250000D03*
%TD*%
D20*
%TO.C,J2*%
X141110000Y-80500000D03*
D21*
X141110000Y-83040000D03*
X141110000Y-85580000D03*
X141110000Y-88120000D03*
X141110000Y-90660000D03*
X141110000Y-93200000D03*
X141110000Y-95740000D03*
X141110000Y-98280000D03*
X141110000Y-100820000D03*
X141110000Y-103360000D03*
X141110000Y-105900000D03*
X141110000Y-108440000D03*
X141110000Y-110980000D03*
X141110000Y-113520000D03*
X141110000Y-116060000D03*
X141110000Y-118600000D03*
%TD*%
D18*
%TO.C,R4*%
X151600000Y-94240000D03*
X151600000Y-95260000D03*
%TD*%
D15*
%TO.C,REF\u002A\u002A*%
X165500000Y-100250000D03*
%TD*%
D14*
%TO.C,C1*%
X148216875Y-114350000D03*
X148216875Y-113710000D03*
%TD*%
D16*
%TO.C,C16*%
X154166250Y-113710000D03*
X154166250Y-114350000D03*
%TD*%
D14*
%TO.C,C2*%
X156000000Y-98320000D03*
X156000000Y-97680000D03*
%TD*%
D19*
%TO.C,R10*%
X153590000Y-101650000D03*
X154610000Y-101650000D03*
%TD*%
D22*
%TO.C,Q1*%
X153460000Y-98550000D03*
X153460000Y-99550000D03*
X154750000Y-99050000D03*
%TD*%
D23*
%TO.C,R11*%
X146570000Y-91000000D03*
X145930000Y-91000000D03*
%TD*%
D14*
%TO.C,C4*%
X152183125Y-114350000D03*
X152183125Y-113710000D03*
%TD*%
D24*
%TO.C,U1*%
X145012500Y-98087500D03*
X145012500Y-98487500D03*
X145012500Y-98887500D03*
X145012500Y-99287500D03*
X145012500Y-99687500D03*
X145012500Y-100087500D03*
X145012500Y-100487500D03*
X145012500Y-100887500D03*
X145012500Y-101287500D03*
X145012500Y-101687500D03*
X145012500Y-102087500D03*
X145012500Y-102487500D03*
X145012500Y-102887500D03*
X145012500Y-103287500D03*
D25*
X145850000Y-104125000D03*
X146250000Y-104125000D03*
X146650000Y-104125000D03*
X147050000Y-104125000D03*
X147450000Y-104125000D03*
X147850000Y-104125000D03*
X148250000Y-104125000D03*
X148650000Y-104125000D03*
X149050000Y-104125000D03*
X149450000Y-104125000D03*
X149850000Y-104125000D03*
X150250000Y-104125000D03*
X150650000Y-104125000D03*
X151050000Y-104125000D03*
D24*
X151887500Y-103287500D03*
X151887500Y-102887500D03*
X151887500Y-102487500D03*
X151887500Y-102087500D03*
X151887500Y-101687500D03*
X151887500Y-101287500D03*
X151887500Y-100887500D03*
X151887500Y-100487500D03*
X151887500Y-100087500D03*
X151887500Y-99687500D03*
X151887500Y-99287500D03*
X151887500Y-98887500D03*
X151887500Y-98487500D03*
X151887500Y-98087500D03*
D25*
X151050000Y-97250000D03*
X150650000Y-97250000D03*
X150250000Y-97250000D03*
X149850000Y-97250000D03*
X149450000Y-97250000D03*
X149050000Y-97250000D03*
X148650000Y-97250000D03*
X148250000Y-97250000D03*
X147850000Y-97250000D03*
X147450000Y-97250000D03*
X147050000Y-97250000D03*
X146650000Y-97250000D03*
X146250000Y-97250000D03*
X145850000Y-97250000D03*
D26*
X148450000Y-100687500D03*
%TD*%
D14*
%TO.C,C14*%
X151200000Y-110690000D03*
X151200000Y-110050000D03*
%TD*%
%TO.C,C3*%
X146233750Y-114350000D03*
X146233750Y-113710000D03*
%TD*%
D18*
%TO.C,R1*%
X156000000Y-95740000D03*
X156000000Y-96760000D03*
%TD*%
D16*
%TO.C,C12*%
X150700000Y-94630000D03*
X150700000Y-95270000D03*
%TD*%
D20*
%TO.C,J4*%
X158890000Y-80500000D03*
D21*
X158890000Y-83040000D03*
X158890000Y-85580000D03*
X158890000Y-88120000D03*
X158890000Y-90660000D03*
X158890000Y-93200000D03*
X158890000Y-95740000D03*
X158890000Y-98280000D03*
X158890000Y-100820000D03*
X158890000Y-103360000D03*
X158890000Y-105900000D03*
X158890000Y-108440000D03*
X158890000Y-110980000D03*
X158890000Y-113520000D03*
X158890000Y-116060000D03*
X158890000Y-118600000D03*
%TD*%
D15*
%TO.C,REF\u002A\u002A*%
X134750000Y-100000000D03*
%TD*%
D14*
%TO.C,C11*%
X151191563Y-114350000D03*
X151191563Y-113710000D03*
%TD*%
D18*
%TO.C,R9*%
X144750000Y-90240000D03*
X144750000Y-91260000D03*
%TD*%
D16*
%TO.C,C15*%
X151200000Y-111740000D03*
X151200000Y-112380000D03*
%TD*%
D15*
%TO.C,REF\u002A\u002A*%
X150250000Y-123000000D03*
%TD*%
D18*
%TO.C,R12*%
X148750000Y-87240000D03*
X148750000Y-88260000D03*
%TD*%
D27*
%TO.C,U2*%
X145825000Y-92350000D03*
X145825000Y-92850000D03*
X145825000Y-93350000D03*
X145825000Y-93850000D03*
X148675000Y-93850000D03*
X148675000Y-93350000D03*
X148675000Y-92850000D03*
X148675000Y-92350000D03*
D28*
X147250000Y-93100000D03*
%TD*%
D14*
%TO.C,C9*%
X152237500Y-110690000D03*
X152237500Y-110050000D03*
%TD*%
D15*
%TO.C,REF\u002A\u002A*%
X134750000Y-85750000D03*
%TD*%
D29*
%TO.C,C17*%
X153520000Y-97250000D03*
X154480000Y-97250000D03*
%TD*%
D23*
%TO.C,R14*%
X154720000Y-100500000D03*
X154080000Y-100500000D03*
%TD*%
D17*
%TO.C,R15*%
X156250000Y-87260000D03*
X156250000Y-86240000D03*
%TD*%
D19*
%TO.C,R5*%
X144990000Y-95250000D03*
X146010000Y-95250000D03*
%TD*%
D15*
%TO.C,REF\u002A\u002A*%
X134750000Y-112750000D03*
%TD*%
D30*
%TO.C,C18*%
X153875000Y-112050000D03*
X152325000Y-112050000D03*
%TD*%
D14*
%TO.C,C7*%
X153162500Y-110690000D03*
X153162500Y-110050000D03*
%TD*%
%TO.C,C8*%
X149208438Y-114350000D03*
X149208438Y-113710000D03*
%TD*%
D17*
%TO.C,R7*%
X150200000Y-112570000D03*
X150200000Y-111550000D03*
%TD*%
D31*
%TO.C,J1*%
X145680000Y-81000000D03*
D32*
X145680000Y-85090000D03*
D31*
X154320000Y-81000000D03*
D32*
X154320000Y-85090000D03*
%TD*%
M02*
