%TF.GenerationSoftware,KiCad,Pcbnew,9.0.0*%
%TF.CreationDate,2025-05-15T12:24:39+09:00*%
%TF.ProjectId,Raspberry Pi Pico(Designed By TORICA),52617370-6265-4727-9279-205069205069,rev?*%
%TF.SameCoordinates,Original*%
%TF.FileFunction,Copper,L2,Bot*%
%TF.FilePolarity,Positive*%
%FSLAX46Y46*%
G04 Gerber Fmt 4.6, Leading zero omitted, Abs format (unit mm)*
G04 Created by KiCad (PCBNEW 9.0.0) date 2025-05-15 12:24:39*
%MOMM*%
%LPD*%
G01*
G04 APERTURE LIST*
G04 Aperture macros list*
%AMRoundRect*
0 Rectangle with rounded corners*
0 $1 Rounding radius*
0 $2 $3 $4 $5 $6 $7 $8 $9 X,Y pos of 4 corners*
0 Add a 4 corners polygon primitive as box body*
4,1,4,$2,$3,$4,$5,$6,$7,$8,$9,$2,$3,0*
0 Add four circle primitives for the rounded corners*
1,1,$1+$1,$2,$3*
1,1,$1+$1,$4,$5*
1,1,$1+$1,$6,$7*
1,1,$1+$1,$8,$9*
0 Add four rect primitives between the rounded corners*
20,1,$1+$1,$2,$3,$4,$5,0*
20,1,$1+$1,$4,$5,$6,$7,0*
20,1,$1+$1,$6,$7,$8,$9,0*
20,1,$1+$1,$8,$9,$2,$3,0*%
G04 Aperture macros list end*
%TA.AperFunction,ComponentPad*%
%ADD10R,1.700000X1.700000*%
%TD*%
%TA.AperFunction,ComponentPad*%
%ADD11O,1.700000X1.700000*%
%TD*%
%TA.AperFunction,SMDPad,CuDef*%
%ADD12RoundRect,0.100000X0.130000X0.100000X-0.130000X0.100000X-0.130000X-0.100000X0.130000X-0.100000X0*%
%TD*%
%TA.AperFunction,SMDPad,CuDef*%
%ADD13R,1.000000X1.000000*%
%TD*%
%TA.AperFunction,SMDPad,CuDef*%
%ADD14R,0.300000X1.140000*%
%TD*%
%TA.AperFunction,ComponentPad*%
%ADD15O,1.100000X1.800000*%
%TD*%
%TA.AperFunction,ComponentPad*%
%ADD16O,1.100000X2.100000*%
%TD*%
%TA.AperFunction,SMDPad,CuDef*%
%ADD17R,1.600000X1.050000*%
%TD*%
%TA.AperFunction,SMDPad,CuDef*%
%ADD18R,1.200000X2.200000*%
%TD*%
%TA.AperFunction,SMDPad,CuDef*%
%ADD19R,3.500000X2.200000*%
%TD*%
%TA.AperFunction,ViaPad*%
%ADD20C,0.350000*%
%TD*%
%TA.AperFunction,ViaPad*%
%ADD21C,0.600000*%
%TD*%
%TA.AperFunction,Conductor*%
%ADD22C,0.300000*%
%TD*%
%TA.AperFunction,Conductor*%
%ADD23C,0.200000*%
%TD*%
%TA.AperFunction,Conductor*%
%ADD24C,0.700000*%
%TD*%
%TA.AperFunction,Conductor*%
%ADD25C,0.600000*%
%TD*%
%TA.AperFunction,Conductor*%
%ADD26C,1.500000*%
%TD*%
G04 APERTURE END LIST*
D10*
%TO.P,J2,1,Pin_1*%
%TO.N,/GPIO0*%
X141110000Y-80500000D03*
D11*
%TO.P,J2,2,Pin_2*%
%TO.N,/GPIO1*%
X141110000Y-83040000D03*
%TO.P,J2,3,Pin_3*%
%TO.N,/GPIO2*%
X141110000Y-85580000D03*
%TO.P,J2,4,Pin_4*%
%TO.N,/GPIO3*%
X141110000Y-88120000D03*
%TO.P,J2,5,Pin_5*%
%TO.N,/GPIO4*%
X141110000Y-90660000D03*
%TO.P,J2,6,Pin_6*%
%TO.N,/GPIO5*%
X141110000Y-93200000D03*
%TO.P,J2,7,Pin_7*%
%TO.N,/GPIO6*%
X141110000Y-95740000D03*
%TO.P,J2,8,Pin_8*%
%TO.N,/GPIO7*%
X141110000Y-98280000D03*
%TO.P,J2,9,Pin_9*%
%TO.N,/GPIO8*%
X141110000Y-100820000D03*
%TO.P,J2,10,Pin_10*%
%TO.N,/GPIO9*%
X141110000Y-103360000D03*
%TO.P,J2,11,Pin_11*%
%TO.N,/GPIO10*%
X141110000Y-105900000D03*
%TO.P,J2,12,Pin_12*%
%TO.N,/GPIO11*%
X141110000Y-108440000D03*
%TO.P,J2,13,Pin_13*%
%TO.N,/GPIO12*%
X141110000Y-110980000D03*
%TO.P,J2,14,Pin_14*%
%TO.N,/GPIO13*%
X141110000Y-113520000D03*
%TO.P,J2,15,Pin_15*%
%TO.N,/GPIO14*%
X141110000Y-116060000D03*
%TO.P,J2,16,Pin_16*%
%TO.N,GND*%
X141110000Y-118600000D03*
%TD*%
D10*
%TO.P,J4,1,Pin_1*%
%TO.N,/VBUS*%
X158890000Y-80500000D03*
D11*
%TO.P,J4,2,Pin_2*%
%TO.N,/VSYS*%
X158890000Y-83040000D03*
%TO.P,J4,3,Pin_3*%
%TO.N,+3V3*%
X158890000Y-85580000D03*
%TO.P,J4,4,Pin_4*%
%TO.N,/GPIO28_ADC2*%
X158890000Y-88120000D03*
%TO.P,J4,5,Pin_5*%
%TO.N,/GPIO27_ADC1*%
X158890000Y-90660000D03*
%TO.P,J4,6,Pin_6*%
%TO.N,/GPIO26_ADC0*%
X158890000Y-93200000D03*
%TO.P,J4,7,Pin_7*%
%TO.N,/GPIO23*%
X158890000Y-95740000D03*
%TO.P,J4,8,Pin_8*%
%TO.N,/GPIO22*%
X158890000Y-98280000D03*
%TO.P,J4,9,Pin_9*%
%TO.N,/GPIO21*%
X158890000Y-100820000D03*
%TO.P,J4,10,Pin_10*%
%TO.N,/GPIO20*%
X158890000Y-103360000D03*
%TO.P,J4,11,Pin_11*%
%TO.N,/GPIO19*%
X158890000Y-105900000D03*
%TO.P,J4,12,Pin_12*%
%TO.N,/GPIO18*%
X158890000Y-108440000D03*
%TO.P,J4,13,Pin_13*%
%TO.N,/GPIO17*%
X158890000Y-110980000D03*
%TO.P,J4,14,Pin_14*%
%TO.N,/GPIO16*%
X158890000Y-113520000D03*
%TO.P,J4,15,Pin_15*%
%TO.N,/GPIO15*%
X158890000Y-116060000D03*
%TO.P,J4,16,Pin_16*%
%TO.N,GND*%
X158890000Y-118600000D03*
%TD*%
D12*
%TO.P,D1,1,K*%
%TO.N,GND*%
X155820000Y-102500000D03*
%TO.P,D1,2,A*%
%TO.N,Net-(D1-A)*%
X155180000Y-102500000D03*
%TD*%
D13*
%TO.P,T1,1,1*%
%TO.N,Net-(R9-Pad1)*%
X144100000Y-87600000D03*
%TD*%
D14*
%TO.P,J1,A1,GND*%
%TO.N,GND*%
X146650000Y-85750000D03*
%TO.P,J1,A4,VBUS*%
%TO.N,/VBUS*%
X147450000Y-85750000D03*
%TO.P,J1,A5,CC1*%
%TO.N,Net-(J1-CC1)*%
X148750000Y-85750000D03*
%TO.P,J1,A6,D+*%
%TO.N,/USB_D+*%
X149750000Y-85750000D03*
%TO.P,J1,A7,D-*%
%TO.N,/USB_D-*%
X150250000Y-85750000D03*
%TO.P,J1,B5,CC2*%
%TO.N,Net-(J1-CC2)*%
X151750000Y-85750000D03*
%TO.P,J1,B6,D+*%
%TO.N,/USB_D+*%
X150750000Y-85750000D03*
%TO.P,J1,B7,D-*%
%TO.N,/USB_D-*%
X149250000Y-85750000D03*
%TO.P,J1,B12,GND*%
%TO.N,GND*%
X146950000Y-85750000D03*
D15*
%TO.P,J1,S1,SHIELD*%
X145680000Y-81000000D03*
D16*
X145680000Y-85090000D03*
D15*
X154320000Y-81000000D03*
D16*
X154320000Y-85090000D03*
%TD*%
D17*
%TO.P,SW1,1,1*%
%TO.N,GND*%
X146750000Y-87525000D03*
%TO.P,SW1,2,2*%
%TO.N,Net-(R9-Pad1)*%
X146750000Y-91975000D03*
%TD*%
D13*
%TO.P,T3,1,1*%
%TO.N,/USB_D-*%
X149450000Y-88000000D03*
%TD*%
%TO.P,T2,1,1*%
%TO.N,Net-(D1-A)*%
X156200000Y-105050000D03*
%TD*%
%TO.P,T5,1,1*%
%TO.N,/VSYS*%
X156250000Y-86750000D03*
%TD*%
D17*
%TO.P,SW2,1,1*%
%TO.N,/RUN*%
X153600000Y-108800000D03*
%TO.P,SW2,2,2*%
%TO.N,GND*%
X153600000Y-104350000D03*
%TD*%
D13*
%TO.P,T4,1,1*%
%TO.N,/USB_D+*%
X149550000Y-91800000D03*
%TD*%
D18*
%TO.P,U3,1,IN*%
%TO.N,/VSYS*%
X151950000Y-89300000D03*
%TO.P,U3,2,GND*%
%TO.N,GND*%
X154250000Y-89300000D03*
D19*
%TO.P,U3,3,OUT*%
%TO.N,+3V3*%
X154250000Y-95500000D03*
D18*
X156550000Y-89300000D03*
%TD*%
D20*
%TO.N,GND*%
X148850000Y-86650000D03*
X147500000Y-109250000D03*
X145450000Y-103700000D03*
X152350000Y-103700000D03*
X154250000Y-91650000D03*
X151450000Y-103750000D03*
X157400000Y-103301000D03*
X150100000Y-89700000D03*
X153650000Y-104650000D03*
X142250000Y-106150000D03*
X142500000Y-101650000D03*
X156625000Y-98750000D03*
X152900000Y-90300000D03*
X153350000Y-106900000D03*
X150650000Y-93100000D03*
X142250000Y-100550000D03*
X149900000Y-87100000D03*
X152400000Y-87850000D03*
X149800000Y-103150000D03*
X153250000Y-112750000D03*
X155100000Y-99700000D03*
D21*
X148000000Y-88070000D03*
D20*
X151050000Y-103350000D03*
X157700000Y-85650000D03*
X142150000Y-107900000D03*
X154035876Y-103014124D03*
X155100000Y-87200000D03*
X149500000Y-105000000D03*
X155100000Y-106900000D03*
X157700000Y-86150000D03*
X155300000Y-105450000D03*
D21*
X153040689Y-86100000D03*
D20*
X150200000Y-92600000D03*
X148300000Y-85600000D03*
X143100000Y-107850000D03*
X146650000Y-106300000D03*
X150100000Y-88800000D03*
X144000000Y-108000000D03*
X157400000Y-116500000D03*
X144500000Y-97600000D03*
X152700000Y-109650000D03*
X153600000Y-109650000D03*
X150700000Y-109650000D03*
X155200000Y-98450000D03*
D21*
X154250000Y-87500000D03*
D20*
X150950000Y-102200000D03*
X153700000Y-107700000D03*
X146650000Y-94630000D03*
X149100000Y-108400000D03*
%TO.N,+3V3*%
X145485876Y-94464124D03*
X152550000Y-97600000D03*
X149600000Y-107950000D03*
X147935082Y-92527599D03*
X148173219Y-91695000D03*
X146329087Y-90396730D03*
X153197279Y-111295000D03*
%TO.N,+1V1*%
X149173376Y-103198376D03*
X148249999Y-97878668D03*
X149600000Y-98125000D03*
%TO.N,/VSYS*%
X153250000Y-92050000D03*
D21*
X157250000Y-85250000D03*
D20*
%TO.N,Net-(D1-A)*%
X154610000Y-102875000D03*
D21*
%TO.N,Net-(J1-CC1)*%
X148250000Y-86750000D03*
%TO.N,Net-(J1-CC2)*%
X147500000Y-83000000D03*
D20*
%TO.N,/GPIO1*%
X145641168Y-98887501D03*
%TO.N,/GPIO3*%
X145641168Y-99687500D03*
%TO.N,/GPIO7*%
X144256250Y-101506250D03*
%TO.N,/GPIO5*%
X145641168Y-100487501D03*
%TO.N,/GPIO9*%
X145641168Y-102487500D03*
%TO.N,/USB_D-*%
X149650000Y-89950000D03*
%TO.N,/USB_D+*%
X148650000Y-90200000D03*
%TO.N,/GPIO15*%
X146825000Y-115025000D03*
X146000000Y-107800000D03*
%TO.N,/GPIO22*%
X151174943Y-101212500D03*
%TO.N,/GPIO26_ADC0*%
X151258832Y-99687499D03*
%TO.N,/GPIO27_ADC1*%
X152516168Y-99287500D03*
X151538268Y-97612500D03*
%TO.N,/GPIO28_ADC2*%
X151650000Y-96800000D03*
X151258832Y-98887499D03*
%TO.N,/GPIO21*%
X153850000Y-102400000D03*
%TO.N,Net-(U1-USB_DP)*%
X149450000Y-95900000D03*
X151099386Y-93702747D03*
%TO.N,Net-(U1-USB_DM)*%
X151600000Y-95950000D03*
X150100000Y-96250000D03*
%TO.N,/XOUT*%
X149050000Y-109100000D03*
X149725000Y-110525000D03*
%TO.N,Net-(R9-Pad1)*%
X144750000Y-89200000D03*
X145507109Y-90524795D03*
%TO.N,/QSPI_SS*%
X144475000Y-92450000D03*
X145465000Y-96950000D03*
%TO.N,/GPIO24*%
X154759011Y-91150000D03*
X151258832Y-100487499D03*
X153550000Y-100415306D03*
X155300000Y-87645000D03*
X157051001Y-96822751D03*
%TO.N,/GPIO23*%
X152520364Y-100890306D03*
%TO.N,/RUN*%
X150250000Y-103496332D03*
%TO.N,/QSPI_SD2*%
X144894000Y-93600000D03*
X146304956Y-95921494D03*
%TO.N,/QSPI_SCLK*%
X149450000Y-93350000D03*
X147750000Y-96050000D03*
%TO.N,/QSPI_SD0*%
X149350000Y-94000000D03*
X147047872Y-95968781D03*
%TO.N,/QSPI_SD1*%
X144474999Y-95778749D03*
X145600000Y-96350000D03*
%TO.N,/QSPI_SD3*%
X150000000Y-93050000D03*
X148660876Y-96060876D03*
D21*
%TO.N,/VBUS*%
X148250000Y-84500000D03*
%TD*%
D22*
%TO.N,GND*%
X154233011Y-89316989D02*
X154233011Y-91633011D01*
D23*
X156599000Y-102500000D02*
X157400000Y-103301000D01*
X155200000Y-98450000D02*
X155200000Y-98650000D01*
D22*
X153510000Y-85090000D02*
X154320000Y-85090000D01*
D23*
X156625000Y-98750000D02*
X156375000Y-99000000D01*
X146750000Y-85850000D02*
X146650000Y-85750000D01*
X155200000Y-98650000D02*
X155550000Y-99000000D01*
X146650000Y-87425000D02*
X146750000Y-87525000D01*
D24*
X154320000Y-81000000D02*
X154320000Y-85090000D01*
D25*
X146340000Y-85750000D02*
X145680000Y-85090000D01*
D24*
X145680000Y-85090000D02*
X145680000Y-81000000D01*
D22*
X154233011Y-91633011D02*
X154250000Y-91650000D01*
D25*
X146650000Y-85750000D02*
X146340000Y-85750000D01*
D22*
X153040689Y-86100000D02*
X153040689Y-85559311D01*
D23*
X148000000Y-88070000D02*
X147750000Y-88070000D01*
X146750000Y-87525000D02*
X146750000Y-85850000D01*
X155820000Y-102500000D02*
X156599000Y-102500000D01*
D22*
X154250000Y-89300000D02*
X154250000Y-87500000D01*
D23*
X147750000Y-88070000D02*
X147205000Y-87525000D01*
X157400000Y-116500000D02*
X157400000Y-103301000D01*
X156375000Y-99000000D02*
X155550000Y-99000000D01*
D22*
X154250000Y-89300000D02*
X154233011Y-89316989D01*
X153040689Y-85559311D02*
X153510000Y-85090000D01*
D23*
X147205000Y-87525000D02*
X146750000Y-87525000D01*
%TO.N,+3V3*%
X153197279Y-111295000D02*
X153176660Y-111274381D01*
X153176660Y-111274381D02*
X152924381Y-111274381D01*
X152550000Y-97600000D02*
X152550000Y-97150000D01*
X146187876Y-94464124D02*
X147935082Y-92716918D01*
X148173219Y-91323219D02*
X148173219Y-91695000D01*
X147600000Y-90750000D02*
X148173219Y-91323219D01*
D26*
X154250000Y-93250000D02*
X154250000Y-95500000D01*
D23*
X147246730Y-90396730D02*
X147600000Y-90750000D01*
X152550000Y-97150000D02*
X154200000Y-95500000D01*
X145485876Y-94464124D02*
X146187876Y-94464124D01*
X154200000Y-95500000D02*
X154250000Y-95500000D01*
D26*
X156550000Y-90950000D02*
X154250000Y-93250000D01*
D23*
X156550000Y-87920000D02*
X156550000Y-89300000D01*
X152924381Y-111274381D02*
X149600000Y-107950000D01*
X147935082Y-92716918D02*
X147935082Y-92527599D01*
D26*
X156550000Y-89300000D02*
X156550000Y-90950000D01*
D23*
X146329087Y-90396730D02*
X147246730Y-90396730D01*
X158890000Y-85580000D02*
X156550000Y-87920000D01*
%TO.N,+1V1*%
X148496331Y-98125000D02*
X149600000Y-98125000D01*
X150000000Y-102371752D02*
X150000000Y-98525000D01*
X149173376Y-103198376D02*
X150000000Y-102371752D01*
X148249999Y-97878668D02*
X148496331Y-98125000D01*
X150000000Y-98525000D02*
X149600000Y-98125000D01*
D22*
%TO.N,/VSYS*%
X152750000Y-86750000D02*
X156250000Y-86750000D01*
X157250000Y-86500000D02*
X157250000Y-85250000D01*
X156250000Y-86750000D02*
X157000000Y-86750000D01*
X157000000Y-86750000D02*
X157250000Y-86500000D01*
X151950000Y-89300000D02*
X151950000Y-87550000D01*
X151950000Y-90750000D02*
X153250000Y-92050000D01*
X151950000Y-87550000D02*
X152750000Y-86750000D01*
X151950000Y-89300000D02*
X151950000Y-90750000D01*
D23*
%TO.N,Net-(D1-A)*%
X154610000Y-102935000D02*
X154610000Y-102875000D01*
X154805000Y-102875000D02*
X155180000Y-102500000D01*
X156200000Y-104525000D02*
X154610000Y-102935000D01*
X154610000Y-102875000D02*
X154805000Y-102875000D01*
X156200000Y-105050000D02*
X156200000Y-104525000D01*
%TO.N,Net-(J1-CC1)*%
X148250000Y-86250000D02*
X148750000Y-85750000D01*
X148250000Y-86750000D02*
X148250000Y-86250000D01*
D22*
%TO.N,Net-(J1-CC2)*%
X151750000Y-85500000D02*
X151750000Y-84500000D01*
X151750000Y-84500000D02*
X150250000Y-83000000D01*
X150250000Y-83000000D02*
X147500000Y-83000000D01*
D23*
%TO.N,/GPIO1*%
X144387501Y-98887501D02*
X145641168Y-98887501D01*
X142650000Y-88850000D02*
X143500000Y-89700000D01*
X141110000Y-83040000D02*
X141890000Y-83040000D01*
X142650000Y-83800000D02*
X142650000Y-88850000D01*
X143500000Y-89700000D02*
X143500000Y-98000000D01*
X143500000Y-98000000D02*
X144387501Y-98887501D01*
X141890000Y-83040000D02*
X142650000Y-83800000D01*
%TO.N,/GPIO3*%
X142800000Y-98800000D02*
X142800000Y-90250000D01*
X142800000Y-90250000D02*
X141110000Y-88560000D01*
X145641168Y-99687500D02*
X143687500Y-99687500D01*
X141110000Y-88560000D02*
X141110000Y-88120000D01*
X143687500Y-99687500D02*
X142800000Y-98800000D01*
%TO.N,/GPIO7*%
X144150000Y-101612500D02*
X143912500Y-101612500D01*
X144256250Y-101506250D02*
X144150000Y-101612500D01*
X143912500Y-101612500D02*
X141110000Y-98810000D01*
X141110000Y-98810000D02*
X141110000Y-98280000D01*
%TO.N,/GPIO5*%
X142261000Y-97803240D02*
X142250000Y-97792240D01*
X145641168Y-100487501D02*
X143787501Y-100487501D01*
X143787501Y-100487501D02*
X142250000Y-98950000D01*
X142250000Y-98767760D02*
X142261000Y-98756760D01*
X142250000Y-93650000D02*
X141800000Y-93200000D01*
X142250000Y-95252240D02*
X142250000Y-93650000D01*
X142250000Y-98950000D02*
X142250000Y-98767760D01*
X142261000Y-95263240D02*
X142250000Y-95252240D01*
X142261000Y-96216760D02*
X142261000Y-95263240D01*
X142261000Y-98756760D02*
X142261000Y-97803240D01*
X141800000Y-93200000D02*
X141110000Y-93200000D01*
X142250000Y-97792240D02*
X142250000Y-96227760D01*
X142250000Y-96227760D02*
X142261000Y-96216760D01*
%TO.N,/GPIO9*%
X141982500Y-102487500D02*
X141110000Y-103360000D01*
X145641168Y-102487500D02*
X141982500Y-102487500D01*
%TO.N,/USB_D-*%
X149450000Y-87200000D02*
X149250000Y-87000000D01*
X149450000Y-89750000D02*
X149650000Y-89950000D01*
X149250000Y-85000000D02*
X149400000Y-84850000D01*
X149250000Y-85750000D02*
X149250000Y-85000000D01*
X150250000Y-84950000D02*
X150250000Y-85750000D01*
X149450000Y-88000000D02*
X149450000Y-89750000D01*
X150150000Y-84850000D02*
X150250000Y-84950000D01*
X149250000Y-87000000D02*
X149250000Y-85750000D01*
X149400000Y-84850000D02*
X150150000Y-84850000D01*
X149450000Y-88000000D02*
X149450000Y-87200000D01*
%TO.N,/USB_D+*%
X150750000Y-85750000D02*
X150750000Y-86500000D01*
X150500000Y-90000000D02*
X150500000Y-86750000D01*
X149900000Y-86650000D02*
X149750000Y-86500000D01*
X149550000Y-90750000D02*
X149550000Y-90950000D01*
X149550000Y-90950000D02*
X149550000Y-91800000D01*
X150600000Y-86650000D02*
X150750000Y-86500000D01*
X150600000Y-86650000D02*
X149900000Y-86650000D01*
X150500000Y-90000000D02*
X149550000Y-90950000D01*
X150500000Y-86750000D02*
X150600000Y-86650000D01*
X149000000Y-90200000D02*
X149550000Y-90750000D01*
X148650000Y-90200000D02*
X149000000Y-90200000D01*
X149750000Y-86500000D02*
X149750000Y-85750000D01*
%TO.N,/GPIO15*%
X146000000Y-114200000D02*
X146825000Y-115025000D01*
X146000000Y-107800000D02*
X146000000Y-114200000D01*
%TO.N,/GPIO22*%
X151174943Y-101212500D02*
X151328749Y-101366306D01*
X155803694Y-101366306D02*
X158890000Y-98280000D01*
X151328749Y-101366306D02*
X155803694Y-101366306D01*
%TO.N,/GPIO26_ADC0*%
X151258832Y-99687499D02*
X151334833Y-99763500D01*
X151334833Y-99763500D02*
X152713334Y-99763500D01*
X157750000Y-93200000D02*
X158890000Y-93200000D01*
X156900000Y-96302000D02*
X156900000Y-94050000D01*
X153350000Y-99126834D02*
X153350000Y-97650000D01*
X155952000Y-97250000D02*
X156900000Y-96302000D01*
X152713334Y-99763500D02*
X153350000Y-99126834D01*
X153350000Y-97650000D02*
X153750000Y-97250000D01*
X156900000Y-94050000D02*
X157750000Y-93200000D01*
X153750000Y-97250000D02*
X155952000Y-97250000D01*
%TO.N,/GPIO27_ADC1*%
X151734832Y-97809064D02*
X151538268Y-97612500D01*
X151734832Y-98884832D02*
X151734832Y-98700000D01*
X151734832Y-98700000D02*
X151734832Y-97809064D01*
X152137500Y-99287500D02*
X151734832Y-98884832D01*
X152516168Y-99287500D02*
X152137500Y-99287500D01*
%TO.N,/GPIO28_ADC2*%
X150950000Y-97500000D02*
X151650000Y-96800000D01*
X151087499Y-98887499D02*
X150950000Y-98750000D01*
X151258832Y-98887499D02*
X151087499Y-98887499D01*
X150950000Y-98750000D02*
X150950000Y-97500000D01*
%TO.N,/GPIO21*%
X154250000Y-102000000D02*
X157400000Y-102000000D01*
X153850000Y-102400000D02*
X154250000Y-102000000D01*
X157400000Y-102000000D02*
X158580000Y-100820000D01*
X158580000Y-100820000D02*
X158890000Y-100820000D01*
%TO.N,Net-(U1-USB_DP)*%
X151100000Y-93703361D02*
X151100000Y-94250000D01*
X151099386Y-93702747D02*
X151100000Y-93703361D01*
X151100000Y-94250000D02*
X149450000Y-95900000D01*
%TO.N,Net-(U1-USB_DM)*%
X150100000Y-96250000D02*
X151300000Y-96250000D01*
X151300000Y-96250000D02*
X151600000Y-95950000D01*
%TO.N,/XOUT*%
X149050000Y-109100000D02*
X149700000Y-109750000D01*
X149700000Y-110500000D02*
X149725000Y-110525000D01*
X149700000Y-109750000D02*
X149700000Y-110500000D01*
%TO.N,Net-(R9-Pad1)*%
X145774795Y-90524795D02*
X145507109Y-90524795D01*
X144100000Y-88550000D02*
X144100000Y-87600000D01*
X146750000Y-91975000D02*
X146750000Y-91500000D01*
X144750000Y-89200000D02*
X144100000Y-88550000D01*
X146750000Y-91500000D02*
X145774795Y-90524795D01*
%TO.N,/QSPI_SS*%
X144200000Y-96950000D02*
X143900000Y-96650000D01*
X145465000Y-96950000D02*
X144200000Y-96950000D01*
X143900000Y-96650000D02*
X143900000Y-93025000D01*
X143900000Y-93025000D02*
X144475000Y-92450000D01*
%TO.N,/GPIO24*%
X154075000Y-99625000D02*
X154075000Y-98375000D01*
X152879434Y-100164500D02*
X153093934Y-99950000D01*
X156073752Y-97800000D02*
X157051001Y-96822751D01*
X154759011Y-91150000D02*
X155300000Y-90609011D01*
X155300000Y-90609011D02*
X155300000Y-87645000D01*
X153750000Y-99950000D02*
X154075000Y-99625000D01*
X153550000Y-100415306D02*
X153591559Y-100415306D01*
X151581831Y-100164500D02*
X152879434Y-100164500D01*
X151258832Y-100487499D02*
X151581831Y-100164500D01*
X153093934Y-99950000D02*
X153750000Y-99950000D01*
X154075000Y-98375000D02*
X154650000Y-97800000D01*
X153550000Y-100150000D02*
X154075000Y-99625000D01*
X153550000Y-100415306D02*
X153550000Y-100150000D01*
X154650000Y-97800000D02*
X156073752Y-97800000D01*
%TO.N,/GPIO23*%
X152520364Y-100890306D02*
X155459694Y-100890306D01*
X158890000Y-96260000D02*
X158890000Y-95740000D01*
X157100000Y-97530000D02*
X158890000Y-95740000D01*
X157100000Y-99250000D02*
X157100000Y-97530000D01*
X155459694Y-100890306D02*
X157100000Y-99250000D01*
%TO.N,/RUN*%
X150250000Y-103496332D02*
X150250000Y-105450000D01*
X150250000Y-105450000D02*
X153600000Y-108800000D01*
%TO.N,/QSPI_SD2*%
X146304956Y-95921494D02*
X146271494Y-95921494D01*
X144894000Y-94544000D02*
X144894000Y-93600000D01*
X146271494Y-95921494D02*
X144894000Y-94544000D01*
%TO.N,/QSPI_SCLK*%
X149826000Y-94224000D02*
X149826000Y-93676000D01*
X149826000Y-94224000D02*
X148000000Y-96050000D01*
X149826000Y-93676000D02*
X149500000Y-93350000D01*
X148000000Y-96050000D02*
X147750000Y-96050000D01*
X149500000Y-93350000D02*
X149450000Y-93350000D01*
%TO.N,/QSPI_SD0*%
X147047872Y-95052128D02*
X148100000Y-94000000D01*
X148100000Y-94000000D02*
X149350000Y-94000000D01*
X147047872Y-95968781D02*
X147047872Y-95052128D01*
%TO.N,/QSPI_SD1*%
X144474999Y-95824999D02*
X145000000Y-96350000D01*
X145000000Y-96350000D02*
X145600000Y-96350000D01*
X144474999Y-95778749D02*
X144474999Y-95824999D01*
%TO.N,/QSPI_SD3*%
X150300000Y-93350000D02*
X150000000Y-93050000D01*
X150300000Y-94376834D02*
X150300000Y-93350000D01*
X148660876Y-96060876D02*
X148660876Y-96015958D01*
X148660876Y-96015958D02*
X150300000Y-94376834D01*
%TO.N,/VBUS*%
X148250000Y-84500000D02*
X148250000Y-84950000D01*
X148250000Y-84950000D02*
X147450000Y-85750000D01*
%TD*%
%TA.AperFunction,Conductor*%
%TO.N,GND*%
G36*
X156745445Y-97650021D02*
G01*
X156788710Y-97693286D01*
X156799500Y-97738231D01*
X156799500Y-99084521D01*
X156780593Y-99142712D01*
X156770504Y-99154525D01*
X155364219Y-100560810D01*
X155309702Y-100588587D01*
X155294215Y-100589806D01*
X154021008Y-100589806D01*
X153962817Y-100570899D01*
X153926853Y-100521399D01*
X153925541Y-100471290D01*
X153924653Y-100471173D01*
X153925391Y-100465560D01*
X153925382Y-100465182D01*
X153925499Y-100464743D01*
X153925500Y-100464740D01*
X153925500Y-100365872D01*
X153920982Y-100349011D01*
X153905128Y-100289842D01*
X153908330Y-100228743D01*
X153930749Y-100194220D01*
X154315460Y-99809511D01*
X154333325Y-99778566D01*
X154340877Y-99765488D01*
X154346245Y-99756188D01*
X154355021Y-99740989D01*
X154375500Y-99664562D01*
X154375500Y-98540479D01*
X154394407Y-98482288D01*
X154404496Y-98470475D01*
X154745475Y-98129496D01*
X154799992Y-98101719D01*
X154815479Y-98100500D01*
X156113315Y-98100500D01*
X156113315Y-98100499D01*
X156189741Y-98080021D01*
X156258263Y-98040460D01*
X156314212Y-97984511D01*
X156630496Y-97668227D01*
X156685013Y-97640450D01*
X156745445Y-97650021D01*
G37*
%TD.AperFunction*%
%TA.AperFunction,Conductor*%
G36*
X147986732Y-93186980D02*
G01*
X148029997Y-93230245D01*
X148040759Y-93277542D01*
X148032208Y-93637329D01*
X148011923Y-93695054D01*
X147982737Y-93720713D01*
X147915490Y-93759538D01*
X147915488Y-93759540D01*
X146944394Y-94730632D01*
X146889878Y-94758409D01*
X146869755Y-94759519D01*
X146565954Y-94745278D01*
X146508713Y-94723667D01*
X146475106Y-94672537D01*
X146477971Y-94611419D01*
X146500582Y-94576388D01*
X147871785Y-93205184D01*
X147926300Y-93177409D01*
X147986732Y-93186980D01*
G37*
%TD.AperFunction*%
%TA.AperFunction,Conductor*%
G36*
X155187494Y-87119407D02*
G01*
X155223458Y-87168907D01*
X155223458Y-87230093D01*
X155187494Y-87279593D01*
X155160914Y-87292270D01*
X155161054Y-87292608D01*
X155155058Y-87295091D01*
X155069440Y-87344523D01*
X154999523Y-87414440D01*
X154950091Y-87500057D01*
X154924500Y-87595566D01*
X154924500Y-87601000D01*
X154905593Y-87659191D01*
X154856093Y-87695155D01*
X154825500Y-87700000D01*
X153602176Y-87700000D01*
X153542629Y-87706401D01*
X153542618Y-87706403D01*
X153407911Y-87756646D01*
X153407909Y-87756647D01*
X153292815Y-87842807D01*
X153292810Y-87842812D01*
X153230114Y-87926561D01*
X154356772Y-89053219D01*
X154384549Y-89107736D01*
X154374978Y-89168168D01*
X154356772Y-89193227D01*
X154143227Y-89406772D01*
X154088710Y-89434549D01*
X154028278Y-89424978D01*
X154003219Y-89406772D01*
X153150000Y-88553553D01*
X153150000Y-90396647D01*
X153131093Y-90454838D01*
X153081593Y-90490802D01*
X153032354Y-90493875D01*
X152830854Y-90455232D01*
X152777266Y-90425703D01*
X152751269Y-90370316D01*
X152750500Y-90358004D01*
X152750500Y-88180253D01*
X152750498Y-88180241D01*
X152743074Y-88142921D01*
X152738867Y-88121769D01*
X152694552Y-88055448D01*
X152694548Y-88055445D01*
X152628233Y-88011134D01*
X152628231Y-88011133D01*
X152628228Y-88011132D01*
X152628227Y-88011132D01*
X152569758Y-87999501D01*
X152569748Y-87999500D01*
X152569747Y-87999500D01*
X152399500Y-87999500D01*
X152384588Y-87994655D01*
X152368907Y-87994655D01*
X152356221Y-87985438D01*
X152341309Y-87980593D01*
X152332092Y-87967907D01*
X152319407Y-87958691D01*
X152314561Y-87943778D01*
X152305345Y-87931093D01*
X152300500Y-87900500D01*
X152300500Y-87736190D01*
X152319407Y-87677999D01*
X152329496Y-87666186D01*
X152866186Y-87129496D01*
X152920703Y-87101719D01*
X152936190Y-87100500D01*
X155129303Y-87100500D01*
X155187494Y-87119407D01*
G37*
%TD.AperFunction*%
%TA.AperFunction,Conductor*%
G36*
X150161789Y-88681897D02*
G01*
X150195783Y-88732770D01*
X150199500Y-88759644D01*
X150199500Y-89797962D01*
X150180593Y-89856153D01*
X150131093Y-89892117D01*
X150069907Y-89892117D01*
X150020407Y-89856153D01*
X150004874Y-89823586D01*
X149999910Y-89805062D01*
X149999908Y-89805058D01*
X149950476Y-89719440D01*
X149950475Y-89719438D01*
X149880562Y-89649525D01*
X149869453Y-89643111D01*
X149799999Y-89603011D01*
X149759059Y-89557541D01*
X149750500Y-89517275D01*
X149750500Y-88799500D01*
X149769407Y-88741309D01*
X149818907Y-88705345D01*
X149849500Y-88700500D01*
X149969747Y-88700500D01*
X149969748Y-88700500D01*
X150028231Y-88688867D01*
X150045499Y-88677328D01*
X150104385Y-88660720D01*
X150161789Y-88681897D01*
G37*
%TD.AperFunction*%
%TA.AperFunction,Conductor*%
G36*
X149845446Y-86946482D02*
G01*
X149860438Y-86950500D01*
X150100500Y-86950500D01*
X150158691Y-86969407D01*
X150194655Y-87018907D01*
X150199500Y-87049500D01*
X150199500Y-87240355D01*
X150180593Y-87298546D01*
X150131093Y-87334510D01*
X150069907Y-87334510D01*
X150045499Y-87322671D01*
X150028233Y-87311134D01*
X150028231Y-87311133D01*
X150028228Y-87311132D01*
X150028227Y-87311132D01*
X149969758Y-87299501D01*
X149969748Y-87299500D01*
X149969747Y-87299500D01*
X149849500Y-87299500D01*
X149791309Y-87280593D01*
X149755345Y-87231093D01*
X149750500Y-87200500D01*
X149750500Y-87160439D01*
X149750500Y-87160438D01*
X149738590Y-87115989D01*
X149738590Y-87115988D01*
X149738590Y-87115987D01*
X149730023Y-87084016D01*
X149730022Y-87084012D01*
X149730019Y-87084007D01*
X149728356Y-87079991D01*
X149727027Y-87063101D01*
X149720958Y-87047289D01*
X149724688Y-87033367D01*
X149723558Y-87018994D01*
X149732410Y-87004549D01*
X149736795Y-86988188D01*
X149747997Y-86979116D01*
X149755530Y-86966826D01*
X149771180Y-86960344D01*
X149784345Y-86949684D01*
X149798740Y-86948929D01*
X149812059Y-86943414D01*
X149845446Y-86946482D01*
G37*
%TD.AperFunction*%
%TA.AperFunction,Conductor*%
G36*
X157768738Y-85507012D02*
G01*
X157777558Y-85507627D01*
X157794694Y-85521997D01*
X157814070Y-85533183D01*
X157817666Y-85541261D01*
X157824441Y-85546942D01*
X157829858Y-85568644D01*
X157838957Y-85589078D01*
X157839500Y-85599429D01*
X157839500Y-85683467D01*
X157879869Y-85886418D01*
X157936196Y-86022402D01*
X157940997Y-86083399D01*
X157914736Y-86130291D01*
X157769504Y-86275524D01*
X157714987Y-86303302D01*
X157654555Y-86293731D01*
X157611291Y-86250466D01*
X157600500Y-86205521D01*
X157600500Y-85648321D01*
X157601605Y-85644917D01*
X157600739Y-85641445D01*
X157607696Y-85626171D01*
X157619407Y-85590130D01*
X157623642Y-85584708D01*
X157626426Y-85581387D01*
X157650500Y-85557314D01*
X157659088Y-85542438D01*
X157664642Y-85535816D01*
X157683608Y-85523956D01*
X157700231Y-85508989D01*
X157709024Y-85508064D01*
X157716521Y-85503377D01*
X157738834Y-85504930D01*
X157761081Y-85502592D01*
X157768738Y-85507012D01*
G37*
%TD.AperFunction*%
%TA.AperFunction,Conductor*%
G36*
X148345445Y-85376269D02*
G01*
X148388710Y-85419534D01*
X148399500Y-85464479D01*
X148399500Y-85634521D01*
X148380593Y-85692712D01*
X148370504Y-85704525D01*
X148065489Y-86009540D01*
X148065488Y-86009539D01*
X148009540Y-86065488D01*
X147985236Y-86107584D01*
X147939766Y-86148525D01*
X147878915Y-86154919D01*
X147825928Y-86124326D01*
X147801042Y-86068430D01*
X147800500Y-86058083D01*
X147800500Y-85865479D01*
X147819407Y-85807288D01*
X147829496Y-85795475D01*
X148230496Y-85394475D01*
X148285013Y-85366698D01*
X148345445Y-85376269D01*
G37*
%TD.AperFunction*%
%TA.AperFunction,Conductor*%
G36*
X160209191Y-79268907D02*
G01*
X160245155Y-79318407D01*
X160250000Y-79349000D01*
X160250000Y-117883155D01*
X160231093Y-117941346D01*
X160181593Y-117977310D01*
X160120407Y-117977310D01*
X160070907Y-117941346D01*
X160062791Y-117928101D01*
X160044626Y-117892451D01*
X160044625Y-117892449D01*
X159919722Y-117720535D01*
X159769464Y-117570277D01*
X159597552Y-117445375D01*
X159408215Y-117348904D01*
X159206122Y-117283241D01*
X159151822Y-117274640D01*
X159097306Y-117246862D01*
X159069529Y-117192345D01*
X159079101Y-117131913D01*
X159122366Y-117088649D01*
X159147993Y-117079762D01*
X159196420Y-117070130D01*
X159387598Y-116990941D01*
X159559655Y-116875977D01*
X159705977Y-116729655D01*
X159820941Y-116557598D01*
X159900130Y-116366420D01*
X159940500Y-116163465D01*
X159940500Y-115956535D01*
X159900130Y-115753580D01*
X159820941Y-115562402D01*
X159705977Y-115390345D01*
X159559655Y-115244023D01*
X159559651Y-115244020D01*
X159387597Y-115129058D01*
X159196418Y-115049869D01*
X158993467Y-115009500D01*
X158993465Y-115009500D01*
X158786535Y-115009500D01*
X158786532Y-115009500D01*
X158583581Y-115049869D01*
X158392402Y-115129058D01*
X158220348Y-115244020D01*
X158074020Y-115390348D01*
X157959058Y-115562402D01*
X157879869Y-115753581D01*
X157839500Y-115956532D01*
X157839500Y-116163467D01*
X157879869Y-116366418D01*
X157959058Y-116557597D01*
X157959059Y-116557598D01*
X158074023Y-116729655D01*
X158220345Y-116875977D01*
X158392402Y-116990941D01*
X158583580Y-117070130D01*
X158632003Y-117079762D01*
X158685386Y-117109657D01*
X158711003Y-117165221D01*
X158699067Y-117225231D01*
X158654138Y-117266765D01*
X158628177Y-117274640D01*
X158573877Y-117283241D01*
X158371784Y-117348904D01*
X158182447Y-117445375D01*
X158010535Y-117570277D01*
X157860277Y-117720535D01*
X157735375Y-117892447D01*
X157638904Y-118081784D01*
X157573241Y-118283877D01*
X157562768Y-118349999D01*
X157562769Y-118350000D01*
X158456988Y-118350000D01*
X158424075Y-118407007D01*
X158390000Y-118534174D01*
X158390000Y-118665826D01*
X158424075Y-118792993D01*
X158456988Y-118850000D01*
X157562769Y-118850000D01*
X157573241Y-118916122D01*
X157638904Y-119118215D01*
X157735375Y-119307552D01*
X157860277Y-119479464D01*
X158010535Y-119629722D01*
X158182447Y-119754624D01*
X158296606Y-119812790D01*
X158339871Y-119856055D01*
X158349442Y-119916487D01*
X158321665Y-119971003D01*
X158267148Y-119998781D01*
X158251661Y-120000000D01*
X141748339Y-120000000D01*
X141690148Y-119981093D01*
X141654184Y-119931593D01*
X141654184Y-119870407D01*
X141690148Y-119820907D01*
X141703394Y-119812790D01*
X141817552Y-119754624D01*
X141989464Y-119629722D01*
X142139722Y-119479464D01*
X142264624Y-119307552D01*
X142361095Y-119118215D01*
X142426758Y-118916122D01*
X142437231Y-118850000D01*
X141543012Y-118850000D01*
X141575925Y-118792993D01*
X141610000Y-118665826D01*
X141610000Y-118534174D01*
X141575925Y-118407007D01*
X141543012Y-118350000D01*
X142437231Y-118350000D01*
X142437231Y-118349999D01*
X142426758Y-118283877D01*
X142361095Y-118081784D01*
X142264624Y-117892447D01*
X142139722Y-117720535D01*
X141989464Y-117570277D01*
X141817552Y-117445375D01*
X141628215Y-117348904D01*
X141426122Y-117283241D01*
X141371822Y-117274640D01*
X141317306Y-117246862D01*
X141289529Y-117192345D01*
X141299101Y-117131913D01*
X141342366Y-117088649D01*
X141367993Y-117079762D01*
X141416420Y-117070130D01*
X141607598Y-116990941D01*
X141779655Y-116875977D01*
X141925977Y-116729655D01*
X142040941Y-116557598D01*
X142120130Y-116366420D01*
X142160500Y-116163465D01*
X142160500Y-115956535D01*
X142120130Y-115753580D01*
X142040941Y-115562402D01*
X141925977Y-115390345D01*
X141779655Y-115244023D01*
X141779651Y-115244020D01*
X141607597Y-115129058D01*
X141416418Y-115049869D01*
X141213467Y-115009500D01*
X141213465Y-115009500D01*
X141006535Y-115009500D01*
X141006532Y-115009500D01*
X140803581Y-115049869D01*
X140612402Y-115129058D01*
X140440348Y-115244020D01*
X140294020Y-115390348D01*
X140179058Y-115562402D01*
X140099869Y-115753581D01*
X140059500Y-115956532D01*
X140059500Y-116163467D01*
X140099869Y-116366418D01*
X140179058Y-116557597D01*
X140179059Y-116557598D01*
X140294023Y-116729655D01*
X140440345Y-116875977D01*
X140612402Y-116990941D01*
X140803580Y-117070130D01*
X140852003Y-117079762D01*
X140905386Y-117109657D01*
X140931003Y-117165221D01*
X140919067Y-117225231D01*
X140874138Y-117266765D01*
X140848177Y-117274640D01*
X140793877Y-117283241D01*
X140591784Y-117348904D01*
X140402447Y-117445375D01*
X140230535Y-117570277D01*
X140080277Y-117720535D01*
X139955374Y-117892449D01*
X139955373Y-117892451D01*
X139937209Y-117928101D01*
X139893944Y-117971365D01*
X139833512Y-117980936D01*
X139778996Y-117953158D01*
X139751219Y-117898641D01*
X139750000Y-117883155D01*
X139750000Y-113416532D01*
X140059500Y-113416532D01*
X140059500Y-113623467D01*
X140099869Y-113826418D01*
X140179058Y-114017597D01*
X140217767Y-114075529D01*
X140294023Y-114189655D01*
X140440345Y-114335977D01*
X140612402Y-114450941D01*
X140803580Y-114530130D01*
X141006535Y-114570500D01*
X141006536Y-114570500D01*
X141213464Y-114570500D01*
X141213465Y-114570500D01*
X141416420Y-114530130D01*
X141607598Y-114450941D01*
X141779655Y-114335977D01*
X141925977Y-114189655D01*
X142040941Y-114017598D01*
X142120130Y-113826420D01*
X142160500Y-113623465D01*
X142160500Y-113416535D01*
X142120130Y-113213580D01*
X142040941Y-113022402D01*
X141925977Y-112850345D01*
X141779655Y-112704023D01*
X141607598Y-112589059D01*
X141607599Y-112589059D01*
X141607597Y-112589058D01*
X141416418Y-112509869D01*
X141213467Y-112469500D01*
X141213465Y-112469500D01*
X141006535Y-112469500D01*
X141006532Y-112469500D01*
X140803581Y-112509869D01*
X140612402Y-112589058D01*
X140440348Y-112704020D01*
X140294020Y-112850348D01*
X140179058Y-113022402D01*
X140099869Y-113213581D01*
X140059500Y-113416532D01*
X139750000Y-113416532D01*
X139750000Y-110876532D01*
X140059500Y-110876532D01*
X140059500Y-111083467D01*
X140099869Y-111286418D01*
X140179058Y-111477597D01*
X140294020Y-111649651D01*
X140294023Y-111649655D01*
X140440345Y-111795977D01*
X140612402Y-111910941D01*
X140803580Y-111990130D01*
X141006535Y-112030500D01*
X141006536Y-112030500D01*
X141213464Y-112030500D01*
X141213465Y-112030500D01*
X141416420Y-111990130D01*
X141607598Y-111910941D01*
X141779655Y-111795977D01*
X141925977Y-111649655D01*
X142040941Y-111477598D01*
X142120130Y-111286420D01*
X142160500Y-111083465D01*
X142160500Y-110876535D01*
X142120130Y-110673580D01*
X142040941Y-110482402D01*
X141925977Y-110310345D01*
X141779655Y-110164023D01*
X141607598Y-110049059D01*
X141607599Y-110049059D01*
X141607597Y-110049058D01*
X141416418Y-109969869D01*
X141213467Y-109929500D01*
X141213465Y-109929500D01*
X141006535Y-109929500D01*
X141006532Y-109929500D01*
X140803581Y-109969869D01*
X140612402Y-110049058D01*
X140440348Y-110164020D01*
X140294020Y-110310348D01*
X140179058Y-110482402D01*
X140099869Y-110673581D01*
X140059500Y-110876532D01*
X139750000Y-110876532D01*
X139750000Y-108336532D01*
X140059500Y-108336532D01*
X140059500Y-108543467D01*
X140099869Y-108746418D01*
X140179058Y-108937597D01*
X140254541Y-109050566D01*
X140294023Y-109109655D01*
X140440345Y-109255977D01*
X140612402Y-109370941D01*
X140803580Y-109450130D01*
X141006535Y-109490500D01*
X141006536Y-109490500D01*
X141213464Y-109490500D01*
X141213465Y-109490500D01*
X141416420Y-109450130D01*
X141607598Y-109370941D01*
X141779655Y-109255977D01*
X141925977Y-109109655D01*
X142040941Y-108937598D01*
X142120130Y-108746420D01*
X142160500Y-108543465D01*
X142160500Y-108336535D01*
X142120130Y-108133580D01*
X142040941Y-107942402D01*
X141925977Y-107770345D01*
X141906197Y-107750565D01*
X145624500Y-107750565D01*
X145624500Y-107849435D01*
X145650090Y-107944938D01*
X145686236Y-108007545D01*
X145699500Y-108057044D01*
X145699500Y-114239564D01*
X145719977Y-114315985D01*
X145719978Y-114315987D01*
X145719979Y-114315989D01*
X145731519Y-114335977D01*
X145759540Y-114384511D01*
X146099552Y-114724523D01*
X146430756Y-115055727D01*
X146456378Y-115100107D01*
X146475089Y-115169937D01*
X146475091Y-115169941D01*
X146475092Y-115169942D01*
X146524525Y-115255562D01*
X146594438Y-115325475D01*
X146594440Y-115325476D01*
X146680058Y-115374908D01*
X146680056Y-115374908D01*
X146680060Y-115374909D01*
X146680062Y-115374910D01*
X146775565Y-115400500D01*
X146775567Y-115400500D01*
X146874433Y-115400500D01*
X146874435Y-115400500D01*
X146969938Y-115374910D01*
X146969940Y-115374908D01*
X146969942Y-115374908D01*
X146995377Y-115360222D01*
X147055562Y-115325475D01*
X147125475Y-115255562D01*
X147174910Y-115169938D01*
X147200500Y-115074435D01*
X147200500Y-114975565D01*
X147174910Y-114880062D01*
X147174908Y-114880059D01*
X147174908Y-114880057D01*
X147125476Y-114794440D01*
X147125475Y-114794438D01*
X147055562Y-114724525D01*
X147055559Y-114724523D01*
X146969941Y-114675091D01*
X146969937Y-114675089D01*
X146900107Y-114656378D01*
X146855727Y-114630756D01*
X146329496Y-114104525D01*
X146301719Y-114050008D01*
X146300500Y-114034521D01*
X146300500Y-113416532D01*
X157839500Y-113416532D01*
X157839500Y-113623467D01*
X157879869Y-113826418D01*
X157959058Y-114017597D01*
X157997767Y-114075529D01*
X158074023Y-114189655D01*
X158220345Y-114335977D01*
X158392402Y-114450941D01*
X158583580Y-114530130D01*
X158786535Y-114570500D01*
X158786536Y-114570500D01*
X158993464Y-114570500D01*
X158993465Y-114570500D01*
X159196420Y-114530130D01*
X159387598Y-114450941D01*
X159559655Y-114335977D01*
X159705977Y-114189655D01*
X159820941Y-114017598D01*
X159900130Y-113826420D01*
X159940500Y-113623465D01*
X159940500Y-113416535D01*
X159900130Y-113213580D01*
X159820941Y-113022402D01*
X159705977Y-112850345D01*
X159559655Y-112704023D01*
X159387598Y-112589059D01*
X159387599Y-112589059D01*
X159387597Y-112589058D01*
X159196418Y-112509869D01*
X158993467Y-112469500D01*
X158993465Y-112469500D01*
X158786535Y-112469500D01*
X158786532Y-112469500D01*
X158583581Y-112509869D01*
X158392402Y-112589058D01*
X158220348Y-112704020D01*
X158074020Y-112850348D01*
X157959058Y-113022402D01*
X157879869Y-113213581D01*
X157839500Y-113416532D01*
X146300500Y-113416532D01*
X146300500Y-109050565D01*
X148674500Y-109050565D01*
X148674500Y-109149435D01*
X148697067Y-109233657D01*
X148700091Y-109244942D01*
X148749523Y-109330559D01*
X148749525Y-109330562D01*
X148819438Y-109400475D01*
X148819440Y-109400476D01*
X148905059Y-109449908D01*
X148905062Y-109449910D01*
X148974891Y-109468620D01*
X149019272Y-109494243D01*
X149370504Y-109845475D01*
X149398281Y-109899992D01*
X149399500Y-109915479D01*
X149399500Y-110311255D01*
X149386237Y-110360753D01*
X149375092Y-110380057D01*
X149375090Y-110380060D01*
X149375090Y-110380062D01*
X149349500Y-110475565D01*
X149349500Y-110574435D01*
X149372067Y-110658657D01*
X149375091Y-110669942D01*
X149424523Y-110755559D01*
X149424525Y-110755562D01*
X149494438Y-110825475D01*
X149494440Y-110825476D01*
X149580058Y-110874908D01*
X149580056Y-110874908D01*
X149580060Y-110874909D01*
X149580062Y-110874910D01*
X149675565Y-110900500D01*
X149675567Y-110900500D01*
X149774433Y-110900500D01*
X149774435Y-110900500D01*
X149869938Y-110874910D01*
X149869940Y-110874908D01*
X149869942Y-110874908D01*
X149895377Y-110860222D01*
X149955562Y-110825475D01*
X150025475Y-110755562D01*
X150072807Y-110673581D01*
X150074908Y-110669942D01*
X150074908Y-110669940D01*
X150074910Y-110669938D01*
X150100500Y-110574435D01*
X150100500Y-110475565D01*
X150074910Y-110380062D01*
X150074908Y-110380059D01*
X150074908Y-110380057D01*
X150025474Y-110294436D01*
X150021524Y-110289288D01*
X150023883Y-110287477D01*
X150001705Y-110243856D01*
X150000500Y-110228455D01*
X150000500Y-109710437D01*
X150000499Y-109710435D01*
X149980021Y-109634011D01*
X149980019Y-109634007D01*
X149940460Y-109565489D01*
X149884511Y-109509539D01*
X149884511Y-109509540D01*
X149444243Y-109069272D01*
X149418620Y-109024891D01*
X149399910Y-108955062D01*
X149350475Y-108869438D01*
X149280562Y-108799525D01*
X149280559Y-108799523D01*
X149194941Y-108750091D01*
X149194943Y-108750091D01*
X149157885Y-108740161D01*
X149099435Y-108724500D01*
X149000565Y-108724500D01*
X148942114Y-108740161D01*
X148905057Y-108750091D01*
X148819440Y-108799523D01*
X148749523Y-108869440D01*
X148700091Y-108955057D01*
X148700090Y-108955062D01*
X148674500Y-109050565D01*
X146300500Y-109050565D01*
X146300500Y-108057044D01*
X146307844Y-108019626D01*
X146310391Y-108013384D01*
X146349910Y-107944938D01*
X146361800Y-107900565D01*
X149224500Y-107900565D01*
X149224500Y-107999435D01*
X149232829Y-108030518D01*
X149250091Y-108094942D01*
X149299523Y-108180559D01*
X149299525Y-108180562D01*
X149369438Y-108250475D01*
X149369440Y-108250476D01*
X149455059Y-108299908D01*
X149455062Y-108299910D01*
X149524891Y-108318620D01*
X149569272Y-108344243D01*
X152739870Y-111514841D01*
X152739872Y-111514842D01*
X152739873Y-111514843D01*
X152739874Y-111514844D01*
X152808389Y-111554401D01*
X152808387Y-111554401D01*
X152808391Y-111554402D01*
X152808393Y-111554403D01*
X152884819Y-111574881D01*
X152906273Y-111574881D01*
X152960872Y-111592621D01*
X152961098Y-111592231D01*
X152962933Y-111593290D01*
X152964464Y-111593788D01*
X152966540Y-111595339D01*
X152966718Y-111595476D01*
X153052337Y-111644908D01*
X153052335Y-111644908D01*
X153052339Y-111644909D01*
X153052341Y-111644910D01*
X153147844Y-111670500D01*
X153147846Y-111670500D01*
X153246712Y-111670500D01*
X153246714Y-111670500D01*
X153342217Y-111644910D01*
X153342219Y-111644908D01*
X153342221Y-111644908D01*
X153367656Y-111630222D01*
X153427841Y-111595475D01*
X153497754Y-111525562D01*
X153547189Y-111439938D01*
X153572779Y-111344435D01*
X153572779Y-111245565D01*
X153547189Y-111150062D01*
X153547187Y-111150059D01*
X153547187Y-111150057D01*
X153497755Y-111064440D01*
X153497754Y-111064438D01*
X153427841Y-110994525D01*
X153363551Y-110957407D01*
X153363549Y-110957405D01*
X153342220Y-110945091D01*
X153342222Y-110945091D01*
X153300511Y-110933915D01*
X153246714Y-110919500D01*
X153147844Y-110919500D01*
X153082093Y-110937118D01*
X153020991Y-110933915D01*
X152986466Y-110911495D01*
X152951503Y-110876532D01*
X157839500Y-110876532D01*
X157839500Y-111083467D01*
X157879869Y-111286418D01*
X157959058Y-111477597D01*
X158074020Y-111649651D01*
X158074023Y-111649655D01*
X158220345Y-111795977D01*
X158392402Y-111910941D01*
X158583580Y-111990130D01*
X158786535Y-112030500D01*
X158786536Y-112030500D01*
X158993464Y-112030500D01*
X158993465Y-112030500D01*
X159196420Y-111990130D01*
X159387598Y-111910941D01*
X159559655Y-111795977D01*
X159705977Y-111649655D01*
X159820941Y-111477598D01*
X159900130Y-111286420D01*
X159940500Y-111083465D01*
X159940500Y-110876535D01*
X159900130Y-110673580D01*
X159820941Y-110482402D01*
X159705977Y-110310345D01*
X159559655Y-110164023D01*
X159387598Y-110049059D01*
X159387599Y-110049059D01*
X159387597Y-110049058D01*
X159196418Y-109969869D01*
X158993467Y-109929500D01*
X158993465Y-109929500D01*
X158786535Y-109929500D01*
X158786532Y-109929500D01*
X158583581Y-109969869D01*
X158392402Y-110049058D01*
X158220348Y-110164020D01*
X158074020Y-110310348D01*
X157959058Y-110482402D01*
X157879869Y-110673581D01*
X157839500Y-110876532D01*
X152951503Y-110876532D01*
X149994243Y-107919272D01*
X149968620Y-107874891D01*
X149961799Y-107849434D01*
X149949910Y-107805062D01*
X149900475Y-107719438D01*
X149830562Y-107649525D01*
X149830559Y-107649523D01*
X149744941Y-107600091D01*
X149744943Y-107600091D01*
X149707885Y-107590161D01*
X149649435Y-107574500D01*
X149550565Y-107574500D01*
X149492114Y-107590161D01*
X149455057Y-107600091D01*
X149369440Y-107649523D01*
X149299523Y-107719440D01*
X149250091Y-107805057D01*
X149238200Y-107849435D01*
X149224500Y-107900565D01*
X146361800Y-107900565D01*
X146375500Y-107849435D01*
X146375500Y-107750565D01*
X146349910Y-107655062D01*
X146349908Y-107655059D01*
X146349908Y-107655057D01*
X146307818Y-107582157D01*
X146300475Y-107569438D01*
X146230562Y-107499525D01*
X146230559Y-107499523D01*
X146144941Y-107450091D01*
X146144943Y-107450091D01*
X146107885Y-107440161D01*
X146049435Y-107424500D01*
X145950565Y-107424500D01*
X145892114Y-107440161D01*
X145855057Y-107450091D01*
X145769440Y-107499523D01*
X145699523Y-107569440D01*
X145650091Y-107655057D01*
X145650090Y-107655062D01*
X145624500Y-107750565D01*
X141906197Y-107750565D01*
X141779655Y-107624023D01*
X141743838Y-107600091D01*
X141607597Y-107509058D01*
X141416418Y-107429869D01*
X141213467Y-107389500D01*
X141213465Y-107389500D01*
X141006535Y-107389500D01*
X141006532Y-107389500D01*
X140803581Y-107429869D01*
X140612402Y-107509058D01*
X140440348Y-107624020D01*
X140294020Y-107770348D01*
X140179058Y-107942402D01*
X140099869Y-108133581D01*
X140059500Y-108336532D01*
X139750000Y-108336532D01*
X139750000Y-105796532D01*
X140059500Y-105796532D01*
X140059500Y-106003467D01*
X140099869Y-106206418D01*
X140179058Y-106397597D01*
X140294020Y-106569651D01*
X140294023Y-106569655D01*
X140440345Y-106715977D01*
X140612402Y-106830941D01*
X140803580Y-106910130D01*
X141006535Y-106950500D01*
X141006536Y-106950500D01*
X141213464Y-106950500D01*
X141213465Y-106950500D01*
X141416420Y-106910130D01*
X141607598Y-106830941D01*
X141779655Y-106715977D01*
X141925977Y-106569655D01*
X142040941Y-106397598D01*
X142120130Y-106206420D01*
X142160500Y-106003465D01*
X142160500Y-105796535D01*
X142120130Y-105593580D01*
X142040941Y-105402402D01*
X141925977Y-105230345D01*
X141779655Y-105084023D01*
X141627536Y-104982381D01*
X141607597Y-104969058D01*
X141416418Y-104889869D01*
X141213467Y-104849500D01*
X141213465Y-104849500D01*
X141006535Y-104849500D01*
X141006532Y-104849500D01*
X140803581Y-104889869D01*
X140612402Y-104969058D01*
X140440348Y-105084020D01*
X140294020Y-105230348D01*
X140179058Y-105402402D01*
X140099870Y-105593580D01*
X140059500Y-105796532D01*
X139750000Y-105796532D01*
X139750000Y-103256532D01*
X140059500Y-103256532D01*
X140059500Y-103463467D01*
X140099869Y-103666418D01*
X140179058Y-103857597D01*
X140179059Y-103857598D01*
X140294023Y-104029655D01*
X140440345Y-104175977D01*
X140612402Y-104290941D01*
X140803580Y-104370130D01*
X141006535Y-104410500D01*
X141006536Y-104410500D01*
X141213464Y-104410500D01*
X141213465Y-104410500D01*
X141416420Y-104370130D01*
X141607598Y-104290941D01*
X141779655Y-104175977D01*
X141925977Y-104029655D01*
X142040941Y-103857598D01*
X142120130Y-103666420D01*
X142160500Y-103463465D01*
X142160500Y-103256535D01*
X142120130Y-103053580D01*
X142066821Y-102924883D01*
X142062021Y-102863889D01*
X142093990Y-102811720D01*
X142150518Y-102788305D01*
X142158286Y-102788000D01*
X145384122Y-102788000D01*
X145433620Y-102801262D01*
X145496230Y-102837410D01*
X145591733Y-102863000D01*
X145591735Y-102863000D01*
X145690601Y-102863000D01*
X145690603Y-102863000D01*
X145786106Y-102837410D01*
X145786108Y-102837408D01*
X145786110Y-102837408D01*
X145830602Y-102811720D01*
X145871730Y-102787975D01*
X145941643Y-102718062D01*
X145991078Y-102632438D01*
X146016668Y-102536935D01*
X146016668Y-102438065D01*
X145991078Y-102342562D01*
X145991076Y-102342559D01*
X145991076Y-102342557D01*
X145948986Y-102269657D01*
X145941643Y-102256938D01*
X145871730Y-102187025D01*
X145867376Y-102184511D01*
X145786109Y-102137591D01*
X145786111Y-102137591D01*
X145749053Y-102127661D01*
X145690603Y-102112000D01*
X145591733Y-102112000D01*
X145496230Y-102137590D01*
X145433620Y-102173737D01*
X145384122Y-102187000D01*
X141942935Y-102187000D01*
X141866512Y-102207478D01*
X141809386Y-102240460D01*
X141797988Y-102247040D01*
X141660291Y-102384736D01*
X141605774Y-102412513D01*
X141552402Y-102406196D01*
X141416418Y-102349869D01*
X141213467Y-102309500D01*
X141213465Y-102309500D01*
X141006535Y-102309500D01*
X141006532Y-102309500D01*
X140803581Y-102349869D01*
X140612402Y-102429058D01*
X140440348Y-102544020D01*
X140294020Y-102690348D01*
X140179058Y-102862402D01*
X140099869Y-103053581D01*
X140059500Y-103256532D01*
X139750000Y-103256532D01*
X139750000Y-82936532D01*
X140059500Y-82936532D01*
X140059500Y-83143467D01*
X140099869Y-83346418D01*
X140179058Y-83537597D01*
X140276888Y-83684011D01*
X140294023Y-83709655D01*
X140440345Y-83855977D01*
X140612402Y-83970941D01*
X140803580Y-84050130D01*
X141006535Y-84090500D01*
X141006536Y-84090500D01*
X141213464Y-84090500D01*
X141213465Y-84090500D01*
X141416420Y-84050130D01*
X141607598Y-83970941D01*
X141779655Y-83855977D01*
X141925977Y-83709655D01*
X141942552Y-83684846D01*
X141990598Y-83646968D01*
X142051736Y-83644563D01*
X142094872Y-83669843D01*
X142320504Y-83895475D01*
X142348281Y-83949992D01*
X142349500Y-83965479D01*
X142349500Y-85421536D01*
X142330593Y-85479727D01*
X142281093Y-85515691D01*
X142219907Y-85515691D01*
X142170407Y-85479727D01*
X142153402Y-85440850D01*
X142120130Y-85273581D01*
X142106634Y-85241000D01*
X142040941Y-85082402D01*
X141925977Y-84910345D01*
X141779655Y-84764023D01*
X141757920Y-84749500D01*
X141607597Y-84649058D01*
X141416418Y-84569869D01*
X141213467Y-84529500D01*
X141213465Y-84529500D01*
X141006535Y-84529500D01*
X141006532Y-84529500D01*
X140803581Y-84569869D01*
X140612402Y-84649058D01*
X140440348Y-84764020D01*
X140294020Y-84910348D01*
X140179058Y-85082402D01*
X140099869Y-85273581D01*
X140059500Y-85476532D01*
X140059500Y-85683467D01*
X140099869Y-85886418D01*
X140179058Y-86077597D01*
X140267819Y-86210438D01*
X140294023Y-86249655D01*
X140440345Y-86395977D01*
X140612402Y-86510941D01*
X140803580Y-86590130D01*
X141006535Y-86630500D01*
X141006536Y-86630500D01*
X141213464Y-86630500D01*
X141213465Y-86630500D01*
X141416420Y-86590130D01*
X141607598Y-86510941D01*
X141779655Y-86395977D01*
X141925977Y-86249655D01*
X142040941Y-86077598D01*
X142120130Y-85886420D01*
X142153402Y-85719148D01*
X142183299Y-85665765D01*
X142238864Y-85640149D01*
X142298873Y-85652086D01*
X142340406Y-85697016D01*
X142349500Y-85738463D01*
X142349500Y-87900602D01*
X142345965Y-87911480D01*
X142346962Y-87922873D01*
X142336732Y-87939898D01*
X142330593Y-87958793D01*
X142315449Y-87975319D01*
X142305115Y-87984302D01*
X142248793Y-88008208D01*
X142189176Y-87994444D01*
X142149036Y-87948266D01*
X142143068Y-87928899D01*
X142141869Y-87922873D01*
X142120130Y-87813580D01*
X142040941Y-87622402D01*
X141925977Y-87450345D01*
X141779655Y-87304023D01*
X141779651Y-87304020D01*
X141607597Y-87189058D01*
X141416418Y-87109869D01*
X141213467Y-87069500D01*
X141213465Y-87069500D01*
X141006535Y-87069500D01*
X141006532Y-87069500D01*
X140803581Y-87109869D01*
X140612402Y-87189058D01*
X140440348Y-87304020D01*
X140294020Y-87450348D01*
X140179058Y-87622402D01*
X140099869Y-87813581D01*
X140059500Y-88016532D01*
X140059500Y-88223467D01*
X140099869Y-88426418D01*
X140179058Y-88617597D01*
X140292367Y-88787177D01*
X140294023Y-88789655D01*
X140440345Y-88935977D01*
X140612402Y-89050941D01*
X140803580Y-89130130D01*
X141006535Y-89170500D01*
X141006536Y-89170500D01*
X141213460Y-89170500D01*
X141213465Y-89170500D01*
X141230011Y-89167208D01*
X141290769Y-89174397D01*
X141319330Y-89194301D01*
X141676449Y-89551420D01*
X141704226Y-89605937D01*
X141694655Y-89666369D01*
X141651390Y-89709634D01*
X141590958Y-89719205D01*
X141568560Y-89712888D01*
X141416420Y-89649870D01*
X141213467Y-89609500D01*
X141213465Y-89609500D01*
X141006535Y-89609500D01*
X141006532Y-89609500D01*
X140803581Y-89649869D01*
X140612402Y-89729058D01*
X140440348Y-89844020D01*
X140294020Y-89990348D01*
X140179058Y-90162402D01*
X140099869Y-90353581D01*
X140059500Y-90556532D01*
X140059500Y-90763467D01*
X140099869Y-90966418D01*
X140179058Y-91157597D01*
X140279143Y-91307386D01*
X140294023Y-91329655D01*
X140440345Y-91475977D01*
X140612402Y-91590941D01*
X140803580Y-91670130D01*
X141006535Y-91710500D01*
X141006536Y-91710500D01*
X141213464Y-91710500D01*
X141213465Y-91710500D01*
X141416420Y-91670130D01*
X141607598Y-91590941D01*
X141779655Y-91475977D01*
X141925977Y-91329655D01*
X142040941Y-91157598D01*
X142120130Y-90966420D01*
X142160500Y-90763465D01*
X142160500Y-90556535D01*
X142120130Y-90353580D01*
X142057110Y-90201439D01*
X142052310Y-90140443D01*
X142084280Y-90088274D01*
X142140808Y-90064859D01*
X142200302Y-90079143D01*
X142218579Y-90093550D01*
X142470504Y-90345475D01*
X142498281Y-90399992D01*
X142499500Y-90415479D01*
X142499500Y-93235521D01*
X142492336Y-93257568D01*
X142488710Y-93280466D01*
X142483061Y-93286114D01*
X142480593Y-93293712D01*
X142461836Y-93307339D01*
X142445445Y-93323731D01*
X142437555Y-93324980D01*
X142431093Y-93329676D01*
X142407908Y-93329676D01*
X142385013Y-93333302D01*
X142377896Y-93329676D01*
X142369907Y-93329676D01*
X142330496Y-93305525D01*
X142189496Y-93164525D01*
X142161719Y-93110008D01*
X142161038Y-93101364D01*
X142160976Y-93101371D01*
X142160500Y-93096542D01*
X142160500Y-93096535D01*
X142120130Y-92893580D01*
X142040941Y-92702402D01*
X141925977Y-92530345D01*
X141779655Y-92384023D01*
X141770981Y-92378227D01*
X141607597Y-92269058D01*
X141416418Y-92189869D01*
X141213467Y-92149500D01*
X141213465Y-92149500D01*
X141006535Y-92149500D01*
X141006532Y-92149500D01*
X140803581Y-92189869D01*
X140612402Y-92269058D01*
X140440348Y-92384020D01*
X140294020Y-92530348D01*
X140179058Y-92702402D01*
X140099869Y-92893581D01*
X140059500Y-93096532D01*
X140059500Y-93303467D01*
X140099869Y-93506418D01*
X140179058Y-93697597D01*
X140291239Y-93865489D01*
X140294023Y-93869655D01*
X140440345Y-94015977D01*
X140612402Y-94130941D01*
X140803580Y-94210130D01*
X141006535Y-94250500D01*
X141006536Y-94250500D01*
X141213464Y-94250500D01*
X141213465Y-94250500D01*
X141416420Y-94210130D01*
X141607598Y-94130941D01*
X141779655Y-94015977D01*
X141780498Y-94015133D01*
X141780985Y-94014885D01*
X141783412Y-94012894D01*
X141783849Y-94013426D01*
X141835013Y-93987358D01*
X141895445Y-93996929D01*
X141938710Y-94040194D01*
X141949500Y-94085139D01*
X141949500Y-94854861D01*
X141930593Y-94913052D01*
X141881093Y-94949016D01*
X141819907Y-94949016D01*
X141783659Y-94926803D01*
X141783412Y-94927106D01*
X141781228Y-94925313D01*
X141780498Y-94924866D01*
X141779655Y-94924023D01*
X141763236Y-94913052D01*
X141607597Y-94809058D01*
X141416418Y-94729869D01*
X141213467Y-94689500D01*
X141213465Y-94689500D01*
X141006535Y-94689500D01*
X141006532Y-94689500D01*
X140803581Y-94729869D01*
X140612402Y-94809058D01*
X140440348Y-94924020D01*
X140294020Y-95070348D01*
X140179058Y-95242402D01*
X140099869Y-95433581D01*
X140059500Y-95636532D01*
X140059500Y-95843467D01*
X140099869Y-96046418D01*
X140179058Y-96237597D01*
X140294020Y-96409651D01*
X140294023Y-96409655D01*
X140440345Y-96555977D01*
X140612402Y-96670941D01*
X140803580Y-96750130D01*
X141006535Y-96790500D01*
X141006536Y-96790500D01*
X141213464Y-96790500D01*
X141213465Y-96790500D01*
X141416420Y-96750130D01*
X141607598Y-96670941D01*
X141779655Y-96555977D01*
X141780498Y-96555133D01*
X141780985Y-96554885D01*
X141783412Y-96552894D01*
X141783849Y-96553426D01*
X141835013Y-96527358D01*
X141895445Y-96536929D01*
X141938710Y-96580194D01*
X141949500Y-96625139D01*
X141949500Y-97394861D01*
X141930593Y-97453052D01*
X141881093Y-97489016D01*
X141819907Y-97489016D01*
X141783659Y-97466803D01*
X141783412Y-97467106D01*
X141781228Y-97465313D01*
X141780498Y-97464866D01*
X141779655Y-97464023D01*
X141774290Y-97460438D01*
X141607597Y-97349058D01*
X141416418Y-97269869D01*
X141213467Y-97229500D01*
X141213465Y-97229500D01*
X141006535Y-97229500D01*
X141006532Y-97229500D01*
X140803581Y-97269869D01*
X140612402Y-97349058D01*
X140440348Y-97464020D01*
X140294020Y-97610348D01*
X140179058Y-97782402D01*
X140099869Y-97973581D01*
X140059500Y-98176532D01*
X140059500Y-98383467D01*
X140099869Y-98586418D01*
X140179058Y-98777597D01*
X140270500Y-98914450D01*
X140294023Y-98949655D01*
X140440345Y-99095977D01*
X140612402Y-99210941D01*
X140803580Y-99290130D01*
X141006535Y-99330500D01*
X141164521Y-99330500D01*
X141222712Y-99349407D01*
X141234525Y-99359496D01*
X141522810Y-99647781D01*
X141550587Y-99702298D01*
X141541016Y-99762730D01*
X141497751Y-99805995D01*
X141437319Y-99815566D01*
X141421152Y-99811007D01*
X141421070Y-99811281D01*
X141416422Y-99809871D01*
X141416420Y-99809870D01*
X141348768Y-99796413D01*
X141213467Y-99769500D01*
X141213465Y-99769500D01*
X141006535Y-99769500D01*
X141006532Y-99769500D01*
X140803581Y-99809869D01*
X140612402Y-99889058D01*
X140440348Y-100004020D01*
X140294020Y-100150348D01*
X140179058Y-100322402D01*
X140099869Y-100513581D01*
X140059500Y-100716532D01*
X140059500Y-100923467D01*
X140099869Y-101126418D01*
X140179058Y-101317597D01*
X140272080Y-101456815D01*
X140294023Y-101489655D01*
X140440345Y-101635977D01*
X140612402Y-101750941D01*
X140803580Y-101830130D01*
X141006535Y-101870500D01*
X141006536Y-101870500D01*
X141213464Y-101870500D01*
X141213465Y-101870500D01*
X141416420Y-101830130D01*
X141607598Y-101750941D01*
X141779655Y-101635977D01*
X141925977Y-101489655D01*
X142040941Y-101317598D01*
X142120130Y-101126420D01*
X142160500Y-100923465D01*
X142160500Y-100716535D01*
X142120130Y-100513580D01*
X142120126Y-100513570D01*
X142118719Y-100508930D01*
X142120233Y-100508470D01*
X142115947Y-100454094D01*
X142147909Y-100401921D01*
X142204434Y-100378499D01*
X142263931Y-100392775D01*
X142282218Y-100407189D01*
X143727989Y-101852960D01*
X143727991Y-101852961D01*
X143727992Y-101852962D01*
X143727993Y-101852963D01*
X143796508Y-101892520D01*
X143796506Y-101892520D01*
X143796510Y-101892521D01*
X143796512Y-101892522D01*
X143872938Y-101913000D01*
X143872940Y-101913000D01*
X144189563Y-101913000D01*
X144189563Y-101912999D01*
X144265989Y-101892521D01*
X144265991Y-101892519D01*
X144271987Y-101890037D01*
X144272810Y-101892025D01*
X144299549Y-101884863D01*
X144299251Y-101882597D01*
X144305682Y-101881750D01*
X144305685Y-101881750D01*
X144401188Y-101856160D01*
X144401190Y-101856158D01*
X144401192Y-101856158D01*
X144446273Y-101830130D01*
X144486812Y-101806725D01*
X144556725Y-101736812D01*
X144591472Y-101676627D01*
X144606158Y-101651192D01*
X144606158Y-101651190D01*
X144606160Y-101651188D01*
X144631750Y-101555685D01*
X144631750Y-101456815D01*
X144606160Y-101361312D01*
X144606158Y-101361309D01*
X144606158Y-101361307D01*
X144556726Y-101275690D01*
X144556725Y-101275688D01*
X144486812Y-101205775D01*
X144486809Y-101205773D01*
X144401191Y-101156341D01*
X144401193Y-101156341D01*
X144364135Y-101146411D01*
X144305685Y-101130750D01*
X144206815Y-101130750D01*
X144122592Y-101153317D01*
X144111308Y-101156341D01*
X144031284Y-101202543D01*
X143971436Y-101215264D01*
X143915541Y-101190377D01*
X143911781Y-101186810D01*
X143681976Y-100957005D01*
X143654199Y-100902488D01*
X143663770Y-100842056D01*
X143707035Y-100798791D01*
X143751980Y-100788001D01*
X143827063Y-100788001D01*
X145384122Y-100788001D01*
X145433620Y-100801263D01*
X145496230Y-100837411D01*
X145591733Y-100863001D01*
X145591735Y-100863001D01*
X145690601Y-100863001D01*
X145690603Y-100863001D01*
X145786106Y-100837411D01*
X145786108Y-100837409D01*
X145786110Y-100837409D01*
X145848714Y-100801264D01*
X145871730Y-100787976D01*
X145941643Y-100718063D01*
X145991078Y-100632439D01*
X146016668Y-100536936D01*
X146016668Y-100438066D01*
X145991078Y-100342563D01*
X145991076Y-100342560D01*
X145991076Y-100342558D01*
X145941644Y-100256941D01*
X145941643Y-100256939D01*
X145871730Y-100187026D01*
X145847844Y-100173235D01*
X145806905Y-100127766D01*
X145800510Y-100066916D01*
X145831103Y-100013928D01*
X145847841Y-100001767D01*
X145871730Y-99987975D01*
X145941643Y-99918062D01*
X145991078Y-99832438D01*
X146016668Y-99736935D01*
X146016668Y-99638065D01*
X145991078Y-99542562D01*
X145991076Y-99542559D01*
X145991076Y-99542557D01*
X145938399Y-99451319D01*
X145939728Y-99450551D01*
X145921866Y-99400101D01*
X145939246Y-99341436D01*
X145987790Y-99304191D01*
X145988614Y-99303903D01*
X146000000Y-99300000D01*
X145999998Y-99299999D01*
X146000000Y-99299999D01*
X145965350Y-99284589D01*
X145919864Y-99243667D01*
X145907118Y-99183823D01*
X145931982Y-99127918D01*
X145935561Y-99124144D01*
X145941643Y-99118063D01*
X145991078Y-99032439D01*
X146016668Y-98936936D01*
X146016668Y-98838066D01*
X145991078Y-98742563D01*
X145991076Y-98742560D01*
X145991076Y-98742558D01*
X145941644Y-98656941D01*
X145941643Y-98656939D01*
X145871730Y-98587026D01*
X145871687Y-98587001D01*
X145786109Y-98537592D01*
X145786111Y-98537592D01*
X145749053Y-98527662D01*
X145690603Y-98512001D01*
X145591733Y-98512001D01*
X145496230Y-98537591D01*
X145433620Y-98573738D01*
X145384122Y-98587001D01*
X144552980Y-98587001D01*
X144545382Y-98584532D01*
X144537493Y-98585782D01*
X144516837Y-98575257D01*
X144494789Y-98568094D01*
X144482976Y-98558005D01*
X144388944Y-98463973D01*
X144361167Y-98409456D01*
X144361133Y-98378696D01*
X144375836Y-98284539D01*
X144446930Y-97829233D01*
X147874499Y-97829233D01*
X147874499Y-97928103D01*
X147889614Y-97984511D01*
X147900090Y-98023610D01*
X147949522Y-98109227D01*
X147949524Y-98109230D01*
X148019437Y-98179143D01*
X148019439Y-98179144D01*
X148105058Y-98228576D01*
X148105061Y-98228578D01*
X148174890Y-98247288D01*
X148219271Y-98272911D01*
X148255871Y-98309511D01*
X148255870Y-98309511D01*
X148311820Y-98365460D01*
X148380338Y-98405019D01*
X148380342Y-98405021D01*
X148456766Y-98425499D01*
X148456768Y-98425500D01*
X148456769Y-98425500D01*
X148535893Y-98425500D01*
X149342954Y-98425500D01*
X149380839Y-98433036D01*
X149386836Y-98435520D01*
X149455062Y-98474910D01*
X149531155Y-98495298D01*
X149537153Y-98497783D01*
X149547692Y-98506784D01*
X149569272Y-98519243D01*
X149670504Y-98620475D01*
X149698281Y-98674992D01*
X149699500Y-98690479D01*
X149699500Y-102206272D01*
X149680593Y-102264463D01*
X149670504Y-102276276D01*
X149142648Y-102804131D01*
X149098269Y-102829753D01*
X149028437Y-102848466D01*
X149028434Y-102848467D01*
X148942816Y-102897899D01*
X148872899Y-102967816D01*
X148823467Y-103053433D01*
X148809500Y-103105559D01*
X148797876Y-103148941D01*
X148797876Y-103247811D01*
X148815668Y-103314210D01*
X148823467Y-103343318D01*
X148872899Y-103428935D01*
X148872901Y-103428938D01*
X148942814Y-103498851D01*
X148942816Y-103498852D01*
X149028434Y-103548284D01*
X149028432Y-103548284D01*
X149028436Y-103548285D01*
X149028438Y-103548286D01*
X149123941Y-103573876D01*
X149123943Y-103573876D01*
X149222809Y-103573876D01*
X149222811Y-103573876D01*
X149318314Y-103548286D01*
X149318316Y-103548284D01*
X149318318Y-103548284D01*
X149343753Y-103533598D01*
X149403938Y-103498851D01*
X149455892Y-103446897D01*
X149874500Y-103446897D01*
X149874500Y-103545767D01*
X149900090Y-103641270D01*
X149936236Y-103703877D01*
X149949500Y-103753376D01*
X149949500Y-105489564D01*
X149969978Y-105565988D01*
X149985909Y-105593580D01*
X149985910Y-105593582D01*
X150009537Y-105634507D01*
X150009538Y-105634508D01*
X150009540Y-105634511D01*
X152570505Y-108195476D01*
X152598281Y-108249991D01*
X152599500Y-108265478D01*
X152599500Y-109344746D01*
X152599501Y-109344758D01*
X152610585Y-109400475D01*
X152611133Y-109403231D01*
X152655448Y-109469552D01*
X152721769Y-109513867D01*
X152766231Y-109522711D01*
X152780241Y-109525498D01*
X152780246Y-109525498D01*
X152780252Y-109525500D01*
X152780253Y-109525500D01*
X154419747Y-109525500D01*
X154419748Y-109525500D01*
X154478231Y-109513867D01*
X154544552Y-109469552D01*
X154588867Y-109403231D01*
X154600500Y-109344748D01*
X154600500Y-108336532D01*
X157839500Y-108336532D01*
X157839500Y-108543467D01*
X157879869Y-108746418D01*
X157959058Y-108937597D01*
X158034541Y-109050566D01*
X158074023Y-109109655D01*
X158220345Y-109255977D01*
X158392402Y-109370941D01*
X158583580Y-109450130D01*
X158786535Y-109490500D01*
X158786536Y-109490500D01*
X158993464Y-109490500D01*
X158993465Y-109490500D01*
X159196420Y-109450130D01*
X159387598Y-109370941D01*
X159559655Y-109255977D01*
X159705977Y-109109655D01*
X159820941Y-108937598D01*
X159900130Y-108746420D01*
X159940500Y-108543465D01*
X159940500Y-108336535D01*
X159900130Y-108133580D01*
X159820941Y-107942402D01*
X159705977Y-107770345D01*
X159559655Y-107624023D01*
X159523838Y-107600091D01*
X159387597Y-107509058D01*
X159196418Y-107429869D01*
X158993467Y-107389500D01*
X158993465Y-107389500D01*
X158786535Y-107389500D01*
X158786532Y-107389500D01*
X158583581Y-107429869D01*
X158392402Y-107509058D01*
X158220348Y-107624020D01*
X158074020Y-107770348D01*
X157959058Y-107942402D01*
X157879869Y-108133581D01*
X157839500Y-108336532D01*
X154600500Y-108336532D01*
X154600500Y-108255252D01*
X154588867Y-108196769D01*
X154544552Y-108130448D01*
X154544548Y-108130445D01*
X154478233Y-108086134D01*
X154478231Y-108086133D01*
X154478228Y-108086132D01*
X154478227Y-108086132D01*
X154419758Y-108074501D01*
X154419748Y-108074500D01*
X154419747Y-108074500D01*
X153340479Y-108074500D01*
X153282288Y-108055593D01*
X153270475Y-108045504D01*
X152543979Y-107319008D01*
X152516202Y-107264491D01*
X152525773Y-107204059D01*
X152569038Y-107160794D01*
X152617745Y-107152429D01*
X152617745Y-107150500D01*
X152775764Y-107150500D01*
X152775766Y-107150500D01*
X152922135Y-107111281D01*
X152922137Y-107111279D01*
X152922139Y-107111279D01*
X153053360Y-107035518D01*
X153053360Y-107035517D01*
X153053365Y-107035515D01*
X153160515Y-106928365D01*
X153236281Y-106797135D01*
X153275500Y-106650766D01*
X153275500Y-106499234D01*
X153924500Y-106499234D01*
X153924500Y-106540957D01*
X153924500Y-106650766D01*
X153946004Y-106731020D01*
X153963720Y-106797139D01*
X154039481Y-106928360D01*
X154039483Y-106928362D01*
X154039485Y-106928365D01*
X154146635Y-107035515D01*
X154146637Y-107035516D01*
X154146639Y-107035518D01*
X154277861Y-107111279D01*
X154277859Y-107111279D01*
X154277863Y-107111280D01*
X154277865Y-107111281D01*
X154424234Y-107150500D01*
X154424236Y-107150500D01*
X154575764Y-107150500D01*
X154575766Y-107150500D01*
X154722135Y-107111281D01*
X154722137Y-107111279D01*
X154722139Y-107111279D01*
X154853360Y-107035518D01*
X154853360Y-107035517D01*
X154853365Y-107035515D01*
X154960515Y-106928365D01*
X155036281Y-106797135D01*
X155075500Y-106650766D01*
X155075500Y-106499234D01*
X155036281Y-106352865D01*
X155036279Y-106352862D01*
X155036279Y-106352860D01*
X154960518Y-106221639D01*
X154960516Y-106221637D01*
X154960515Y-106221635D01*
X154853365Y-106114485D01*
X154853362Y-106114483D01*
X154853360Y-106114481D01*
X154722138Y-106038720D01*
X154722140Y-106038720D01*
X154665347Y-106023503D01*
X154575766Y-105999500D01*
X154424234Y-105999500D01*
X154334652Y-106023503D01*
X154277860Y-106038720D01*
X154146639Y-106114481D01*
X154039481Y-106221639D01*
X153963720Y-106352860D01*
X153963719Y-106352865D01*
X153924500Y-106499234D01*
X153275500Y-106499234D01*
X153236281Y-106352865D01*
X153236279Y-106352862D01*
X153236279Y-106352860D01*
X153160518Y-106221639D01*
X153160516Y-106221637D01*
X153160515Y-106221635D01*
X153053365Y-106114485D01*
X153053362Y-106114483D01*
X153053360Y-106114481D01*
X152922138Y-106038720D01*
X152922140Y-106038720D01*
X152865347Y-106023503D01*
X152775766Y-105999500D01*
X152624234Y-105999500D01*
X152534652Y-106023503D01*
X152477860Y-106038720D01*
X152346639Y-106114481D01*
X152239481Y-106221639D01*
X152163720Y-106352860D01*
X152163719Y-106352865D01*
X152130176Y-106478053D01*
X152124500Y-106499235D01*
X152124500Y-106657255D01*
X152122451Y-106657255D01*
X152112996Y-106708258D01*
X152068612Y-106750374D01*
X152007950Y-106758358D01*
X151955991Y-106731020D01*
X151021503Y-105796532D01*
X157839500Y-105796532D01*
X157839500Y-106003467D01*
X157879869Y-106206418D01*
X157959058Y-106397597D01*
X158074020Y-106569651D01*
X158074023Y-106569655D01*
X158220345Y-106715977D01*
X158392402Y-106830941D01*
X158583580Y-106910130D01*
X158786535Y-106950500D01*
X158786536Y-106950500D01*
X158993464Y-106950500D01*
X158993465Y-106950500D01*
X159196420Y-106910130D01*
X159387598Y-106830941D01*
X159559655Y-106715977D01*
X159705977Y-106569655D01*
X159820941Y-106397598D01*
X159900130Y-106206420D01*
X159940500Y-106003465D01*
X159940500Y-105796535D01*
X159900130Y-105593580D01*
X159820941Y-105402402D01*
X159705977Y-105230345D01*
X159559655Y-105084023D01*
X159407536Y-104982381D01*
X159387597Y-104969058D01*
X159196418Y-104889869D01*
X158993467Y-104849500D01*
X158993465Y-104849500D01*
X158786535Y-104849500D01*
X158786532Y-104849500D01*
X158583581Y-104889869D01*
X158392402Y-104969058D01*
X158220348Y-105084020D01*
X158074020Y-105230348D01*
X157959058Y-105402402D01*
X157879870Y-105593580D01*
X157839500Y-105796532D01*
X151021503Y-105796532D01*
X150599971Y-105375000D01*
X152928553Y-105375000D01*
X154271447Y-105375000D01*
X153600000Y-104703553D01*
X152928553Y-105375000D01*
X150599971Y-105375000D01*
X150579496Y-105354525D01*
X150551719Y-105300008D01*
X150550500Y-105284521D01*
X150550500Y-104922824D01*
X152299999Y-104922824D01*
X152306401Y-104982370D01*
X152306403Y-104982381D01*
X152356645Y-105117087D01*
X152409180Y-105187265D01*
X153246446Y-104349999D01*
X152409180Y-103512733D01*
X152356645Y-103582912D01*
X152306403Y-103717618D01*
X152306401Y-103717629D01*
X152300000Y-103777175D01*
X152300000Y-104922824D01*
X152299999Y-104922824D01*
X150550500Y-104922824D01*
X150550500Y-103753376D01*
X150563763Y-103703877D01*
X150599910Y-103641270D01*
X150625500Y-103545767D01*
X150625500Y-103446897D01*
X150599910Y-103351394D01*
X150599908Y-103351391D01*
X150599908Y-103351389D01*
X150550476Y-103265772D01*
X150550475Y-103265770D01*
X150480562Y-103195857D01*
X150480559Y-103195855D01*
X150394941Y-103146423D01*
X150394943Y-103146423D01*
X150357885Y-103136493D01*
X150299435Y-103120832D01*
X150200565Y-103120832D01*
X150142114Y-103136493D01*
X150105057Y-103146423D01*
X150019440Y-103195855D01*
X149949523Y-103265772D01*
X149900091Y-103351389D01*
X149887824Y-103397170D01*
X149874500Y-103446897D01*
X149455892Y-103446897D01*
X149473851Y-103428938D01*
X149523286Y-103343314D01*
X149543485Y-103267925D01*
X149545604Y-103262588D01*
X149554448Y-103251914D01*
X149567616Y-103229105D01*
X150240460Y-102556263D01*
X150257319Y-102527062D01*
X150280021Y-102487741D01*
X150300500Y-102411314D01*
X150300500Y-98485438D01*
X150280021Y-98409011D01*
X150277717Y-98405021D01*
X150240460Y-98340489D01*
X150184511Y-98284539D01*
X150184511Y-98284540D01*
X149994243Y-98094272D01*
X149968620Y-98049891D01*
X149966093Y-98040460D01*
X149949910Y-97980062D01*
X149946061Y-97973396D01*
X149900476Y-97894440D01*
X149900475Y-97894438D01*
X149830562Y-97824525D01*
X149830519Y-97824500D01*
X149744941Y-97775091D01*
X149744943Y-97775091D01*
X149707885Y-97765161D01*
X149649435Y-97749500D01*
X149550565Y-97749500D01*
X149455062Y-97775090D01*
X149392452Y-97811237D01*
X149342954Y-97824500D01*
X148700196Y-97824500D01*
X148642005Y-97805593D01*
X148606041Y-97756093D01*
X148604569Y-97751123D01*
X148599909Y-97733730D01*
X148599907Y-97733727D01*
X148599907Y-97733725D01*
X148554149Y-97654471D01*
X148550474Y-97648106D01*
X148480561Y-97578193D01*
X148480558Y-97578191D01*
X148394940Y-97528759D01*
X148394942Y-97528759D01*
X148357884Y-97518829D01*
X148299434Y-97503168D01*
X148200564Y-97503168D01*
X148142113Y-97518829D01*
X148105056Y-97528759D01*
X148019439Y-97578191D01*
X147949522Y-97648108D01*
X147900090Y-97733725D01*
X147894097Y-97756093D01*
X147874499Y-97829233D01*
X144446930Y-97829233D01*
X144469881Y-97682246D01*
X144497540Y-97627670D01*
X144551995Y-97599773D01*
X144556730Y-97599277D01*
X144557565Y-97598901D01*
X144557568Y-97598901D01*
X144869957Y-97280199D01*
X144924193Y-97251879D01*
X144940657Y-97250500D01*
X145207954Y-97250500D01*
X145257452Y-97263762D01*
X145320062Y-97299910D01*
X145415565Y-97325500D01*
X145415567Y-97325500D01*
X145514433Y-97325500D01*
X145514435Y-97325500D01*
X145609938Y-97299910D01*
X145609940Y-97299908D01*
X145609942Y-97299908D01*
X145644077Y-97280200D01*
X145695562Y-97250475D01*
X145765475Y-97180562D01*
X145814910Y-97094938D01*
X145840500Y-96999435D01*
X145840500Y-96900565D01*
X145814910Y-96805062D01*
X145814908Y-96805059D01*
X145814908Y-96805057D01*
X145801276Y-96781446D01*
X145788554Y-96721598D01*
X145813440Y-96665702D01*
X145826745Y-96653404D01*
X145830557Y-96650478D01*
X145830557Y-96650477D01*
X145830562Y-96650475D01*
X145900475Y-96580562D01*
X145949910Y-96494938D01*
X145975500Y-96399435D01*
X145975500Y-96336345D01*
X145994407Y-96278154D01*
X146043907Y-96242190D01*
X146105093Y-96242190D01*
X146123996Y-96250607D01*
X146160018Y-96271404D01*
X146255521Y-96296994D01*
X146255523Y-96296994D01*
X146354389Y-96296994D01*
X146354391Y-96296994D01*
X146449894Y-96271404D01*
X146449896Y-96271402D01*
X146449898Y-96271402D01*
X146488233Y-96249269D01*
X146535518Y-96221969D01*
X146586896Y-96170590D01*
X146641410Y-96142814D01*
X146701842Y-96152385D01*
X146742632Y-96191091D01*
X146747395Y-96199340D01*
X146747397Y-96199343D01*
X146817310Y-96269256D01*
X146828125Y-96275500D01*
X146902930Y-96318689D01*
X146902928Y-96318689D01*
X146902932Y-96318690D01*
X146902934Y-96318691D01*
X146998437Y-96344281D01*
X146998439Y-96344281D01*
X147097305Y-96344281D01*
X147097307Y-96344281D01*
X147192810Y-96318691D01*
X147192812Y-96318689D01*
X147192814Y-96318689D01*
X147241155Y-96290779D01*
X147278434Y-96269256D01*
X147291534Y-96256155D01*
X147346046Y-96228379D01*
X147406479Y-96237949D01*
X147447272Y-96276660D01*
X147449525Y-96280562D01*
X147519438Y-96350475D01*
X147538276Y-96361351D01*
X147605058Y-96399908D01*
X147605056Y-96399908D01*
X147605060Y-96399909D01*
X147605062Y-96399910D01*
X147700565Y-96425500D01*
X147700567Y-96425500D01*
X147799433Y-96425500D01*
X147799435Y-96425500D01*
X147894938Y-96399910D01*
X147957547Y-96363762D01*
X148007046Y-96350500D01*
X148039563Y-96350500D01*
X148039563Y-96350499D01*
X148115989Y-96330021D01*
X148184511Y-96290460D01*
X148204433Y-96270537D01*
X148258947Y-96242760D01*
X148319379Y-96252330D01*
X148355741Y-96286837D01*
X148356452Y-96286292D01*
X148359895Y-96290779D01*
X148360173Y-96291043D01*
X148360401Y-96291438D01*
X148430314Y-96361351D01*
X148430316Y-96361352D01*
X148515934Y-96410784D01*
X148515932Y-96410784D01*
X148515936Y-96410785D01*
X148515938Y-96410786D01*
X148611441Y-96436376D01*
X148611443Y-96436376D01*
X148710309Y-96436376D01*
X148710311Y-96436376D01*
X148805814Y-96410786D01*
X148805816Y-96410784D01*
X148805818Y-96410784D01*
X148833264Y-96394938D01*
X148891438Y-96361351D01*
X148961351Y-96291438D01*
X149010786Y-96205814D01*
X149011626Y-96202678D01*
X149012892Y-96200727D01*
X149013268Y-96199822D01*
X149013435Y-96199891D01*
X149044944Y-96151365D01*
X149102063Y-96129433D01*
X149161165Y-96145264D01*
X149177251Y-96158288D01*
X149219438Y-96200475D01*
X149228694Y-96205819D01*
X149305058Y-96249908D01*
X149305056Y-96249908D01*
X149305060Y-96249909D01*
X149305062Y-96249910D01*
X149400565Y-96275500D01*
X149400567Y-96275500D01*
X149499433Y-96275500D01*
X149499435Y-96275500D01*
X149594938Y-96249910D01*
X149594948Y-96249903D01*
X149595308Y-96249756D01*
X149595595Y-96249733D01*
X149601206Y-96248230D01*
X149601484Y-96249269D01*
X149656304Y-96244949D01*
X149708476Y-96276913D01*
X149728829Y-96315591D01*
X149741091Y-96361352D01*
X149750091Y-96394942D01*
X149795067Y-96472841D01*
X149799525Y-96480562D01*
X149869438Y-96550475D01*
X149878968Y-96555977D01*
X149955058Y-96599908D01*
X149955056Y-96599908D01*
X149955060Y-96599909D01*
X149955062Y-96599910D01*
X150050565Y-96625500D01*
X150050567Y-96625500D01*
X150149433Y-96625500D01*
X150149435Y-96625500D01*
X150244938Y-96599910D01*
X150307547Y-96563762D01*
X150357046Y-96550500D01*
X151199088Y-96550500D01*
X151225843Y-96559193D01*
X151253010Y-96566473D01*
X151254709Y-96568572D01*
X151257279Y-96569407D01*
X151273816Y-96592168D01*
X151291514Y-96614025D01*
X151291655Y-96616721D01*
X151293243Y-96618907D01*
X151294714Y-96675126D01*
X151281377Y-96724894D01*
X151255755Y-96769271D01*
X150765489Y-97259539D01*
X150709539Y-97315489D01*
X150669980Y-97384007D01*
X150669978Y-97384011D01*
X150649500Y-97460435D01*
X150649500Y-98789564D01*
X150669978Y-98865987D01*
X150703697Y-98924391D01*
X150709540Y-98934511D01*
X150847038Y-99072010D01*
X150880549Y-99105520D01*
X150902988Y-99127959D01*
X150971510Y-99167520D01*
X150998749Y-99174818D01*
X151022637Y-99184716D01*
X151028259Y-99187963D01*
X151028270Y-99187974D01*
X151048856Y-99199859D01*
X151049664Y-99200326D01*
X151052153Y-99201763D01*
X151052153Y-99201764D01*
X151052166Y-99201771D01*
X151071298Y-99223026D01*
X151093094Y-99247233D01*
X151093094Y-99247241D01*
X151093100Y-99247247D01*
X151096313Y-99277868D01*
X151099488Y-99308084D01*
X151099484Y-99308090D01*
X151099485Y-99308098D01*
X151085998Y-99331449D01*
X151068895Y-99361071D01*
X151068885Y-99361077D01*
X151068884Y-99361081D01*
X151068876Y-99361084D01*
X151052153Y-99373235D01*
X151028271Y-99387023D01*
X150958355Y-99456939D01*
X150908923Y-99542556D01*
X150894615Y-99595952D01*
X150883332Y-99638064D01*
X150883332Y-99736934D01*
X150892058Y-99769500D01*
X150908923Y-99832441D01*
X150958355Y-99918058D01*
X150958357Y-99918061D01*
X151028270Y-99987974D01*
X151047110Y-99998851D01*
X151052153Y-100001763D01*
X151093094Y-100047233D01*
X151099488Y-100108084D01*
X151068895Y-100161071D01*
X151052153Y-100173235D01*
X151028271Y-100187023D01*
X150958355Y-100256939D01*
X150908923Y-100342556D01*
X150902676Y-100365871D01*
X150883332Y-100438064D01*
X150883332Y-100536934D01*
X150897499Y-100589806D01*
X150908923Y-100632441D01*
X150958355Y-100718058D01*
X150958357Y-100718061D01*
X150977741Y-100737445D01*
X150989008Y-100759559D01*
X151002892Y-100780127D01*
X151002675Y-100786383D01*
X151005517Y-100791960D01*
X151000777Y-100841276D01*
X150995522Y-100855729D01*
X150957868Y-100903956D01*
X150951983Y-100907635D01*
X150944385Y-100912021D01*
X150874466Y-100981940D01*
X150825034Y-101067557D01*
X150810726Y-101120953D01*
X150799443Y-101163065D01*
X150799443Y-101261935D01*
X150803129Y-101275690D01*
X150825034Y-101357442D01*
X150874466Y-101443059D01*
X150874468Y-101443062D01*
X150944381Y-101512975D01*
X151018353Y-101555683D01*
X151030002Y-101562408D01*
X151030005Y-101562410D01*
X151099836Y-101581120D01*
X151138577Y-101603487D01*
X151139092Y-101602817D01*
X151144184Y-101606724D01*
X151144213Y-101606741D01*
X151144238Y-101606766D01*
X151144240Y-101606767D01*
X151144242Y-101606769D01*
X151212757Y-101646326D01*
X151212755Y-101646326D01*
X151212759Y-101646327D01*
X151212761Y-101646328D01*
X151289187Y-101666806D01*
X151289189Y-101666806D01*
X153919216Y-101666806D01*
X153977407Y-101685713D01*
X154013371Y-101735213D01*
X154013371Y-101796399D01*
X153989219Y-101835810D01*
X153819272Y-102005755D01*
X153774894Y-102031377D01*
X153705061Y-102050090D01*
X153705058Y-102050091D01*
X153619440Y-102099523D01*
X153549523Y-102169440D01*
X153500091Y-102255057D01*
X153497571Y-102264463D01*
X153474500Y-102350565D01*
X153474500Y-102449435D01*
X153484764Y-102487739D01*
X153500091Y-102544942D01*
X153549523Y-102630559D01*
X153549525Y-102630562D01*
X153619438Y-102700475D01*
X153647979Y-102716953D01*
X153705058Y-102749908D01*
X153705056Y-102749908D01*
X153705060Y-102749909D01*
X153705062Y-102749910D01*
X153800565Y-102775500D01*
X153800567Y-102775500D01*
X153899433Y-102775500D01*
X153899435Y-102775500D01*
X153994938Y-102749910D01*
X153994940Y-102749908D01*
X153994942Y-102749908D01*
X154050100Y-102718062D01*
X154080562Y-102700475D01*
X154080566Y-102700470D01*
X154085152Y-102696952D01*
X154142827Y-102676524D01*
X154201493Y-102693898D01*
X154238744Y-102742437D01*
X154241052Y-102801110D01*
X154235217Y-102822889D01*
X154234500Y-102825565D01*
X154234500Y-102924435D01*
X154257067Y-103008657D01*
X154260091Y-103019942D01*
X154309523Y-103105559D01*
X154309525Y-103105562D01*
X154359961Y-103155998D01*
X154387737Y-103210513D01*
X154378166Y-103270945D01*
X154334901Y-103314210D01*
X154289956Y-103325000D01*
X152928553Y-103325000D01*
X153776776Y-104173224D01*
X154790818Y-105187265D01*
X154843354Y-105117086D01*
X154893596Y-104982381D01*
X154893598Y-104982370D01*
X154900000Y-104922824D01*
X154900000Y-103888979D01*
X154918907Y-103830788D01*
X154968407Y-103794824D01*
X155029593Y-103794824D01*
X155069004Y-103818975D01*
X155538063Y-104288034D01*
X155565840Y-104342551D01*
X155556269Y-104402983D01*
X155550375Y-104413039D01*
X155511134Y-104471767D01*
X155511132Y-104471772D01*
X155499501Y-104530241D01*
X155499500Y-104530253D01*
X155499500Y-105569746D01*
X155499501Y-105569758D01*
X155511132Y-105628227D01*
X155511134Y-105628233D01*
X155515329Y-105634511D01*
X155555448Y-105694552D01*
X155621769Y-105738867D01*
X155666231Y-105747711D01*
X155680241Y-105750498D01*
X155680246Y-105750498D01*
X155680252Y-105750500D01*
X155680253Y-105750500D01*
X156719747Y-105750500D01*
X156719748Y-105750500D01*
X156778231Y-105738867D01*
X156844552Y-105694552D01*
X156888867Y-105628231D01*
X156900500Y-105569748D01*
X156900500Y-104530252D01*
X156888867Y-104471769D01*
X156844552Y-104405448D01*
X156791696Y-104370130D01*
X156778233Y-104361134D01*
X156778231Y-104361133D01*
X156778228Y-104361132D01*
X156778227Y-104361132D01*
X156719758Y-104349501D01*
X156719748Y-104349500D01*
X156719747Y-104349500D01*
X156490478Y-104349500D01*
X156432287Y-104330593D01*
X156420480Y-104320509D01*
X155453023Y-103353052D01*
X155425246Y-103298535D01*
X155431898Y-103256532D01*
X157839500Y-103256532D01*
X157839500Y-103463467D01*
X157879869Y-103666418D01*
X157959058Y-103857597D01*
X157959059Y-103857598D01*
X158074023Y-104029655D01*
X158220345Y-104175977D01*
X158392402Y-104290941D01*
X158583580Y-104370130D01*
X158786535Y-104410500D01*
X158786536Y-104410500D01*
X158993464Y-104410500D01*
X158993465Y-104410500D01*
X159196420Y-104370130D01*
X159387598Y-104290941D01*
X159559655Y-104175977D01*
X159705977Y-104029655D01*
X159820941Y-103857598D01*
X159900130Y-103666420D01*
X159940500Y-103463465D01*
X159940500Y-103256535D01*
X159900130Y-103053580D01*
X159820941Y-102862402D01*
X159705977Y-102690345D01*
X159559655Y-102544023D01*
X159534271Y-102527062D01*
X159387597Y-102429058D01*
X159196418Y-102349869D01*
X158993467Y-102309500D01*
X158993465Y-102309500D01*
X158786535Y-102309500D01*
X158786532Y-102309500D01*
X158583581Y-102349869D01*
X158392402Y-102429058D01*
X158220348Y-102544020D01*
X158074020Y-102690348D01*
X157959058Y-102862402D01*
X157879869Y-103053581D01*
X157839500Y-103256532D01*
X155431898Y-103256532D01*
X155434817Y-103238103D01*
X155478082Y-103194838D01*
X155535949Y-103184895D01*
X155619999Y-103195960D01*
X155620000Y-103195960D01*
X155620000Y-102700001D01*
X156020000Y-102700001D01*
X156020000Y-103195958D01*
X156106626Y-103184556D01*
X156106635Y-103184554D01*
X156165415Y-103160207D01*
X156252585Y-103124100D01*
X156252589Y-103124098D01*
X156377919Y-103027929D01*
X156377929Y-103027919D01*
X156474098Y-102902589D01*
X156474100Y-102902585D01*
X156534555Y-102756632D01*
X156542011Y-102700000D01*
X156020001Y-102700000D01*
X156020000Y-102700001D01*
X155620000Y-102700001D01*
X155620000Y-102599000D01*
X155638907Y-102540809D01*
X155688407Y-102504845D01*
X155719000Y-102500000D01*
X155819999Y-102500000D01*
X155820000Y-102499999D01*
X155820000Y-102399500D01*
X155838907Y-102341309D01*
X155888407Y-102305345D01*
X155919000Y-102300500D01*
X157439563Y-102300500D01*
X157439563Y-102300499D01*
X157515989Y-102280021D01*
X157584511Y-102240460D01*
X157618699Y-102206272D01*
X157640461Y-102184511D01*
X158144100Y-101680870D01*
X158198617Y-101653092D01*
X158259049Y-101662663D01*
X158269103Y-101668555D01*
X158392402Y-101750941D01*
X158583580Y-101830130D01*
X158786535Y-101870500D01*
X158786536Y-101870500D01*
X158993464Y-101870500D01*
X158993465Y-101870500D01*
X159196420Y-101830130D01*
X159387598Y-101750941D01*
X159559655Y-101635977D01*
X159705977Y-101489655D01*
X159820941Y-101317598D01*
X159900130Y-101126420D01*
X159940500Y-100923465D01*
X159940500Y-100716535D01*
X159900130Y-100513580D01*
X159820941Y-100322402D01*
X159705977Y-100150345D01*
X159559655Y-100004023D01*
X159535675Y-99988000D01*
X159387597Y-99889058D01*
X159196418Y-99809869D01*
X158993467Y-99769500D01*
X158993465Y-99769500D01*
X158786535Y-99769500D01*
X158786532Y-99769500D01*
X158583581Y-99809869D01*
X158392402Y-99889058D01*
X158220348Y-100004020D01*
X158074020Y-100150348D01*
X157959058Y-100322402D01*
X157879869Y-100513581D01*
X157839500Y-100716532D01*
X157839500Y-100923469D01*
X157864359Y-101048445D01*
X157857167Y-101109206D01*
X157837265Y-101137761D01*
X157304525Y-101670503D01*
X157250008Y-101698281D01*
X157234521Y-101699500D01*
X156134479Y-101699500D01*
X156076288Y-101680593D01*
X156040324Y-101631093D01*
X156040324Y-101569907D01*
X156064475Y-101530496D01*
X156613033Y-100981938D01*
X158339708Y-99255261D01*
X158394223Y-99227486D01*
X158447595Y-99233802D01*
X158583580Y-99290130D01*
X158786535Y-99330500D01*
X158786536Y-99330500D01*
X158993464Y-99330500D01*
X158993465Y-99330500D01*
X159196420Y-99290130D01*
X159387598Y-99210941D01*
X159559655Y-99095977D01*
X159705977Y-98949655D01*
X159820941Y-98777598D01*
X159900130Y-98586420D01*
X159940500Y-98383465D01*
X159940500Y-98176535D01*
X159900130Y-97973580D01*
X159820941Y-97782402D01*
X159705977Y-97610345D01*
X159559655Y-97464023D01*
X159554290Y-97460438D01*
X159387597Y-97349058D01*
X159196418Y-97269869D01*
X158993467Y-97229500D01*
X158993465Y-97229500D01*
X158786535Y-97229500D01*
X158786532Y-97229500D01*
X158583581Y-97269869D01*
X158392402Y-97349058D01*
X158220348Y-97464020D01*
X158074020Y-97610348D01*
X157959058Y-97782402D01*
X157879869Y-97973581D01*
X157839500Y-98176532D01*
X157839500Y-98383467D01*
X157879869Y-98586418D01*
X157936196Y-98722401D01*
X157940997Y-98783398D01*
X157914736Y-98830290D01*
X157569504Y-99175523D01*
X157514987Y-99203301D01*
X157454555Y-99193730D01*
X157411290Y-99150465D01*
X157400500Y-99105520D01*
X157400500Y-97695478D01*
X157419407Y-97637287D01*
X157429490Y-97625480D01*
X158339708Y-96715261D01*
X158394223Y-96687486D01*
X158447595Y-96693802D01*
X158583580Y-96750130D01*
X158786535Y-96790500D01*
X158786536Y-96790500D01*
X158993464Y-96790500D01*
X158993465Y-96790500D01*
X159196420Y-96750130D01*
X159387598Y-96670941D01*
X159559655Y-96555977D01*
X159705977Y-96409655D01*
X159820941Y-96237598D01*
X159900130Y-96046420D01*
X159940500Y-95843465D01*
X159940500Y-95636535D01*
X159900130Y-95433580D01*
X159820941Y-95242402D01*
X159705977Y-95070345D01*
X159559655Y-94924023D01*
X159543236Y-94913052D01*
X159387597Y-94809058D01*
X159196418Y-94729869D01*
X158993467Y-94689500D01*
X158993465Y-94689500D01*
X158786535Y-94689500D01*
X158786532Y-94689500D01*
X158583581Y-94729869D01*
X158392402Y-94809058D01*
X158220348Y-94924020D01*
X158074020Y-95070348D01*
X157959058Y-95242402D01*
X157879869Y-95433581D01*
X157839500Y-95636532D01*
X157839500Y-95843467D01*
X157879869Y-96046418D01*
X157918807Y-96140421D01*
X157934177Y-96177529D01*
X157936196Y-96182402D01*
X157940997Y-96243399D01*
X157914736Y-96290292D01*
X157538372Y-96666656D01*
X157483855Y-96694433D01*
X157423423Y-96684862D01*
X157382632Y-96646152D01*
X157355933Y-96599909D01*
X157351476Y-96592189D01*
X157281563Y-96522276D01*
X157235212Y-96495515D01*
X157194272Y-96450045D01*
X157187877Y-96389195D01*
X157189087Y-96384155D01*
X157198111Y-96350476D01*
X157200500Y-96341562D01*
X157200500Y-94215479D01*
X157219407Y-94157288D01*
X157229496Y-94145475D01*
X157484659Y-93890312D01*
X157771788Y-93603182D01*
X157826303Y-93575407D01*
X157886735Y-93584978D01*
X157930000Y-93628243D01*
X157933254Y-93635301D01*
X157959059Y-93697598D01*
X158065596Y-93857044D01*
X158074023Y-93869655D01*
X158220345Y-94015977D01*
X158392402Y-94130941D01*
X158583580Y-94210130D01*
X158786535Y-94250500D01*
X158786536Y-94250500D01*
X158993464Y-94250500D01*
X158993465Y-94250500D01*
X159196420Y-94210130D01*
X159387598Y-94130941D01*
X159559655Y-94015977D01*
X159705977Y-93869655D01*
X159820941Y-93697598D01*
X159900130Y-93506420D01*
X159940500Y-93303465D01*
X159940500Y-93096535D01*
X159900130Y-92893580D01*
X159820941Y-92702402D01*
X159705977Y-92530345D01*
X159559655Y-92384023D01*
X159550981Y-92378227D01*
X159387597Y-92269058D01*
X159196418Y-92189869D01*
X158993467Y-92149500D01*
X158993465Y-92149500D01*
X158786535Y-92149500D01*
X158786532Y-92149500D01*
X158583581Y-92189869D01*
X158392402Y-92269058D01*
X158220348Y-92384020D01*
X158074020Y-92530348D01*
X157959058Y-92702402D01*
X157902732Y-92838386D01*
X157862995Y-92884912D01*
X157811268Y-92899500D01*
X157789562Y-92899500D01*
X157710438Y-92899500D01*
X157663661Y-92912033D01*
X157634007Y-92919979D01*
X157565493Y-92959536D01*
X156715489Y-93809540D01*
X156715488Y-93809539D01*
X156659539Y-93865489D01*
X156619980Y-93934007D01*
X156619978Y-93934011D01*
X156599500Y-94010435D01*
X156599500Y-96136521D01*
X156580593Y-96194712D01*
X156570504Y-96206525D01*
X156369504Y-96407525D01*
X156314987Y-96435302D01*
X156254555Y-96425731D01*
X156211290Y-96382466D01*
X156200500Y-96337521D01*
X156200500Y-94380253D01*
X156200498Y-94380241D01*
X156197711Y-94366231D01*
X156188867Y-94321769D01*
X156144552Y-94255448D01*
X156137147Y-94250500D01*
X156078233Y-94211134D01*
X156078231Y-94211133D01*
X156078228Y-94211132D01*
X156078227Y-94211132D01*
X156019758Y-94199501D01*
X156019748Y-94199500D01*
X156019747Y-94199500D01*
X155299500Y-94199500D01*
X155241309Y-94180593D01*
X155205345Y-94131093D01*
X155200500Y-94100500D01*
X155200500Y-93684717D01*
X155219407Y-93626526D01*
X155229490Y-93614719D01*
X157288301Y-91555909D01*
X157325719Y-91499910D01*
X157392322Y-91400231D01*
X157463973Y-91227251D01*
X157500500Y-91043616D01*
X157500500Y-90556532D01*
X157839500Y-90556532D01*
X157839500Y-90763467D01*
X157879869Y-90966418D01*
X157959058Y-91157597D01*
X158059143Y-91307386D01*
X158074023Y-91329655D01*
X158220345Y-91475977D01*
X158392402Y-91590941D01*
X158583580Y-91670130D01*
X158786535Y-91710500D01*
X158786536Y-91710500D01*
X158993464Y-91710500D01*
X158993465Y-91710500D01*
X159196420Y-91670130D01*
X159387598Y-91590941D01*
X159559655Y-91475977D01*
X159705977Y-91329655D01*
X159820941Y-91157598D01*
X159900130Y-90966420D01*
X159940500Y-90763465D01*
X159940500Y-90556535D01*
X159900130Y-90353580D01*
X159820941Y-90162402D01*
X159705977Y-89990345D01*
X159559655Y-89844023D01*
X159552904Y-89839512D01*
X159387597Y-89729058D01*
X159196418Y-89649869D01*
X158993467Y-89609500D01*
X158993465Y-89609500D01*
X158786535Y-89609500D01*
X158786532Y-89609500D01*
X158583581Y-89649869D01*
X158392402Y-89729058D01*
X158220348Y-89844020D01*
X158074020Y-89990348D01*
X157959058Y-90162402D01*
X157879869Y-90353581D01*
X157839500Y-90556532D01*
X157500500Y-90556532D01*
X157500500Y-89206384D01*
X157463973Y-89022749D01*
X157412931Y-88899523D01*
X157392321Y-88849766D01*
X157367184Y-88812145D01*
X157350500Y-88757145D01*
X157350500Y-88180253D01*
X157350498Y-88180241D01*
X157343074Y-88142921D01*
X157338867Y-88121769D01*
X157294552Y-88055448D01*
X157294548Y-88055445D01*
X157236312Y-88016532D01*
X157839500Y-88016532D01*
X157839500Y-88223467D01*
X157879869Y-88426418D01*
X157959058Y-88617597D01*
X158072367Y-88787177D01*
X158074023Y-88789655D01*
X158220345Y-88935977D01*
X158392402Y-89050941D01*
X158583580Y-89130130D01*
X158786535Y-89170500D01*
X158786536Y-89170500D01*
X158993464Y-89170500D01*
X158993465Y-89170500D01*
X159196420Y-89130130D01*
X159387598Y-89050941D01*
X159559655Y-88935977D01*
X159705977Y-88789655D01*
X159820941Y-88617598D01*
X159900130Y-88426420D01*
X159940500Y-88223465D01*
X159940500Y-88016535D01*
X159900130Y-87813580D01*
X159820941Y-87622402D01*
X159705977Y-87450345D01*
X159559655Y-87304023D01*
X159559651Y-87304020D01*
X159387597Y-87189058D01*
X159196418Y-87109869D01*
X158993467Y-87069500D01*
X158993465Y-87069500D01*
X158786535Y-87069500D01*
X158786532Y-87069500D01*
X158583581Y-87109869D01*
X158392402Y-87189058D01*
X158220348Y-87304020D01*
X158074020Y-87450348D01*
X157959058Y-87622402D01*
X157879869Y-87813581D01*
X157839500Y-88016532D01*
X157236312Y-88016532D01*
X157228233Y-88011134D01*
X157228231Y-88011133D01*
X157228228Y-88011132D01*
X157228227Y-88011132D01*
X157169758Y-87999501D01*
X157169748Y-87999500D01*
X157169747Y-87999500D01*
X157134479Y-87999500D01*
X157076288Y-87980593D01*
X157040324Y-87931093D01*
X157040324Y-87869907D01*
X157064475Y-87830496D01*
X157369972Y-87524999D01*
X158339708Y-86555261D01*
X158394223Y-86527486D01*
X158447595Y-86533802D01*
X158583580Y-86590130D01*
X158786535Y-86630500D01*
X158786536Y-86630500D01*
X158993464Y-86630500D01*
X158993465Y-86630500D01*
X159196420Y-86590130D01*
X159387598Y-86510941D01*
X159559655Y-86395977D01*
X159705977Y-86249655D01*
X159820941Y-86077598D01*
X159900130Y-85886420D01*
X159940500Y-85683465D01*
X159940500Y-85476535D01*
X159900130Y-85273580D01*
X159820941Y-85082402D01*
X159705977Y-84910345D01*
X159559655Y-84764023D01*
X159537920Y-84749500D01*
X159387597Y-84649058D01*
X159196418Y-84569869D01*
X158993467Y-84529500D01*
X158993465Y-84529500D01*
X158786535Y-84529500D01*
X158786532Y-84529500D01*
X158583581Y-84569869D01*
X158392402Y-84649058D01*
X158220348Y-84764020D01*
X158074020Y-84910348D01*
X157959058Y-85082402D01*
X157927480Y-85158639D01*
X157887743Y-85205165D01*
X157828248Y-85219448D01*
X157771720Y-85196033D01*
X157740390Y-85146378D01*
X157716392Y-85056814D01*
X157716390Y-85056811D01*
X157716390Y-85056809D01*
X157650503Y-84942690D01*
X157650501Y-84942688D01*
X157650500Y-84942686D01*
X157557314Y-84849500D01*
X157557311Y-84849498D01*
X157557309Y-84849496D01*
X157443189Y-84783609D01*
X157443191Y-84783609D01*
X157375564Y-84765489D01*
X157315892Y-84749500D01*
X157184108Y-84749500D01*
X157124436Y-84765489D01*
X157056809Y-84783609D01*
X156942690Y-84849496D01*
X156849496Y-84942690D01*
X156783609Y-85056809D01*
X156771901Y-85100504D01*
X156749500Y-85184108D01*
X156749500Y-85315892D01*
X156765678Y-85376269D01*
X156783609Y-85443190D01*
X156849496Y-85557309D01*
X156849498Y-85557311D01*
X156849500Y-85557314D01*
X156870505Y-85578319D01*
X156898281Y-85632834D01*
X156899500Y-85648321D01*
X156899500Y-85954677D01*
X156880593Y-86012868D01*
X156831093Y-86048832D01*
X156781186Y-86051775D01*
X156769750Y-86049500D01*
X156769748Y-86049500D01*
X155730252Y-86049500D01*
X155730251Y-86049500D01*
X155730241Y-86049501D01*
X155671772Y-86061132D01*
X155671766Y-86061134D01*
X155605451Y-86105445D01*
X155605445Y-86105451D01*
X155561134Y-86171766D01*
X155561132Y-86171772D01*
X155549501Y-86230241D01*
X155549500Y-86230253D01*
X155549500Y-86300500D01*
X155530593Y-86358691D01*
X155481093Y-86394655D01*
X155450500Y-86399500D01*
X155227151Y-86399500D01*
X155168960Y-86380593D01*
X155132996Y-86331093D01*
X155132996Y-86269907D01*
X155144835Y-86245499D01*
X155250495Y-86087366D01*
X155250498Y-86087360D01*
X155329650Y-85896272D01*
X155369999Y-85693418D01*
X155370000Y-85693413D01*
X155370000Y-85340001D01*
X155369999Y-85340000D01*
X154620000Y-85340000D01*
X154620000Y-84840000D01*
X155369999Y-84840000D01*
X155370000Y-84839999D01*
X155370000Y-84486586D01*
X155369999Y-84486581D01*
X155329650Y-84283727D01*
X155250498Y-84092639D01*
X155250491Y-84092625D01*
X155135594Y-83920670D01*
X154989329Y-83774405D01*
X154817374Y-83659508D01*
X154817360Y-83659501D01*
X154626274Y-83580350D01*
X154570000Y-83569156D01*
X154570000Y-84373011D01*
X154560060Y-84355795D01*
X154504205Y-84299940D01*
X154435796Y-84260444D01*
X154359496Y-84240000D01*
X154280504Y-84240000D01*
X154204204Y-84260444D01*
X154135795Y-84299940D01*
X154079940Y-84355795D01*
X154070000Y-84373011D01*
X154070000Y-83569156D01*
X154013725Y-83580350D01*
X153822639Y-83659501D01*
X153822625Y-83659508D01*
X153650670Y-83774405D01*
X153504405Y-83920670D01*
X153389508Y-84092625D01*
X153389501Y-84092639D01*
X153342797Y-84205391D01*
X153303060Y-84251917D01*
X153243565Y-84266200D01*
X153201836Y-84253242D01*
X153092836Y-84190312D01*
X152959183Y-84154500D01*
X152820817Y-84154500D01*
X152687164Y-84190312D01*
X152567335Y-84259495D01*
X152469495Y-84357335D01*
X152400312Y-84477164D01*
X152364500Y-84610817D01*
X152364500Y-84655711D01*
X152364500Y-84749183D01*
X152400312Y-84882836D01*
X152469495Y-85002665D01*
X152567335Y-85100505D01*
X152687164Y-85169688D01*
X152820817Y-85205500D01*
X152820819Y-85205500D01*
X152959181Y-85205500D01*
X152959183Y-85205500D01*
X153092836Y-85169688D01*
X153121500Y-85153139D01*
X153181348Y-85140417D01*
X153237244Y-85165303D01*
X153267837Y-85218291D01*
X153270000Y-85238875D01*
X153270000Y-85693418D01*
X153310349Y-85896272D01*
X153389501Y-86087360D01*
X153389504Y-86087366D01*
X153495165Y-86245499D01*
X153511773Y-86304387D01*
X153490595Y-86361790D01*
X153439722Y-86395783D01*
X153412849Y-86399500D01*
X152796144Y-86399500D01*
X152703856Y-86399500D01*
X152614712Y-86423386D01*
X152534788Y-86469530D01*
X151669528Y-87334790D01*
X151629260Y-87404536D01*
X151629259Y-87404540D01*
X151623386Y-87414712D01*
X151605825Y-87480253D01*
X151599500Y-87503857D01*
X151599500Y-87900500D01*
X151580593Y-87958691D01*
X151531093Y-87994655D01*
X151500500Y-87999500D01*
X151330252Y-87999500D01*
X151330251Y-87999500D01*
X151330241Y-87999501D01*
X151271772Y-88011132D01*
X151271766Y-88011134D01*
X151205451Y-88055445D01*
X151205445Y-88055451D01*
X151161134Y-88121766D01*
X151161132Y-88121772D01*
X151149501Y-88180241D01*
X151149500Y-88180253D01*
X151149500Y-90419746D01*
X151149501Y-90419758D01*
X151161132Y-90478227D01*
X151161134Y-90478233D01*
X151171586Y-90493875D01*
X151205448Y-90544552D01*
X151271769Y-90588867D01*
X151292053Y-90592901D01*
X151321485Y-90598757D01*
X151374869Y-90628654D01*
X151400484Y-90684219D01*
X151399330Y-90714852D01*
X150880877Y-93366369D01*
X150859123Y-93411518D01*
X150856530Y-93414565D01*
X150798911Y-93472185D01*
X150780738Y-93503660D01*
X150774906Y-93510517D01*
X150756141Y-93522066D01*
X150739766Y-93536811D01*
X150730626Y-93537771D01*
X150722800Y-93542589D01*
X150700828Y-93540903D01*
X150678916Y-93543206D01*
X150670957Y-93538611D01*
X150661794Y-93537908D01*
X150645010Y-93523630D01*
X150625928Y-93512613D01*
X150622189Y-93504216D01*
X150615191Y-93498263D01*
X150610005Y-93476848D01*
X150601042Y-93456717D01*
X150600500Y-93446370D01*
X150600500Y-93310437D01*
X150600499Y-93310435D01*
X150599669Y-93307339D01*
X150580021Y-93234011D01*
X150540460Y-93165489D01*
X150524442Y-93149471D01*
X150484511Y-93109539D01*
X150484511Y-93109540D01*
X150394243Y-93019272D01*
X150368620Y-92974891D01*
X150364506Y-92959536D01*
X150349910Y-92905062D01*
X150343281Y-92893581D01*
X150300476Y-92819440D01*
X150300475Y-92819438D01*
X150230562Y-92749525D01*
X150230559Y-92749523D01*
X150144941Y-92700091D01*
X150144937Y-92700089D01*
X150095507Y-92686844D01*
X150044193Y-92653520D01*
X150022267Y-92596398D01*
X150038103Y-92537298D01*
X150085654Y-92498793D01*
X150101808Y-92494122D01*
X150128231Y-92488867D01*
X150194552Y-92444552D01*
X150238867Y-92378231D01*
X150250500Y-92319748D01*
X150250500Y-91280252D01*
X150238867Y-91221769D01*
X150194552Y-91155448D01*
X150185070Y-91149112D01*
X150128233Y-91111134D01*
X150128231Y-91111133D01*
X150128228Y-91111132D01*
X150128227Y-91111132D01*
X150069758Y-91099501D01*
X150069748Y-91099500D01*
X150069747Y-91099500D01*
X150064479Y-91099500D01*
X150006288Y-91080593D01*
X149970324Y-91031093D01*
X149970324Y-90969907D01*
X149994475Y-90930496D01*
X150169617Y-90755354D01*
X150740460Y-90184511D01*
X150742740Y-90180562D01*
X150780021Y-90115989D01*
X150800500Y-90039562D01*
X150800500Y-86915479D01*
X150819407Y-86857288D01*
X150829496Y-86845475D01*
X150840460Y-86834511D01*
X150896663Y-86778308D01*
X150990460Y-86684511D01*
X150990509Y-86684425D01*
X150990711Y-86684078D01*
X151030020Y-86615990D01*
X151030021Y-86615989D01*
X151050500Y-86539562D01*
X151050500Y-86485681D01*
X151067184Y-86430681D01*
X151088867Y-86398231D01*
X151100500Y-86339748D01*
X151100500Y-85160252D01*
X151088867Y-85101769D01*
X151044552Y-85035448D01*
X150995490Y-85002665D01*
X150978233Y-84991134D01*
X150978231Y-84991133D01*
X150978228Y-84991132D01*
X150978227Y-84991132D01*
X150919758Y-84979501D01*
X150919748Y-84979500D01*
X150644970Y-84979500D01*
X150586779Y-84960593D01*
X150550815Y-84911093D01*
X150549344Y-84906125D01*
X150530021Y-84834011D01*
X150530019Y-84834008D01*
X150530019Y-84834006D01*
X150490460Y-84765489D01*
X150434512Y-84709540D01*
X150334510Y-84609539D01*
X150265992Y-84569980D01*
X150265988Y-84569978D01*
X150189564Y-84549500D01*
X150189562Y-84549500D01*
X149360438Y-84549500D01*
X149360435Y-84549500D01*
X149284011Y-84569978D01*
X149284007Y-84569980D01*
X149215489Y-84609539D01*
X149009539Y-84815489D01*
X148969980Y-84884007D01*
X148969979Y-84884010D01*
X148964053Y-84906125D01*
X148962582Y-84908390D01*
X148962582Y-84911093D01*
X148946042Y-84933856D01*
X148930728Y-84957439D01*
X148928206Y-84958406D01*
X148926618Y-84960593D01*
X148899859Y-84969287D01*
X148873606Y-84979364D01*
X148868427Y-84979500D01*
X148717321Y-84979500D01*
X148659130Y-84960593D01*
X148623166Y-84911093D01*
X148623166Y-84849907D01*
X148647315Y-84810498D01*
X148650500Y-84807314D01*
X148675496Y-84764020D01*
X148716390Y-84693190D01*
X148716390Y-84693188D01*
X148716392Y-84693186D01*
X148750500Y-84565892D01*
X148750500Y-84434108D01*
X148716392Y-84306814D01*
X148716390Y-84306811D01*
X148716390Y-84306809D01*
X148650503Y-84192690D01*
X148650501Y-84192688D01*
X148650500Y-84192686D01*
X148557314Y-84099500D01*
X148557311Y-84099498D01*
X148557309Y-84099496D01*
X148443189Y-84033609D01*
X148443191Y-84033609D01*
X148393799Y-84020375D01*
X148315892Y-83999500D01*
X148184108Y-83999500D01*
X148106200Y-84020375D01*
X148056809Y-84033609D01*
X147942690Y-84099496D01*
X147849496Y-84192690D01*
X147783609Y-84306809D01*
X147755991Y-84409882D01*
X147722666Y-84461197D01*
X147665545Y-84483123D01*
X147606444Y-84467287D01*
X147574630Y-84433762D01*
X147530505Y-84357335D01*
X147432665Y-84259495D01*
X147312836Y-84190312D01*
X147179183Y-84154500D01*
X147040817Y-84154500D01*
X146907164Y-84190312D01*
X146821102Y-84240000D01*
X146798166Y-84253242D01*
X146738317Y-84265963D01*
X146682422Y-84241076D01*
X146657202Y-84205391D01*
X146610498Y-84092639D01*
X146610491Y-84092625D01*
X146495594Y-83920670D01*
X146349329Y-83774405D01*
X146177374Y-83659508D01*
X146177360Y-83659501D01*
X145986274Y-83580350D01*
X145930000Y-83569156D01*
X145930000Y-84373011D01*
X145920060Y-84355795D01*
X145864205Y-84299940D01*
X145795796Y-84260444D01*
X145719496Y-84240000D01*
X145640504Y-84240000D01*
X145564204Y-84260444D01*
X145495795Y-84299940D01*
X145439940Y-84355795D01*
X145430000Y-84373011D01*
X145430000Y-83569156D01*
X145373725Y-83580350D01*
X145182639Y-83659501D01*
X145182625Y-83659508D01*
X145010670Y-83774405D01*
X144864405Y-83920670D01*
X144749508Y-84092625D01*
X144749501Y-84092639D01*
X144670349Y-84283727D01*
X144630000Y-84486581D01*
X144630000Y-84839999D01*
X144630001Y-84840000D01*
X145380000Y-84840000D01*
X145380000Y-85340000D01*
X144630001Y-85340000D01*
X144630000Y-85340001D01*
X144630000Y-85693418D01*
X144670349Y-85896272D01*
X144749501Y-86087360D01*
X144749508Y-86087374D01*
X144864405Y-86259329D01*
X145010670Y-86405594D01*
X145182625Y-86520491D01*
X145182639Y-86520498D01*
X145373723Y-86599648D01*
X145373730Y-86599650D01*
X145402517Y-86605376D01*
X145430000Y-86589270D01*
X145430000Y-85806988D01*
X145439940Y-85824205D01*
X145495795Y-85880060D01*
X145564204Y-85919556D01*
X145640504Y-85940000D01*
X145719496Y-85940000D01*
X145795796Y-85919556D01*
X145864205Y-85880060D01*
X145920060Y-85824205D01*
X145930000Y-85806988D01*
X145930000Y-86351447D01*
X146926776Y-87348224D01*
X147940818Y-88362265D01*
X147993354Y-88292086D01*
X148043596Y-88157381D01*
X148043598Y-88157370D01*
X148050000Y-88097824D01*
X148050000Y-87343585D01*
X148068907Y-87285394D01*
X148118407Y-87249430D01*
X148174621Y-87247958D01*
X148184108Y-87250500D01*
X148184110Y-87250500D01*
X148315890Y-87250500D01*
X148315892Y-87250500D01*
X148443186Y-87216392D01*
X148443188Y-87216390D01*
X148443190Y-87216390D01*
X148557309Y-87150503D01*
X148557309Y-87150502D01*
X148557314Y-87150500D01*
X148650500Y-87057314D01*
X148650503Y-87057309D01*
X148716390Y-86943190D01*
X148716390Y-86943188D01*
X148716392Y-86943186D01*
X148750500Y-86815892D01*
X148750500Y-86684108D01*
X148740054Y-86645122D01*
X148743257Y-86584021D01*
X148781763Y-86536471D01*
X148835681Y-86520500D01*
X148850500Y-86520500D01*
X148908691Y-86539407D01*
X148944655Y-86588907D01*
X148949500Y-86619500D01*
X148949500Y-87039564D01*
X148969978Y-87115988D01*
X148989903Y-87150498D01*
X148989910Y-87150511D01*
X148991851Y-87153874D01*
X148996208Y-87174388D01*
X149001651Y-87199999D01*
X149003167Y-87199999D01*
X149003167Y-87200000D01*
X149001652Y-87200000D01*
X149004566Y-87213711D01*
X149004562Y-87213718D01*
X149004564Y-87213724D01*
X148993824Y-87237835D01*
X148979679Y-87269607D01*
X148979672Y-87269610D01*
X148979670Y-87269616D01*
X148956584Y-87282940D01*
X148926690Y-87300199D01*
X148925424Y-87300459D01*
X148871772Y-87311132D01*
X148871766Y-87311134D01*
X148805451Y-87355445D01*
X148805445Y-87355451D01*
X148761134Y-87421766D01*
X148761132Y-87421772D01*
X148749501Y-87480241D01*
X148749500Y-87480253D01*
X148749500Y-88519746D01*
X148749501Y-88519758D01*
X148761132Y-88578227D01*
X148761134Y-88578233D01*
X148805445Y-88644548D01*
X148805448Y-88644552D01*
X148871769Y-88688867D01*
X148916231Y-88697711D01*
X148930241Y-88700498D01*
X148930246Y-88700498D01*
X148930252Y-88700500D01*
X149050500Y-88700500D01*
X149108691Y-88719407D01*
X149144655Y-88768907D01*
X149149500Y-88799500D01*
X149149500Y-89796051D01*
X149147883Y-89796051D01*
X149145288Y-89810044D01*
X149145185Y-89832207D01*
X149139824Y-89839512D01*
X149138173Y-89848420D01*
X149122099Y-89863670D01*
X149108990Y-89881538D01*
X149101204Y-89883496D01*
X149093787Y-89890534D01*
X149050711Y-89900173D01*
X149041920Y-89900131D01*
X149039562Y-89899500D01*
X148906797Y-89899500D01*
X148906583Y-89899499D01*
X148904603Y-89898845D01*
X148857547Y-89886237D01*
X148794938Y-89850090D01*
X148699435Y-89824500D01*
X148600565Y-89824500D01*
X148544540Y-89839512D01*
X148505057Y-89850091D01*
X148419440Y-89899523D01*
X148388772Y-89930191D01*
X148334255Y-89957967D01*
X148273823Y-89948395D01*
X148230559Y-89905130D01*
X148220988Y-89844698D01*
X148223143Y-89834561D01*
X148223774Y-89832207D01*
X148225500Y-89825766D01*
X148225500Y-89674234D01*
X148186281Y-89527865D01*
X148186279Y-89527862D01*
X148186279Y-89527860D01*
X148110518Y-89396639D01*
X148110516Y-89396637D01*
X148110515Y-89396635D01*
X148003365Y-89289485D01*
X148003362Y-89289483D01*
X148003360Y-89289481D01*
X147872138Y-89213720D01*
X147872140Y-89213720D01*
X147799665Y-89194301D01*
X147725766Y-89174500D01*
X147574234Y-89174500D01*
X147500335Y-89194301D01*
X147427860Y-89213720D01*
X147296639Y-89289481D01*
X147189481Y-89396639D01*
X147113720Y-89527860D01*
X147105767Y-89557541D01*
X147074500Y-89674234D01*
X147074500Y-89715957D01*
X147074500Y-89825766D01*
X147113578Y-89971607D01*
X147110375Y-90032709D01*
X147071870Y-90080259D01*
X147017951Y-90096230D01*
X146586133Y-90096230D01*
X146540590Y-90085133D01*
X146538595Y-90084099D01*
X146474025Y-90046820D01*
X146458732Y-90042722D01*
X146449193Y-90037780D01*
X146434883Y-90023274D01*
X146417797Y-90012178D01*
X146413886Y-90001990D01*
X146406223Y-89994222D01*
X146403172Y-89974075D01*
X146395872Y-89955056D01*
X146397683Y-89937827D01*
X146397062Y-89933727D01*
X146398381Y-89931179D01*
X146399109Y-89924257D01*
X146425500Y-89825766D01*
X146425500Y-89674234D01*
X146386281Y-89527865D01*
X146386279Y-89527862D01*
X146386279Y-89527860D01*
X146310518Y-89396639D01*
X146310516Y-89396637D01*
X146310515Y-89396635D01*
X146203365Y-89289485D01*
X146203362Y-89289483D01*
X146203360Y-89289481D01*
X146072138Y-89213720D01*
X146072140Y-89213720D01*
X145999665Y-89194301D01*
X145925766Y-89174500D01*
X145774234Y-89174500D01*
X145700335Y-89194301D01*
X145627860Y-89213720D01*
X145496639Y-89289481D01*
X145389481Y-89396639D01*
X145313720Y-89527860D01*
X145305767Y-89557541D01*
X145274500Y-89674234D01*
X145274500Y-89715957D01*
X145274500Y-89825766D01*
X145294437Y-89900173D01*
X145313719Y-89972136D01*
X145364125Y-90059441D01*
X145376846Y-90119290D01*
X145351959Y-90175185D01*
X145327889Y-90194677D01*
X145276548Y-90224319D01*
X145206632Y-90294235D01*
X145157200Y-90379852D01*
X145144915Y-90425703D01*
X145131609Y-90475360D01*
X145131609Y-90574230D01*
X145135531Y-90588867D01*
X145157200Y-90669737D01*
X145183248Y-90714852D01*
X145206634Y-90755357D01*
X145276547Y-90825270D01*
X145276549Y-90825271D01*
X145362167Y-90874703D01*
X145362165Y-90874703D01*
X145362169Y-90874704D01*
X145362171Y-90874705D01*
X145457674Y-90900295D01*
X145457676Y-90900295D01*
X145556543Y-90900295D01*
X145556544Y-90900295D01*
X145634446Y-90879421D01*
X145695545Y-90882622D01*
X145730072Y-90905043D01*
X145919624Y-91094595D01*
X145947401Y-91149112D01*
X145937830Y-91209544D01*
X145894565Y-91252809D01*
X145877980Y-91258561D01*
X145871766Y-91261134D01*
X145805451Y-91305445D01*
X145805445Y-91305451D01*
X145761134Y-91371766D01*
X145761132Y-91371772D01*
X145749501Y-91430241D01*
X145749500Y-91430253D01*
X145749500Y-92519746D01*
X145749501Y-92519758D01*
X145761132Y-92578227D01*
X145761133Y-92578231D01*
X145805448Y-92644552D01*
X145871769Y-92688867D01*
X145916231Y-92697711D01*
X145930241Y-92700498D01*
X145930246Y-92700498D01*
X145930252Y-92700500D01*
X147287521Y-92700500D01*
X147345712Y-92719407D01*
X147381676Y-92768907D01*
X147381676Y-92830093D01*
X147357525Y-92869504D01*
X146092401Y-94134628D01*
X146037884Y-94162405D01*
X146022397Y-94163624D01*
X145742922Y-94163624D01*
X145693423Y-94150361D01*
X145630814Y-94114214D01*
X145535311Y-94088624D01*
X145436441Y-94088624D01*
X145392119Y-94100500D01*
X145340932Y-94114215D01*
X145334940Y-94116698D01*
X145334194Y-94114897D01*
X145332647Y-94115225D01*
X145324093Y-94121441D01*
X145303387Y-94121441D01*
X145283139Y-94125742D01*
X145273482Y-94121441D01*
X145262907Y-94121441D01*
X145246154Y-94109269D01*
X145227246Y-94100848D01*
X145221961Y-94091692D01*
X145213407Y-94085477D01*
X145207008Y-94065784D01*
X145196661Y-94047856D01*
X145194500Y-94027286D01*
X145194500Y-93857044D01*
X145207763Y-93807545D01*
X145243910Y-93744938D01*
X145269500Y-93649435D01*
X145269500Y-93550565D01*
X145243910Y-93455062D01*
X145243908Y-93455059D01*
X145243908Y-93455057D01*
X145194476Y-93369440D01*
X145194475Y-93369438D01*
X145124562Y-93299525D01*
X145114494Y-93293712D01*
X145038941Y-93250091D01*
X145038943Y-93250091D01*
X145001885Y-93240161D01*
X144943435Y-93224500D01*
X144844565Y-93224500D01*
X144786114Y-93240161D01*
X144749057Y-93250091D01*
X144663440Y-93299523D01*
X144593523Y-93369440D01*
X144544091Y-93455057D01*
X144541296Y-93465489D01*
X144518500Y-93550565D01*
X144518500Y-93649435D01*
X144544090Y-93744938D01*
X144580236Y-93807545D01*
X144593500Y-93857044D01*
X144593500Y-94583564D01*
X144613977Y-94659985D01*
X144613981Y-94659993D01*
X144637077Y-94699999D01*
X144637078Y-94699999D01*
X144650743Y-94723667D01*
X144653540Y-94728511D01*
X145259564Y-95334535D01*
X145731222Y-95806193D01*
X145758999Y-95860710D01*
X145749428Y-95921142D01*
X145706163Y-95964407D01*
X145655924Y-95973039D01*
X145655924Y-95974500D01*
X145649435Y-95974500D01*
X145550565Y-95974500D01*
X145455062Y-96000090D01*
X145392452Y-96036237D01*
X145342954Y-96049500D01*
X145165479Y-96049500D01*
X145107288Y-96030593D01*
X145095475Y-96020504D01*
X144879495Y-95804524D01*
X144851718Y-95750007D01*
X144850499Y-95734520D01*
X144850499Y-95729315D01*
X144825639Y-95636536D01*
X144824909Y-95633811D01*
X144824907Y-95633808D01*
X144824907Y-95633806D01*
X144775475Y-95548189D01*
X144775474Y-95548187D01*
X144705561Y-95478274D01*
X144705558Y-95478272D01*
X144619940Y-95428840D01*
X144619942Y-95428840D01*
X144582884Y-95418910D01*
X144524434Y-95403249D01*
X144425564Y-95403249D01*
X144345407Y-95424727D01*
X144325123Y-95430162D01*
X144264021Y-95426959D01*
X144216471Y-95388454D01*
X144200500Y-95334535D01*
X144200500Y-93190477D01*
X144219407Y-93132286D01*
X144229490Y-93120480D01*
X144505727Y-92844242D01*
X144550105Y-92818621D01*
X144619938Y-92799910D01*
X144705562Y-92750475D01*
X144775475Y-92680562D01*
X144824910Y-92594938D01*
X144850500Y-92499435D01*
X144850500Y-92400565D01*
X144824910Y-92305062D01*
X144824908Y-92305058D01*
X144824908Y-92305057D01*
X144775476Y-92219440D01*
X144775475Y-92219438D01*
X144705562Y-92149525D01*
X144705519Y-92149500D01*
X144619941Y-92100091D01*
X144619943Y-92100091D01*
X144582885Y-92090161D01*
X144524435Y-92074500D01*
X144425565Y-92074500D01*
X144367114Y-92090161D01*
X144330057Y-92100091D01*
X144244440Y-92149523D01*
X144174523Y-92219440D01*
X144125091Y-92305058D01*
X144125090Y-92305061D01*
X144106377Y-92374894D01*
X144080755Y-92419272D01*
X143969504Y-92530524D01*
X143914987Y-92558302D01*
X143854555Y-92548731D01*
X143811291Y-92505466D01*
X143800500Y-92460521D01*
X143800500Y-89660439D01*
X143800500Y-89660438D01*
X143786851Y-89609500D01*
X143785621Y-89604908D01*
X143785621Y-89604907D01*
X143780024Y-89584017D01*
X143780023Y-89584015D01*
X143780022Y-89584014D01*
X143780022Y-89584012D01*
X143740460Y-89515489D01*
X142979496Y-88754525D01*
X142951719Y-88700008D01*
X142950500Y-88684521D01*
X142950500Y-87080253D01*
X143399500Y-87080253D01*
X143399500Y-88119746D01*
X143399501Y-88119758D01*
X143411132Y-88178227D01*
X143411134Y-88178233D01*
X143441358Y-88223465D01*
X143455448Y-88244552D01*
X143521769Y-88288867D01*
X143566231Y-88297711D01*
X143580241Y-88300498D01*
X143580246Y-88300498D01*
X143580252Y-88300500D01*
X143700500Y-88300500D01*
X143758691Y-88319407D01*
X143794655Y-88368907D01*
X143799500Y-88399500D01*
X143799500Y-88589564D01*
X143819978Y-88665988D01*
X143833187Y-88688866D01*
X143839904Y-88700500D01*
X143859540Y-88734511D01*
X144147778Y-89022749D01*
X144355756Y-89230727D01*
X144381378Y-89275107D01*
X144400089Y-89344937D01*
X144400091Y-89344941D01*
X144446301Y-89424978D01*
X144449525Y-89430562D01*
X144519438Y-89500475D01*
X144519440Y-89500476D01*
X144605058Y-89549908D01*
X144605056Y-89549908D01*
X144605060Y-89549909D01*
X144605062Y-89549910D01*
X144700565Y-89575500D01*
X144700567Y-89575500D01*
X144799433Y-89575500D01*
X144799435Y-89575500D01*
X144894938Y-89549910D01*
X144894940Y-89549908D01*
X144894942Y-89549908D01*
X144933121Y-89527865D01*
X144980562Y-89500475D01*
X145050475Y-89430562D01*
X145099910Y-89344938D01*
X145125500Y-89249435D01*
X145125500Y-89150565D01*
X145099910Y-89055062D01*
X145099908Y-89055059D01*
X145099908Y-89055057D01*
X145050476Y-88969440D01*
X145050475Y-88969438D01*
X144980562Y-88899525D01*
X144980559Y-88899523D01*
X144894941Y-88850091D01*
X144894937Y-88850089D01*
X144825107Y-88831378D01*
X144780727Y-88805756D01*
X144524971Y-88550000D01*
X146078553Y-88550000D01*
X147421447Y-88550000D01*
X146750000Y-87878553D01*
X146078553Y-88550000D01*
X144524971Y-88550000D01*
X144444475Y-88469504D01*
X144416698Y-88414987D01*
X144426269Y-88354555D01*
X144469534Y-88311290D01*
X144514479Y-88300500D01*
X144619747Y-88300500D01*
X144619748Y-88300500D01*
X144678231Y-88288867D01*
X144744552Y-88244552D01*
X144788867Y-88178231D01*
X144800500Y-88119748D01*
X144800500Y-88097824D01*
X145449999Y-88097824D01*
X145456401Y-88157370D01*
X145456403Y-88157381D01*
X145506645Y-88292087D01*
X145559180Y-88362265D01*
X146396446Y-87524999D01*
X145616447Y-86745000D01*
X145555873Y-86745000D01*
X145499038Y-86778308D01*
X145456403Y-86892618D01*
X145456401Y-86892629D01*
X145450000Y-86952175D01*
X145450000Y-88097824D01*
X145449999Y-88097824D01*
X144800500Y-88097824D01*
X144800500Y-87080252D01*
X144788867Y-87021769D01*
X144744552Y-86955448D01*
X144734796Y-86948929D01*
X144678233Y-86911134D01*
X144678231Y-86911133D01*
X144678228Y-86911132D01*
X144678227Y-86911132D01*
X144619758Y-86899501D01*
X144619748Y-86899500D01*
X143580252Y-86899500D01*
X143580251Y-86899500D01*
X143580241Y-86899501D01*
X143521772Y-86911132D01*
X143521766Y-86911134D01*
X143455451Y-86955445D01*
X143455445Y-86955451D01*
X143411134Y-87021766D01*
X143411132Y-87021772D01*
X143399501Y-87080241D01*
X143399500Y-87080253D01*
X142950500Y-87080253D01*
X142950500Y-83760437D01*
X142950499Y-83760435D01*
X142930021Y-83684011D01*
X142930019Y-83684007D01*
X142890460Y-83615489D01*
X142834511Y-83559539D01*
X142834511Y-83559540D01*
X142209079Y-82934108D01*
X146999500Y-82934108D01*
X146999500Y-83065892D01*
X147020286Y-83143467D01*
X147033609Y-83193190D01*
X147099496Y-83307309D01*
X147099498Y-83307311D01*
X147099500Y-83307314D01*
X147192686Y-83400500D01*
X147192688Y-83400501D01*
X147192690Y-83400503D01*
X147306810Y-83466390D01*
X147306808Y-83466390D01*
X147306812Y-83466391D01*
X147306814Y-83466392D01*
X147434108Y-83500500D01*
X147434110Y-83500500D01*
X147565890Y-83500500D01*
X147565892Y-83500500D01*
X147693186Y-83466392D01*
X147693188Y-83466390D01*
X147693190Y-83466390D01*
X147807309Y-83400503D01*
X147807309Y-83400502D01*
X147807314Y-83400500D01*
X147828319Y-83379494D01*
X147882834Y-83351719D01*
X147898321Y-83350500D01*
X150063810Y-83350500D01*
X150122001Y-83369407D01*
X150133814Y-83379496D01*
X151370504Y-84616185D01*
X151398281Y-84670702D01*
X151399500Y-84686189D01*
X151399500Y-86339746D01*
X151399501Y-86339758D01*
X151411132Y-86398227D01*
X151411134Y-86398233D01*
X151455445Y-86464548D01*
X151455448Y-86464552D01*
X151521769Y-86508867D01*
X151566231Y-86517711D01*
X151580241Y-86520498D01*
X151580246Y-86520498D01*
X151580252Y-86520500D01*
X151580253Y-86520500D01*
X151919747Y-86520500D01*
X151919748Y-86520500D01*
X151978231Y-86508867D01*
X152044552Y-86464552D01*
X152088867Y-86398231D01*
X152100500Y-86339748D01*
X152100500Y-85160252D01*
X152100500Y-84453856D01*
X152076614Y-84364712D01*
X152030469Y-84284788D01*
X151998923Y-84253242D01*
X151965212Y-84219530D01*
X151965212Y-84219531D01*
X150682214Y-82936532D01*
X157839500Y-82936532D01*
X157839500Y-83143467D01*
X157879869Y-83346418D01*
X157959058Y-83537597D01*
X158056888Y-83684011D01*
X158074023Y-83709655D01*
X158220345Y-83855977D01*
X158392402Y-83970941D01*
X158583580Y-84050130D01*
X158786535Y-84090500D01*
X158786536Y-84090500D01*
X158993464Y-84090500D01*
X158993465Y-84090500D01*
X159196420Y-84050130D01*
X159387598Y-83970941D01*
X159559655Y-83855977D01*
X159705977Y-83709655D01*
X159820941Y-83537598D01*
X159900130Y-83346420D01*
X159940500Y-83143465D01*
X159940500Y-82936535D01*
X159900130Y-82733580D01*
X159820941Y-82542402D01*
X159705977Y-82370345D01*
X159559655Y-82224023D01*
X159559651Y-82224020D01*
X159387597Y-82109058D01*
X159196418Y-82029869D01*
X158993467Y-81989500D01*
X158993465Y-81989500D01*
X158786535Y-81989500D01*
X158786532Y-81989500D01*
X158583581Y-82029869D01*
X158392402Y-82109058D01*
X158220348Y-82224020D01*
X158074020Y-82370348D01*
X157959058Y-82542402D01*
X157879869Y-82733581D01*
X157839500Y-82936532D01*
X150682214Y-82936532D01*
X150465212Y-82719530D01*
X150385288Y-82673386D01*
X150296144Y-82649500D01*
X150296142Y-82649500D01*
X147898321Y-82649500D01*
X147840130Y-82630593D01*
X147828323Y-82620509D01*
X147807314Y-82599500D01*
X147807311Y-82599498D01*
X147807309Y-82599496D01*
X147693189Y-82533609D01*
X147693191Y-82533609D01*
X147643799Y-82520375D01*
X147565892Y-82499500D01*
X147434108Y-82499500D01*
X147356200Y-82520375D01*
X147306809Y-82533609D01*
X147192690Y-82599496D01*
X147099496Y-82692690D01*
X147033609Y-82806809D01*
X147033608Y-82806814D01*
X146999500Y-82934108D01*
X142209079Y-82934108D01*
X142169070Y-82894099D01*
X142141976Y-82843409D01*
X142120130Y-82733581D01*
X142103192Y-82692690D01*
X142040941Y-82542402D01*
X141925977Y-82370345D01*
X141779655Y-82224023D01*
X141607598Y-82109059D01*
X141607599Y-82109059D01*
X141607597Y-82109058D01*
X141416418Y-82029869D01*
X141213467Y-81989500D01*
X141213465Y-81989500D01*
X141006535Y-81989500D01*
X141006532Y-81989500D01*
X140803581Y-82029869D01*
X140612402Y-82109058D01*
X140440348Y-82224020D01*
X140294020Y-82370348D01*
X140179058Y-82542402D01*
X140099869Y-82733581D01*
X140059500Y-82936532D01*
X139750000Y-82936532D01*
X139750000Y-79630253D01*
X140059500Y-79630253D01*
X140059500Y-81369746D01*
X140059501Y-81369758D01*
X140071132Y-81428227D01*
X140071134Y-81428233D01*
X140087964Y-81453420D01*
X140115448Y-81494552D01*
X140181769Y-81538867D01*
X140226231Y-81547711D01*
X140240241Y-81550498D01*
X140240246Y-81550498D01*
X140240252Y-81550500D01*
X140240253Y-81550500D01*
X141979747Y-81550500D01*
X141979748Y-81550500D01*
X142038231Y-81538867D01*
X142104552Y-81494552D01*
X142148867Y-81428231D01*
X142160500Y-81369748D01*
X142160500Y-80546579D01*
X144630000Y-80546579D01*
X144630000Y-81453420D01*
X144670319Y-81656126D01*
X145326446Y-80999999D01*
X144670319Y-80343872D01*
X144630000Y-80546579D01*
X142160500Y-80546579D01*
X142160500Y-79905760D01*
X144939313Y-79905760D01*
X145444644Y-80411091D01*
X145439940Y-80415795D01*
X145400444Y-80484204D01*
X145380000Y-80560504D01*
X145380000Y-81439496D01*
X145400444Y-81515796D01*
X145439940Y-81584205D01*
X145444643Y-81588908D01*
X144939314Y-82094238D01*
X145010670Y-82165594D01*
X145182625Y-82280491D01*
X145182639Y-82280498D01*
X145373727Y-82359650D01*
X145576581Y-82399999D01*
X145576586Y-82400000D01*
X145783414Y-82400000D01*
X145783418Y-82399999D01*
X145986272Y-82359650D01*
X146177360Y-82280498D01*
X146177369Y-82280494D01*
X146349332Y-82165590D01*
X146349341Y-82165583D01*
X146420685Y-82094238D01*
X145915356Y-81588909D01*
X145920060Y-81584205D01*
X145959556Y-81515796D01*
X145980000Y-81439496D01*
X145980000Y-80999999D01*
X146033552Y-80999999D01*
X146689679Y-81656126D01*
X146729999Y-81453418D01*
X146730000Y-81453415D01*
X146730000Y-80546584D01*
X146729999Y-80546581D01*
X146729999Y-80546579D01*
X153270000Y-80546579D01*
X153270000Y-81453420D01*
X153310319Y-81656126D01*
X153966446Y-80999999D01*
X153310319Y-80343872D01*
X153270000Y-80546579D01*
X146729999Y-80546579D01*
X146689679Y-80343872D01*
X146033552Y-80999999D01*
X145980000Y-80999999D01*
X145980000Y-80560504D01*
X145959556Y-80484204D01*
X145920060Y-80415795D01*
X145915355Y-80411090D01*
X146420685Y-79905761D01*
X146420684Y-79905760D01*
X153579313Y-79905760D01*
X154084644Y-80411091D01*
X154079940Y-80415795D01*
X154040444Y-80484204D01*
X154020000Y-80560504D01*
X154020000Y-81439496D01*
X154040444Y-81515796D01*
X154079940Y-81584205D01*
X154084643Y-81588908D01*
X153579314Y-82094238D01*
X153650670Y-82165594D01*
X153822625Y-82280491D01*
X153822639Y-82280498D01*
X154013727Y-82359650D01*
X154216581Y-82399999D01*
X154216586Y-82400000D01*
X154423414Y-82400000D01*
X154423418Y-82399999D01*
X154626272Y-82359650D01*
X154817360Y-82280498D01*
X154817369Y-82280494D01*
X154989332Y-82165590D01*
X154989341Y-82165583D01*
X155060685Y-82094238D01*
X154555356Y-81588909D01*
X154560060Y-81584205D01*
X154599556Y-81515796D01*
X154620000Y-81439496D01*
X154620000Y-80999999D01*
X154673552Y-80999999D01*
X155329679Y-81656126D01*
X155369999Y-81453418D01*
X155370000Y-81453415D01*
X155370000Y-80546584D01*
X155369999Y-80546581D01*
X155329679Y-80343872D01*
X154673552Y-80999999D01*
X154620000Y-80999999D01*
X154620000Y-80560504D01*
X154599556Y-80484204D01*
X154560060Y-80415795D01*
X154555355Y-80411090D01*
X155060685Y-79905761D01*
X154989329Y-79834405D01*
X154817374Y-79719508D01*
X154817355Y-79719498D01*
X154810967Y-79716852D01*
X154810965Y-79716852D01*
X154626272Y-79640349D01*
X154575515Y-79630253D01*
X157839500Y-79630253D01*
X157839500Y-81369746D01*
X157839501Y-81369758D01*
X157851132Y-81428227D01*
X157851134Y-81428233D01*
X157867964Y-81453420D01*
X157895448Y-81494552D01*
X157961769Y-81538867D01*
X158006231Y-81547711D01*
X158020241Y-81550498D01*
X158020246Y-81550498D01*
X158020252Y-81550500D01*
X158020253Y-81550500D01*
X159759747Y-81550500D01*
X159759748Y-81550500D01*
X159818231Y-81538867D01*
X159884552Y-81494552D01*
X159928867Y-81428231D01*
X159940500Y-81369748D01*
X159940500Y-79630252D01*
X159928867Y-79571769D01*
X159884552Y-79505448D01*
X159884548Y-79505445D01*
X159818233Y-79461134D01*
X159818231Y-79461133D01*
X159818228Y-79461132D01*
X159818227Y-79461132D01*
X159759758Y-79449501D01*
X159759748Y-79449500D01*
X158020252Y-79449500D01*
X158020251Y-79449500D01*
X158020241Y-79449501D01*
X157961772Y-79461132D01*
X157961766Y-79461134D01*
X157895451Y-79505445D01*
X157895445Y-79505451D01*
X157851134Y-79571766D01*
X157851132Y-79571772D01*
X157839501Y-79630241D01*
X157839500Y-79630253D01*
X154575515Y-79630253D01*
X154423418Y-79600000D01*
X154216581Y-79600000D01*
X154013727Y-79640349D01*
X153822639Y-79719501D01*
X153822625Y-79719508D01*
X153650668Y-79834406D01*
X153650666Y-79834408D01*
X153579313Y-79905760D01*
X146420684Y-79905760D01*
X146349329Y-79834405D01*
X146177374Y-79719508D01*
X146177360Y-79719501D01*
X145986272Y-79640349D01*
X145783418Y-79600000D01*
X145576581Y-79600000D01*
X145373727Y-79640349D01*
X145182639Y-79719501D01*
X145182625Y-79719508D01*
X145010668Y-79834406D01*
X145010666Y-79834408D01*
X144939313Y-79905760D01*
X142160500Y-79905760D01*
X142160500Y-79630252D01*
X142148867Y-79571769D01*
X142104552Y-79505448D01*
X142104548Y-79505445D01*
X142038233Y-79461134D01*
X142038231Y-79461133D01*
X142038228Y-79461132D01*
X142038227Y-79461132D01*
X141979758Y-79449501D01*
X141979748Y-79449500D01*
X140240252Y-79449500D01*
X140240251Y-79449500D01*
X140240241Y-79449501D01*
X140181772Y-79461132D01*
X140181766Y-79461134D01*
X140115451Y-79505445D01*
X140115445Y-79505451D01*
X140071134Y-79571766D01*
X140071132Y-79571772D01*
X140059501Y-79630241D01*
X140059500Y-79630253D01*
X139750000Y-79630253D01*
X139750000Y-79349000D01*
X139768907Y-79290809D01*
X139818407Y-79254845D01*
X139849000Y-79250000D01*
X160151000Y-79250000D01*
X160209191Y-79268907D01*
G37*
%TD.AperFunction*%
%TD*%
M02*
