M48
; DRILL file {KiCad 9.0.0} date 2025-05-15T12:25:07+0900
; FORMAT={-:-/ absolute / metric / decimal}
; #@! TF.CreationDate,2025-05-15T12:25:07+09:00
; #@! TF.GenerationSoftware,Kicad,Pcbnew,9.0.0
; #@! TF.FileFunction,MixedPlating,1,2
FMAT,2
METRIC
; #@! TA.AperFunction,Plated,PTH,ViaDrill
T1C0.200
; #@! TA.AperFunction,Plated,PTH,ViaDrill
T2C0.300
; #@! TA.AperFunction,Plated,PTH,ComponentDrill
T3C0.600
; #@! TA.AperFunction,Plated,PTH,ComponentDrill
T4C1.000
; #@! TA.AperFunction,NonPlated,NPTH,ComponentDrill
T5C2.200
%
G90
G05
T1
X142.15Y-107.9
X142.25Y-100.55
X142.25Y-106.15
X142.5Y-101.65
X143.1Y-107.85
X144.0Y-108.0
X144.256Y-101.506
X144.475Y-95.779
X144.475Y-92.45
X144.5Y-97.6
X144.75Y-89.2
X144.894Y-93.6
X145.45Y-103.7
X145.465Y-96.95
X145.486Y-94.464
X145.507Y-90.525
X145.6Y-96.35
X145.641Y-98.888
X145.641Y-99.688
X145.641Y-100.488
X145.641Y-102.487
X146.0Y-107.8
X146.305Y-95.921
X146.329Y-90.397
X146.65Y-94.63
X146.65Y-106.3
X146.825Y-115.025
X147.048Y-95.969
X147.5Y-109.25
X147.75Y-96.05
X147.935Y-92.528
X148.173Y-91.695
X148.25Y-97.879
X148.3Y-85.6
X148.65Y-90.2
X148.661Y-96.061
X148.85Y-86.65
X149.05Y-109.1
X149.1Y-108.4
X149.173Y-103.198
X149.35Y-94.0
X149.45Y-93.35
X149.45Y-95.9
X149.5Y-105.0
X149.6Y-98.125
X149.6Y-107.95
X149.65Y-89.95
X149.725Y-110.525
X149.8Y-103.15
X149.9Y-87.1
X150.0Y-93.05
X150.1Y-88.8
X150.1Y-89.7
X150.1Y-96.25
X150.2Y-92.6
X150.25Y-103.496
X150.65Y-93.1
X150.7Y-109.65
X150.95Y-102.2
X151.05Y-103.35
X151.099Y-93.703
X151.175Y-101.212
X151.259Y-98.887
X151.259Y-99.687
X151.259Y-100.487
X151.45Y-103.75
X151.538Y-97.612
X151.6Y-95.95
X151.65Y-96.8
X152.35Y-103.7
X152.4Y-87.85
X152.516Y-99.287
X152.52Y-100.89
X152.55Y-97.6
X152.7Y-109.65
X152.9Y-90.3
X153.197Y-111.295
X153.25Y-92.05
X153.25Y-112.75
X153.35Y-106.9
X153.55Y-100.415
X153.6Y-109.65
X153.65Y-104.65
X153.7Y-107.7
X153.85Y-102.4
X154.036Y-103.014
X154.25Y-91.65
X154.61Y-102.875
X154.759Y-91.15
X155.1Y-87.2
X155.1Y-99.7
X155.1Y-106.9
X155.2Y-98.45
X155.3Y-87.645
X155.3Y-105.45
X156.625Y-98.75
X157.051Y-96.823
X157.4Y-103.301
X157.4Y-116.5
X157.7Y-85.65
X157.7Y-86.15
T2
X147.5Y-83.0
X148.0Y-88.07
X148.25Y-84.5
X148.25Y-86.75
X153.041Y-86.1
X154.25Y-87.5
X157.25Y-85.25
T4
X141.11Y-80.5
X141.11Y-83.04
X141.11Y-85.58
X141.11Y-88.12
X141.11Y-90.66
X141.11Y-93.2
X141.11Y-95.74
X141.11Y-98.28
X141.11Y-100.82
X141.11Y-103.36
X141.11Y-105.9
X141.11Y-108.44
X141.11Y-110.98
X141.11Y-113.52
X141.11Y-116.06
X141.11Y-118.6
X158.89Y-80.5
X158.89Y-83.04
X158.89Y-85.58
X158.89Y-88.12
X158.89Y-90.66
X158.89Y-93.2
X158.89Y-95.74
X158.89Y-98.28
X158.89Y-100.82
X158.89Y-103.36
X158.89Y-105.9
X158.89Y-108.44
X158.89Y-110.98
X158.89Y-113.52
X158.89Y-116.06
X158.89Y-118.6
T5
X134.75Y-85.75
X134.75Y-100.0
X134.75Y-112.75
X150.25Y-123.0
X165.5Y-86.0
X165.5Y-100.25
X165.5Y-114.0
T3
G00X145.68Y-80.6
M15
G01X145.68Y-81.4
M16
G05
G00X145.68Y-84.54
M15
G01X145.68Y-85.64
M16
G05
G00X154.32Y-80.6
M15
G01X154.32Y-81.4
M16
G05
G00X154.32Y-84.54
M15
G01X154.32Y-85.64
M16
G05
M30
