%TF.GenerationSoftware,KiCad,Pcbnew,9.0.0*%
%TF.CreationDate,2025-05-15T12:24:39+09:00*%
%TF.ProjectId,Raspberry Pi Pico(Designed By TORICA),52617370-6265-4727-9279-205069205069,rev?*%
%TF.SameCoordinates,Original*%
%TF.FileFunction,Legend,Bot*%
%TF.FilePolarity,Positive*%
%FSLAX46Y46*%
G04 Gerber Fmt 4.6, Leading zero omitted, Abs format (unit mm)*
G04 Created by KiCad (PCBNEW 9.0.0) date 2025-05-15 12:24:39*
%MOMM*%
%LPD*%
G01*
G04 APERTURE LIST*
%ADD10C,0.153000*%
%ADD11C,0.500000*%
%ADD12C,0.100000*%
%ADD13C,0.120000*%
%ADD14C,0.000000*%
G04 APERTURE END LIST*
D10*
X142643853Y-90639013D02*
X143115258Y-91110417D01*
X142542838Y-90201280D02*
X143216273Y-90537997D01*
X143216273Y-90537997D02*
X142778540Y-90975730D01*
X157297914Y-116307761D02*
X157701975Y-115903700D01*
X157499945Y-116105730D02*
X156792838Y-115398623D01*
X156792838Y-115398623D02*
X156961197Y-115432295D01*
X156961197Y-115432295D02*
X157095884Y-115432295D01*
X157095884Y-115432295D02*
X157196899Y-115398623D01*
X155951044Y-116240417D02*
X156287762Y-115903700D01*
X156287762Y-115903700D02*
X156658151Y-116206745D01*
X156658151Y-116206745D02*
X156590807Y-116206745D01*
X156590807Y-116206745D02*
X156489792Y-116240417D01*
X156489792Y-116240417D02*
X156321433Y-116408776D01*
X156321433Y-116408776D02*
X156287762Y-116509791D01*
X156287762Y-116509791D02*
X156287762Y-116577135D01*
X156287762Y-116577135D02*
X156321433Y-116678150D01*
X156321433Y-116678150D02*
X156489792Y-116846509D01*
X156489792Y-116846509D02*
X156590807Y-116880180D01*
X156590807Y-116880180D02*
X156658151Y-116880180D01*
X156658151Y-116880180D02*
X156759166Y-116846509D01*
X156759166Y-116846509D02*
X156927525Y-116678150D01*
X156927525Y-116678150D02*
X156961197Y-116577135D01*
X156961197Y-116577135D02*
X156961197Y-116509791D01*
X157062212Y-82339249D02*
X157533616Y-83282058D01*
X157533616Y-83282058D02*
X156590807Y-82810654D01*
X157062212Y-83686119D02*
X156994868Y-83820806D01*
X156994868Y-83820806D02*
X156826509Y-83989165D01*
X156826509Y-83989165D02*
X156725494Y-84022837D01*
X156725494Y-84022837D02*
X156658151Y-84022837D01*
X156658151Y-84022837D02*
X156557135Y-83989165D01*
X156557135Y-83989165D02*
X156489792Y-83921822D01*
X156489792Y-83921822D02*
X156456120Y-83820806D01*
X156456120Y-83820806D02*
X156456120Y-83753463D01*
X156456120Y-83753463D02*
X156489792Y-83652448D01*
X156489792Y-83652448D02*
X156590807Y-83484089D01*
X156590807Y-83484089D02*
X156624479Y-83383074D01*
X156624479Y-83383074D02*
X156624479Y-83315730D01*
X156624479Y-83315730D02*
X156590807Y-83214715D01*
X156590807Y-83214715D02*
X156523464Y-83147371D01*
X156523464Y-83147371D02*
X156422448Y-83113700D01*
X156422448Y-83113700D02*
X156355105Y-83113700D01*
X156355105Y-83113700D02*
X156254090Y-83147371D01*
X156254090Y-83147371D02*
X156085731Y-83315730D01*
X156085731Y-83315730D02*
X156018387Y-83450417D01*
X155268390Y-87798234D02*
X155363628Y-87750615D01*
X155363628Y-87750615D02*
X155411247Y-87702996D01*
X155411247Y-87702996D02*
X155458866Y-87607758D01*
X155458866Y-87607758D02*
X155458866Y-87560139D01*
X155458866Y-87560139D02*
X155411247Y-87464901D01*
X155411247Y-87464901D02*
X155363628Y-87417282D01*
X155363628Y-87417282D02*
X155268390Y-87369663D01*
X155268390Y-87369663D02*
X155077914Y-87369663D01*
X155077914Y-87369663D02*
X154982676Y-87417282D01*
X154982676Y-87417282D02*
X154935057Y-87464901D01*
X154935057Y-87464901D02*
X154887438Y-87560139D01*
X154887438Y-87560139D02*
X154887438Y-87607758D01*
X154887438Y-87607758D02*
X154935057Y-87702996D01*
X154935057Y-87702996D02*
X154982676Y-87750615D01*
X154982676Y-87750615D02*
X155077914Y-87798234D01*
X155077914Y-87798234D02*
X155268390Y-87798234D01*
X155268390Y-87798234D02*
X155363628Y-87845853D01*
X155363628Y-87845853D02*
X155411247Y-87893472D01*
X155411247Y-87893472D02*
X155458866Y-87988710D01*
X155458866Y-87988710D02*
X155458866Y-88179186D01*
X155458866Y-88179186D02*
X155411247Y-88274424D01*
X155411247Y-88274424D02*
X155363628Y-88322044D01*
X155363628Y-88322044D02*
X155268390Y-88369663D01*
X155268390Y-88369663D02*
X155077914Y-88369663D01*
X155077914Y-88369663D02*
X154982676Y-88322044D01*
X154982676Y-88322044D02*
X154935057Y-88274424D01*
X154935057Y-88274424D02*
X154887438Y-88179186D01*
X154887438Y-88179186D02*
X154887438Y-87988710D01*
X154887438Y-87988710D02*
X154935057Y-87893472D01*
X154935057Y-87893472D02*
X154982676Y-87845853D01*
X154982676Y-87845853D02*
X155077914Y-87798234D01*
X157062212Y-100223936D02*
X156994868Y-100223936D01*
X156994868Y-100223936D02*
X156893853Y-100257608D01*
X156893853Y-100257608D02*
X156725494Y-100425967D01*
X156725494Y-100425967D02*
X156691823Y-100526982D01*
X156691823Y-100526982D02*
X156691823Y-100594326D01*
X156691823Y-100594326D02*
X156725494Y-100695341D01*
X156725494Y-100695341D02*
X156792838Y-100762684D01*
X156792838Y-100762684D02*
X156927525Y-100830028D01*
X156927525Y-100830028D02*
X157735647Y-100830028D01*
X157735647Y-100830028D02*
X157297914Y-101267761D01*
X156624479Y-101941196D02*
X157028540Y-101537135D01*
X156826510Y-101739165D02*
X156119403Y-101032058D01*
X156119403Y-101032058D02*
X156287762Y-101065730D01*
X156287762Y-101065730D02*
X156422449Y-101065730D01*
X156422449Y-101065730D02*
X156523464Y-101032058D01*
X157062212Y-97973936D02*
X156994868Y-97973936D01*
X156994868Y-97973936D02*
X156893853Y-98007608D01*
X156893853Y-98007608D02*
X156725494Y-98175967D01*
X156725494Y-98175967D02*
X156691823Y-98276982D01*
X156691823Y-98276982D02*
X156691823Y-98344326D01*
X156691823Y-98344326D02*
X156725494Y-98445341D01*
X156725494Y-98445341D02*
X156792838Y-98512684D01*
X156792838Y-98512684D02*
X156927525Y-98580028D01*
X156927525Y-98580028D02*
X157735647Y-98580028D01*
X157735647Y-98580028D02*
X157297914Y-99017761D01*
X156388777Y-98647371D02*
X156321433Y-98647371D01*
X156321433Y-98647371D02*
X156220418Y-98681043D01*
X156220418Y-98681043D02*
X156052059Y-98849402D01*
X156052059Y-98849402D02*
X156018387Y-98950417D01*
X156018387Y-98950417D02*
X156018387Y-99017761D01*
X156018387Y-99017761D02*
X156052059Y-99118776D01*
X156052059Y-99118776D02*
X156119403Y-99186119D01*
X156119403Y-99186119D02*
X156254090Y-99253463D01*
X156254090Y-99253463D02*
X157062212Y-99253463D01*
X157062212Y-99253463D02*
X156624479Y-99691196D01*
X143547914Y-108457761D02*
X143951975Y-108053700D01*
X143749945Y-108255730D02*
X143042838Y-107548623D01*
X143042838Y-107548623D02*
X143211197Y-107582295D01*
X143211197Y-107582295D02*
X143345884Y-107582295D01*
X143345884Y-107582295D02*
X143446899Y-107548623D01*
X142874479Y-109131196D02*
X143278540Y-108727135D01*
X143076510Y-108929165D02*
X142369403Y-108222058D01*
X142369403Y-108222058D02*
X142537762Y-108255730D01*
X142537762Y-108255730D02*
X142672449Y-108255730D01*
X142672449Y-108255730D02*
X142773464Y-108222058D01*
D11*
X173451327Y-118170666D02*
X176498947Y-118170666D01*
X175737042Y-118932571D02*
X176498947Y-118170666D01*
X176498947Y-118170666D02*
X175737042Y-117408761D01*
D10*
X142812212Y-85053936D02*
X142744868Y-85053936D01*
X142744868Y-85053936D02*
X142643853Y-85087608D01*
X142643853Y-85087608D02*
X142475494Y-85255967D01*
X142475494Y-85255967D02*
X142441823Y-85356982D01*
X142441823Y-85356982D02*
X142441823Y-85424326D01*
X142441823Y-85424326D02*
X142475494Y-85525341D01*
X142475494Y-85525341D02*
X142542838Y-85592684D01*
X142542838Y-85592684D02*
X142677525Y-85660028D01*
X142677525Y-85660028D02*
X143485647Y-85660028D01*
X143485647Y-85660028D02*
X143047914Y-86097761D01*
X157708866Y-87464901D02*
X157661247Y-87417282D01*
X157661247Y-87417282D02*
X157566009Y-87369663D01*
X157566009Y-87369663D02*
X157327914Y-87369663D01*
X157327914Y-87369663D02*
X157232676Y-87417282D01*
X157232676Y-87417282D02*
X157185057Y-87464901D01*
X157185057Y-87464901D02*
X157137438Y-87560139D01*
X157137438Y-87560139D02*
X157137438Y-87655377D01*
X157137438Y-87655377D02*
X157185057Y-87798234D01*
X157185057Y-87798234D02*
X157756485Y-88369663D01*
X157756485Y-88369663D02*
X157137438Y-88369663D01*
X157312212Y-95973936D02*
X157244868Y-95973936D01*
X157244868Y-95973936D02*
X157143853Y-96007608D01*
X157143853Y-96007608D02*
X156975494Y-96175967D01*
X156975494Y-96175967D02*
X156941823Y-96276982D01*
X156941823Y-96276982D02*
X156941823Y-96344326D01*
X156941823Y-96344326D02*
X156975494Y-96445341D01*
X156975494Y-96445341D02*
X157042838Y-96512684D01*
X157042838Y-96512684D02*
X157177525Y-96580028D01*
X157177525Y-96580028D02*
X157985647Y-96580028D01*
X157985647Y-96580028D02*
X157547914Y-97017761D01*
X156605105Y-96546356D02*
X156167372Y-96984089D01*
X156167372Y-96984089D02*
X156672449Y-97017761D01*
X156672449Y-97017761D02*
X156571433Y-97118776D01*
X156571433Y-97118776D02*
X156537762Y-97219791D01*
X156537762Y-97219791D02*
X156537762Y-97287135D01*
X156537762Y-97287135D02*
X156571433Y-97388150D01*
X156571433Y-97388150D02*
X156739792Y-97556509D01*
X156739792Y-97556509D02*
X156840807Y-97590180D01*
X156840807Y-97590180D02*
X156908151Y-97590180D01*
X156908151Y-97590180D02*
X157009166Y-97556509D01*
X157009166Y-97556509D02*
X157211197Y-97354478D01*
X157211197Y-97354478D02*
X157244868Y-97253463D01*
X157244868Y-97253463D02*
X157244868Y-97186119D01*
X142778540Y-87492921D02*
X142340807Y-87930654D01*
X142340807Y-87930654D02*
X142845884Y-87964326D01*
X142845884Y-87964326D02*
X142744868Y-88065341D01*
X142744868Y-88065341D02*
X142711197Y-88166356D01*
X142711197Y-88166356D02*
X142711197Y-88233700D01*
X142711197Y-88233700D02*
X142744868Y-88334715D01*
X142744868Y-88334715D02*
X142913227Y-88503074D01*
X142913227Y-88503074D02*
X143014242Y-88536745D01*
X143014242Y-88536745D02*
X143081586Y-88536745D01*
X143081586Y-88536745D02*
X143182601Y-88503074D01*
X143182601Y-88503074D02*
X143384632Y-88301043D01*
X143384632Y-88301043D02*
X143418303Y-88200028D01*
X143418303Y-88200028D02*
X143418303Y-88132684D01*
X157297914Y-106767761D02*
X157701975Y-106363700D01*
X157499945Y-106565730D02*
X156792838Y-105858623D01*
X156792838Y-105858623D02*
X156961197Y-105892295D01*
X156961197Y-105892295D02*
X157095884Y-105892295D01*
X157095884Y-105892295D02*
X157196899Y-105858623D01*
X156961197Y-107104478D02*
X156826510Y-107239165D01*
X156826510Y-107239165D02*
X156725494Y-107272837D01*
X156725494Y-107272837D02*
X156658151Y-107272837D01*
X156658151Y-107272837D02*
X156489792Y-107239165D01*
X156489792Y-107239165D02*
X156321433Y-107138150D01*
X156321433Y-107138150D02*
X156052059Y-106868776D01*
X156052059Y-106868776D02*
X156018387Y-106767761D01*
X156018387Y-106767761D02*
X156018387Y-106700417D01*
X156018387Y-106700417D02*
X156052059Y-106599402D01*
X156052059Y-106599402D02*
X156186746Y-106464715D01*
X156186746Y-106464715D02*
X156287762Y-106431043D01*
X156287762Y-106431043D02*
X156355105Y-106431043D01*
X156355105Y-106431043D02*
X156456120Y-106464715D01*
X156456120Y-106464715D02*
X156624479Y-106633074D01*
X156624479Y-106633074D02*
X156658151Y-106734089D01*
X156658151Y-106734089D02*
X156658151Y-106801432D01*
X156658151Y-106801432D02*
X156624479Y-106902448D01*
X156624479Y-106902448D02*
X156489792Y-107037135D01*
X156489792Y-107037135D02*
X156388777Y-107070806D01*
X156388777Y-107070806D02*
X156321433Y-107070806D01*
X156321433Y-107070806D02*
X156220418Y-107037135D01*
X146595853Y-93172085D02*
X146643472Y-93314942D01*
X146643472Y-93314942D02*
X146691091Y-93362561D01*
X146691091Y-93362561D02*
X146786329Y-93410180D01*
X146786329Y-93410180D02*
X146929186Y-93410180D01*
X146929186Y-93410180D02*
X147024424Y-93362561D01*
X147024424Y-93362561D02*
X147072044Y-93314942D01*
X147072044Y-93314942D02*
X147119663Y-93219704D01*
X147119663Y-93219704D02*
X147119663Y-92838752D01*
X147119663Y-92838752D02*
X146119663Y-92838752D01*
X146119663Y-92838752D02*
X146119663Y-93172085D01*
X146119663Y-93172085D02*
X146167282Y-93267323D01*
X146167282Y-93267323D02*
X146214901Y-93314942D01*
X146214901Y-93314942D02*
X146310139Y-93362561D01*
X146310139Y-93362561D02*
X146405377Y-93362561D01*
X146405377Y-93362561D02*
X146500615Y-93314942D01*
X146500615Y-93314942D02*
X146548234Y-93267323D01*
X146548234Y-93267323D02*
X146595853Y-93172085D01*
X146595853Y-93172085D02*
X146595853Y-92838752D01*
X157062212Y-102473936D02*
X156994868Y-102473936D01*
X156994868Y-102473936D02*
X156893853Y-102507608D01*
X156893853Y-102507608D02*
X156725494Y-102675967D01*
X156725494Y-102675967D02*
X156691823Y-102776982D01*
X156691823Y-102776982D02*
X156691823Y-102844326D01*
X156691823Y-102844326D02*
X156725494Y-102945341D01*
X156725494Y-102945341D02*
X156792838Y-103012684D01*
X156792838Y-103012684D02*
X156927525Y-103080028D01*
X156927525Y-103080028D02*
X157735647Y-103080028D01*
X157735647Y-103080028D02*
X157297914Y-103517761D01*
X156153075Y-103248387D02*
X156085731Y-103315730D01*
X156085731Y-103315730D02*
X156052059Y-103416745D01*
X156052059Y-103416745D02*
X156052059Y-103484089D01*
X156052059Y-103484089D02*
X156085731Y-103585104D01*
X156085731Y-103585104D02*
X156186746Y-103753463D01*
X156186746Y-103753463D02*
X156355105Y-103921822D01*
X156355105Y-103921822D02*
X156523464Y-104022837D01*
X156523464Y-104022837D02*
X156624479Y-104056509D01*
X156624479Y-104056509D02*
X156691823Y-104056509D01*
X156691823Y-104056509D02*
X156792838Y-104022837D01*
X156792838Y-104022837D02*
X156860181Y-103955493D01*
X156860181Y-103955493D02*
X156893853Y-103854478D01*
X156893853Y-103854478D02*
X156893853Y-103787135D01*
X156893853Y-103787135D02*
X156860181Y-103686119D01*
X156860181Y-103686119D02*
X156759166Y-103517761D01*
X156759166Y-103517761D02*
X156590807Y-103349402D01*
X156590807Y-103349402D02*
X156422449Y-103248387D01*
X156422449Y-103248387D02*
X156321433Y-103214715D01*
X156321433Y-103214715D02*
X156254090Y-103214715D01*
X156254090Y-103214715D02*
X156153075Y-103248387D01*
X157297914Y-111227761D02*
X157701975Y-110823700D01*
X157499945Y-111025730D02*
X156792838Y-110318623D01*
X156792838Y-110318623D02*
X156961197Y-110352295D01*
X156961197Y-110352295D02*
X157095884Y-110352295D01*
X157095884Y-110352295D02*
X157196899Y-110318623D01*
X156355105Y-110756356D02*
X155883700Y-111227761D01*
X155883700Y-111227761D02*
X156893853Y-111631822D01*
X142778540Y-97652921D02*
X142307136Y-98124326D01*
X142307136Y-98124326D02*
X143317288Y-98528387D01*
X157062212Y-79839249D02*
X157533616Y-80782058D01*
X157533616Y-80782058D02*
X156590807Y-80310654D01*
X156456120Y-81118776D02*
X156388777Y-81253463D01*
X156388777Y-81253463D02*
X156388777Y-81320806D01*
X156388777Y-81320806D02*
X156422448Y-81421822D01*
X156422448Y-81421822D02*
X156523464Y-81522837D01*
X156523464Y-81522837D02*
X156624479Y-81556509D01*
X156624479Y-81556509D02*
X156691822Y-81556509D01*
X156691822Y-81556509D02*
X156792838Y-81522837D01*
X156792838Y-81522837D02*
X157062212Y-81253463D01*
X157062212Y-81253463D02*
X156355105Y-80546356D01*
X156355105Y-80546356D02*
X156119403Y-80782058D01*
X156119403Y-80782058D02*
X156085731Y-80883074D01*
X156085731Y-80883074D02*
X156085731Y-80950417D01*
X156085731Y-80950417D02*
X156119403Y-81051432D01*
X156119403Y-81051432D02*
X156186746Y-81118776D01*
X156186746Y-81118776D02*
X156287761Y-81152448D01*
X156287761Y-81152448D02*
X156355105Y-81152448D01*
X156355105Y-81152448D02*
X156456120Y-81118776D01*
X156456120Y-81118776D02*
X156691822Y-80883074D01*
X143547914Y-113517761D02*
X143951975Y-113113700D01*
X143749945Y-113315730D02*
X143042838Y-112608623D01*
X143042838Y-112608623D02*
X143211197Y-112642295D01*
X143211197Y-112642295D02*
X143345884Y-112642295D01*
X143345884Y-112642295D02*
X143446899Y-112608623D01*
X142605105Y-113046356D02*
X142167372Y-113484089D01*
X142167372Y-113484089D02*
X142672449Y-113517761D01*
X142672449Y-113517761D02*
X142571433Y-113618776D01*
X142571433Y-113618776D02*
X142537762Y-113719791D01*
X142537762Y-113719791D02*
X142537762Y-113787135D01*
X142537762Y-113787135D02*
X142571433Y-113888150D01*
X142571433Y-113888150D02*
X142739792Y-114056509D01*
X142739792Y-114056509D02*
X142840807Y-114090180D01*
X142840807Y-114090180D02*
X142908151Y-114090180D01*
X142908151Y-114090180D02*
X143009166Y-114056509D01*
X143009166Y-114056509D02*
X143211197Y-113854478D01*
X143211197Y-113854478D02*
X143244868Y-113753463D01*
X143244868Y-113753463D02*
X143244868Y-113686119D01*
X143624479Y-117844326D02*
X143658151Y-117743310D01*
X143658151Y-117743310D02*
X143759166Y-117642295D01*
X143759166Y-117642295D02*
X143893853Y-117574952D01*
X143893853Y-117574952D02*
X144028540Y-117574952D01*
X144028540Y-117574952D02*
X144129555Y-117608623D01*
X144129555Y-117608623D02*
X144297914Y-117709639D01*
X144297914Y-117709639D02*
X144398929Y-117810654D01*
X144398929Y-117810654D02*
X144499945Y-117979013D01*
X144499945Y-117979013D02*
X144533616Y-118080028D01*
X144533616Y-118080028D02*
X144533616Y-118214715D01*
X144533616Y-118214715D02*
X144466273Y-118349402D01*
X144466273Y-118349402D02*
X144398929Y-118416745D01*
X144398929Y-118416745D02*
X144264242Y-118484089D01*
X144264242Y-118484089D02*
X144196899Y-118484089D01*
X144196899Y-118484089D02*
X143961197Y-118248387D01*
X143961197Y-118248387D02*
X144095884Y-118113700D01*
X143961197Y-118854478D02*
X143254090Y-118147371D01*
X143254090Y-118147371D02*
X143557136Y-119258539D01*
X143557136Y-119258539D02*
X142850029Y-118551432D01*
X143220418Y-119595257D02*
X142513311Y-118888150D01*
X142513311Y-118888150D02*
X142344953Y-119056509D01*
X142344953Y-119056509D02*
X142277609Y-119191196D01*
X142277609Y-119191196D02*
X142277609Y-119325883D01*
X142277609Y-119325883D02*
X142311281Y-119426898D01*
X142311281Y-119426898D02*
X142412296Y-119595257D01*
X142412296Y-119595257D02*
X142513311Y-119696272D01*
X142513311Y-119696272D02*
X142681670Y-119797287D01*
X142681670Y-119797287D02*
X142782685Y-119830959D01*
X142782685Y-119830959D02*
X142917372Y-119830959D01*
X142917372Y-119830959D02*
X143052059Y-119763615D01*
X143052059Y-119763615D02*
X143220418Y-119595257D01*
X143384632Y-103541043D02*
X143249945Y-103675730D01*
X143249945Y-103675730D02*
X143148929Y-103709402D01*
X143148929Y-103709402D02*
X143081586Y-103709402D01*
X143081586Y-103709402D02*
X142913227Y-103675730D01*
X142913227Y-103675730D02*
X142744868Y-103574715D01*
X142744868Y-103574715D02*
X142475494Y-103305341D01*
X142475494Y-103305341D02*
X142441823Y-103204326D01*
X142441823Y-103204326D02*
X142441823Y-103136982D01*
X142441823Y-103136982D02*
X142475494Y-103035967D01*
X142475494Y-103035967D02*
X142610181Y-102901280D01*
X142610181Y-102901280D02*
X142711197Y-102867608D01*
X142711197Y-102867608D02*
X142778540Y-102867608D01*
X142778540Y-102867608D02*
X142879555Y-102901280D01*
X142879555Y-102901280D02*
X143047914Y-103069639D01*
X143047914Y-103069639D02*
X143081586Y-103170654D01*
X143081586Y-103170654D02*
X143081586Y-103237997D01*
X143081586Y-103237997D02*
X143047914Y-103339013D01*
X143047914Y-103339013D02*
X142913227Y-103473700D01*
X142913227Y-103473700D02*
X142812212Y-103507371D01*
X142812212Y-103507371D02*
X142744868Y-103507371D01*
X142744868Y-103507371D02*
X142643853Y-103473700D01*
X142576510Y-80074952D02*
X142509166Y-80142295D01*
X142509166Y-80142295D02*
X142475494Y-80243310D01*
X142475494Y-80243310D02*
X142475494Y-80310654D01*
X142475494Y-80310654D02*
X142509166Y-80411669D01*
X142509166Y-80411669D02*
X142610181Y-80580028D01*
X142610181Y-80580028D02*
X142778540Y-80748387D01*
X142778540Y-80748387D02*
X142946899Y-80849402D01*
X142946899Y-80849402D02*
X143047914Y-80883074D01*
X143047914Y-80883074D02*
X143115258Y-80883074D01*
X143115258Y-80883074D02*
X143216273Y-80849402D01*
X143216273Y-80849402D02*
X143283616Y-80782058D01*
X143283616Y-80782058D02*
X143317288Y-80681043D01*
X143317288Y-80681043D02*
X143317288Y-80613700D01*
X143317288Y-80613700D02*
X143283616Y-80512684D01*
X143283616Y-80512684D02*
X143182601Y-80344326D01*
X143182601Y-80344326D02*
X143014242Y-80175967D01*
X143014242Y-80175967D02*
X142845884Y-80074952D01*
X142845884Y-80074952D02*
X142744868Y-80041280D01*
X142744868Y-80041280D02*
X142677525Y-80041280D01*
X142677525Y-80041280D02*
X142576510Y-80074952D01*
X142913227Y-100664326D02*
X142946899Y-100563310D01*
X142946899Y-100563310D02*
X142946899Y-100495967D01*
X142946899Y-100495967D02*
X142913227Y-100394952D01*
X142913227Y-100394952D02*
X142879555Y-100361280D01*
X142879555Y-100361280D02*
X142778540Y-100327608D01*
X142778540Y-100327608D02*
X142711197Y-100327608D01*
X142711197Y-100327608D02*
X142610181Y-100361280D01*
X142610181Y-100361280D02*
X142475494Y-100495967D01*
X142475494Y-100495967D02*
X142441823Y-100596982D01*
X142441823Y-100596982D02*
X142441823Y-100664326D01*
X142441823Y-100664326D02*
X142475494Y-100765341D01*
X142475494Y-100765341D02*
X142509166Y-100799013D01*
X142509166Y-100799013D02*
X142610181Y-100832684D01*
X142610181Y-100832684D02*
X142677525Y-100832684D01*
X142677525Y-100832684D02*
X142778540Y-100799013D01*
X142778540Y-100799013D02*
X142913227Y-100664326D01*
X142913227Y-100664326D02*
X143014242Y-100630654D01*
X143014242Y-100630654D02*
X143081586Y-100630654D01*
X143081586Y-100630654D02*
X143182601Y-100664326D01*
X143182601Y-100664326D02*
X143317288Y-100799013D01*
X143317288Y-100799013D02*
X143350960Y-100900028D01*
X143350960Y-100900028D02*
X143350960Y-100967371D01*
X143350960Y-100967371D02*
X143317288Y-101068387D01*
X143317288Y-101068387D02*
X143182601Y-101203074D01*
X143182601Y-101203074D02*
X143081586Y-101236745D01*
X143081586Y-101236745D02*
X143014242Y-101236745D01*
X143014242Y-101236745D02*
X142913227Y-101203074D01*
X142913227Y-101203074D02*
X142778540Y-101068387D01*
X142778540Y-101068387D02*
X142744868Y-100967371D01*
X142744868Y-100967371D02*
X142744868Y-100900028D01*
X142744868Y-100900028D02*
X142778540Y-100799013D01*
X157028540Y-84452921D02*
X156590807Y-84890654D01*
X156590807Y-84890654D02*
X157095884Y-84924326D01*
X157095884Y-84924326D02*
X156994868Y-85025341D01*
X156994868Y-85025341D02*
X156961197Y-85126356D01*
X156961197Y-85126356D02*
X156961197Y-85193700D01*
X156961197Y-85193700D02*
X156994868Y-85294715D01*
X156994868Y-85294715D02*
X157163227Y-85463074D01*
X157163227Y-85463074D02*
X157264242Y-85496745D01*
X157264242Y-85496745D02*
X157331586Y-85496745D01*
X157331586Y-85496745D02*
X157432601Y-85463074D01*
X157432601Y-85463074D02*
X157634632Y-85261043D01*
X157634632Y-85261043D02*
X157668303Y-85160028D01*
X157668303Y-85160028D02*
X157668303Y-85092684D01*
X156388777Y-85092684D02*
X156860181Y-86035493D01*
X156860181Y-86035493D02*
X155917372Y-85564089D01*
X143547914Y-116077761D02*
X143951975Y-115673700D01*
X143749945Y-115875730D02*
X143042838Y-115168623D01*
X143042838Y-115168623D02*
X143211197Y-115202295D01*
X143211197Y-115202295D02*
X143345884Y-115202295D01*
X143345884Y-115202295D02*
X143446899Y-115168623D01*
X142470418Y-116212448D02*
X142941823Y-116683852D01*
X142369403Y-115774715D02*
X143042838Y-116111432D01*
X143042838Y-116111432D02*
X142605105Y-116549165D01*
X143547914Y-105917761D02*
X143951975Y-105513700D01*
X143749945Y-105715730D02*
X143042838Y-105008623D01*
X143042838Y-105008623D02*
X143211197Y-105042295D01*
X143211197Y-105042295D02*
X143345884Y-105042295D01*
X143345884Y-105042295D02*
X143446899Y-105008623D01*
X142403075Y-105648387D02*
X142335731Y-105715730D01*
X142335731Y-105715730D02*
X142302059Y-105816745D01*
X142302059Y-105816745D02*
X142302059Y-105884089D01*
X142302059Y-105884089D02*
X142335731Y-105985104D01*
X142335731Y-105985104D02*
X142436746Y-106153463D01*
X142436746Y-106153463D02*
X142605105Y-106321822D01*
X142605105Y-106321822D02*
X142773464Y-106422837D01*
X142773464Y-106422837D02*
X142874479Y-106456509D01*
X142874479Y-106456509D02*
X142941823Y-106456509D01*
X142941823Y-106456509D02*
X143042838Y-106422837D01*
X143042838Y-106422837D02*
X143110181Y-106355493D01*
X143110181Y-106355493D02*
X143143853Y-106254478D01*
X143143853Y-106254478D02*
X143143853Y-106187135D01*
X143143853Y-106187135D02*
X143110181Y-106086119D01*
X143110181Y-106086119D02*
X143009166Y-105917761D01*
X143009166Y-105917761D02*
X142840807Y-105749402D01*
X142840807Y-105749402D02*
X142672449Y-105648387D01*
X142672449Y-105648387D02*
X142571433Y-105614715D01*
X142571433Y-105614715D02*
X142504090Y-105614715D01*
X142504090Y-105614715D02*
X142403075Y-105648387D01*
X144963253Y-96964942D02*
X144963253Y-97650657D01*
X146163253Y-97307799D02*
X144963253Y-97307799D01*
X144963253Y-98279228D02*
X144963253Y-98507800D01*
X144963253Y-98507800D02*
X145020396Y-98622085D01*
X145020396Y-98622085D02*
X145134682Y-98736371D01*
X145134682Y-98736371D02*
X145363253Y-98793514D01*
X145363253Y-98793514D02*
X145763253Y-98793514D01*
X145763253Y-98793514D02*
X145991825Y-98736371D01*
X145991825Y-98736371D02*
X146106111Y-98622085D01*
X146106111Y-98622085D02*
X146163253Y-98507800D01*
X146163253Y-98507800D02*
X146163253Y-98279228D01*
X146163253Y-98279228D02*
X146106111Y-98164943D01*
X146106111Y-98164943D02*
X145991825Y-98050657D01*
X145991825Y-98050657D02*
X145763253Y-97993514D01*
X145763253Y-97993514D02*
X145363253Y-97993514D01*
X145363253Y-97993514D02*
X145134682Y-98050657D01*
X145134682Y-98050657D02*
X145020396Y-98164943D01*
X145020396Y-98164943D02*
X144963253Y-98279228D01*
X146163253Y-99993514D02*
X145591825Y-99593514D01*
X146163253Y-99307800D02*
X144963253Y-99307800D01*
X144963253Y-99307800D02*
X144963253Y-99764943D01*
X144963253Y-99764943D02*
X145020396Y-99879228D01*
X145020396Y-99879228D02*
X145077539Y-99936371D01*
X145077539Y-99936371D02*
X145191825Y-99993514D01*
X145191825Y-99993514D02*
X145363253Y-99993514D01*
X145363253Y-99993514D02*
X145477539Y-99936371D01*
X145477539Y-99936371D02*
X145534682Y-99879228D01*
X145534682Y-99879228D02*
X145591825Y-99764943D01*
X145591825Y-99764943D02*
X145591825Y-99307800D01*
X146163253Y-100507800D02*
X144963253Y-100507800D01*
X146048968Y-101764943D02*
X146106111Y-101707800D01*
X146106111Y-101707800D02*
X146163253Y-101536372D01*
X146163253Y-101536372D02*
X146163253Y-101422086D01*
X146163253Y-101422086D02*
X146106111Y-101250657D01*
X146106111Y-101250657D02*
X145991825Y-101136372D01*
X145991825Y-101136372D02*
X145877539Y-101079229D01*
X145877539Y-101079229D02*
X145648968Y-101022086D01*
X145648968Y-101022086D02*
X145477539Y-101022086D01*
X145477539Y-101022086D02*
X145248968Y-101079229D01*
X145248968Y-101079229D02*
X145134682Y-101136372D01*
X145134682Y-101136372D02*
X145020396Y-101250657D01*
X145020396Y-101250657D02*
X144963253Y-101422086D01*
X144963253Y-101422086D02*
X144963253Y-101536372D01*
X144963253Y-101536372D02*
X145020396Y-101707800D01*
X145020396Y-101707800D02*
X145077539Y-101764943D01*
X145820396Y-102222086D02*
X145820396Y-102793515D01*
X146163253Y-102107800D02*
X144963253Y-102507800D01*
X144963253Y-102507800D02*
X146163253Y-102907800D01*
X146163253Y-103307800D02*
X144963253Y-103307800D01*
X145420396Y-103307800D02*
X145363253Y-103422086D01*
X145363253Y-103422086D02*
X145363253Y-103650657D01*
X145363253Y-103650657D02*
X145420396Y-103764943D01*
X145420396Y-103764943D02*
X145477539Y-103822086D01*
X145477539Y-103822086D02*
X145591825Y-103879228D01*
X145591825Y-103879228D02*
X145934682Y-103879228D01*
X145934682Y-103879228D02*
X146048968Y-103822086D01*
X146048968Y-103822086D02*
X146106111Y-103764943D01*
X146106111Y-103764943D02*
X146163253Y-103650657D01*
X146163253Y-103650657D02*
X146163253Y-103422086D01*
X146163253Y-103422086D02*
X146106111Y-103307800D01*
X146106111Y-104850657D02*
X146163253Y-104736371D01*
X146163253Y-104736371D02*
X146163253Y-104507800D01*
X146163253Y-104507800D02*
X146106111Y-104393514D01*
X146106111Y-104393514D02*
X145991825Y-104336371D01*
X145991825Y-104336371D02*
X145534682Y-104336371D01*
X145534682Y-104336371D02*
X145420396Y-104393514D01*
X145420396Y-104393514D02*
X145363253Y-104507800D01*
X145363253Y-104507800D02*
X145363253Y-104736371D01*
X145363253Y-104736371D02*
X145420396Y-104850657D01*
X145420396Y-104850657D02*
X145534682Y-104907800D01*
X145534682Y-104907800D02*
X145648968Y-104907800D01*
X145648968Y-104907800D02*
X145763253Y-104336371D01*
X146163253Y-105422085D02*
X145363253Y-105422085D01*
X145591825Y-105422085D02*
X145477539Y-105479228D01*
X145477539Y-105479228D02*
X145420396Y-105536371D01*
X145420396Y-105536371D02*
X145363253Y-105650656D01*
X145363253Y-105650656D02*
X145363253Y-105764942D01*
X146163253Y-106164942D02*
X145363253Y-106164942D01*
X145591825Y-106164942D02*
X145477539Y-106222085D01*
X145477539Y-106222085D02*
X145420396Y-106279228D01*
X145420396Y-106279228D02*
X145363253Y-106393513D01*
X145363253Y-106393513D02*
X145363253Y-106507799D01*
X145363253Y-106793513D02*
X146163253Y-107079227D01*
X145363253Y-107364942D02*
X146163253Y-107079227D01*
X146163253Y-107079227D02*
X146448968Y-106964942D01*
X146448968Y-106964942D02*
X146506111Y-106907799D01*
X146506111Y-106907799D02*
X146563253Y-106793513D01*
X146163253Y-108736371D02*
X144963253Y-108736371D01*
X144963253Y-108736371D02*
X144963253Y-109193514D01*
X144963253Y-109193514D02*
X145020396Y-109307799D01*
X145020396Y-109307799D02*
X145077539Y-109364942D01*
X145077539Y-109364942D02*
X145191825Y-109422085D01*
X145191825Y-109422085D02*
X145363253Y-109422085D01*
X145363253Y-109422085D02*
X145477539Y-109364942D01*
X145477539Y-109364942D02*
X145534682Y-109307799D01*
X145534682Y-109307799D02*
X145591825Y-109193514D01*
X145591825Y-109193514D02*
X145591825Y-108736371D01*
X146163253Y-109936371D02*
X145363253Y-109936371D01*
X144963253Y-109936371D02*
X145020396Y-109879228D01*
X145020396Y-109879228D02*
X145077539Y-109936371D01*
X145077539Y-109936371D02*
X145020396Y-109993514D01*
X145020396Y-109993514D02*
X144963253Y-109936371D01*
X144963253Y-109936371D02*
X145077539Y-109936371D01*
X145534682Y-111822086D02*
X145591825Y-111993514D01*
X145591825Y-111993514D02*
X145648968Y-112050657D01*
X145648968Y-112050657D02*
X145763253Y-112107800D01*
X145763253Y-112107800D02*
X145934682Y-112107800D01*
X145934682Y-112107800D02*
X146048968Y-112050657D01*
X146048968Y-112050657D02*
X146106111Y-111993514D01*
X146106111Y-111993514D02*
X146163253Y-111879229D01*
X146163253Y-111879229D02*
X146163253Y-111422086D01*
X146163253Y-111422086D02*
X144963253Y-111422086D01*
X144963253Y-111422086D02*
X144963253Y-111822086D01*
X144963253Y-111822086D02*
X145020396Y-111936372D01*
X145020396Y-111936372D02*
X145077539Y-111993514D01*
X145077539Y-111993514D02*
X145191825Y-112050657D01*
X145191825Y-112050657D02*
X145306111Y-112050657D01*
X145306111Y-112050657D02*
X145420396Y-111993514D01*
X145420396Y-111993514D02*
X145477539Y-111936372D01*
X145477539Y-111936372D02*
X145534682Y-111822086D01*
X145534682Y-111822086D02*
X145534682Y-111422086D01*
X146163253Y-112622086D02*
X145363253Y-112622086D01*
X144963253Y-112622086D02*
X145020396Y-112564943D01*
X145020396Y-112564943D02*
X145077539Y-112622086D01*
X145077539Y-112622086D02*
X145020396Y-112679229D01*
X145020396Y-112679229D02*
X144963253Y-112622086D01*
X144963253Y-112622086D02*
X145077539Y-112622086D01*
X146106111Y-113707801D02*
X146163253Y-113593515D01*
X146163253Y-113593515D02*
X146163253Y-113364943D01*
X146163253Y-113364943D02*
X146106111Y-113250658D01*
X146106111Y-113250658D02*
X146048968Y-113193515D01*
X146048968Y-113193515D02*
X145934682Y-113136372D01*
X145934682Y-113136372D02*
X145591825Y-113136372D01*
X145591825Y-113136372D02*
X145477539Y-113193515D01*
X145477539Y-113193515D02*
X145420396Y-113250658D01*
X145420396Y-113250658D02*
X145363253Y-113364943D01*
X145363253Y-113364943D02*
X145363253Y-113593515D01*
X145363253Y-113593515D02*
X145420396Y-113707801D01*
X146163253Y-114393514D02*
X146106111Y-114279229D01*
X146106111Y-114279229D02*
X146048968Y-114222086D01*
X146048968Y-114222086D02*
X145934682Y-114164943D01*
X145934682Y-114164943D02*
X145591825Y-114164943D01*
X145591825Y-114164943D02*
X145477539Y-114222086D01*
X145477539Y-114222086D02*
X145420396Y-114279229D01*
X145420396Y-114279229D02*
X145363253Y-114393514D01*
X145363253Y-114393514D02*
X145363253Y-114564943D01*
X145363253Y-114564943D02*
X145420396Y-114679229D01*
X145420396Y-114679229D02*
X145477539Y-114736372D01*
X145477539Y-114736372D02*
X145591825Y-114793514D01*
X145591825Y-114793514D02*
X145934682Y-114793514D01*
X145934682Y-114793514D02*
X146048968Y-114736372D01*
X146048968Y-114736372D02*
X146106111Y-114679229D01*
X146106111Y-114679229D02*
X146163253Y-114564943D01*
X146163253Y-114564943D02*
X146163253Y-114393514D01*
X148095186Y-102336372D02*
X148095186Y-101650658D01*
X148095186Y-101993515D02*
X146895186Y-101993515D01*
X146895186Y-101993515D02*
X147066615Y-101879229D01*
X147066615Y-101879229D02*
X147180901Y-101764944D01*
X147180901Y-101764944D02*
X147238044Y-101650658D01*
X148038044Y-102793515D02*
X148095186Y-102907801D01*
X148095186Y-102907801D02*
X148095186Y-103136372D01*
X148095186Y-103136372D02*
X148038044Y-103250658D01*
X148038044Y-103250658D02*
X147923758Y-103307801D01*
X147923758Y-103307801D02*
X147866615Y-103307801D01*
X147866615Y-103307801D02*
X147752329Y-103250658D01*
X147752329Y-103250658D02*
X147695186Y-103136372D01*
X147695186Y-103136372D02*
X147695186Y-102964944D01*
X147695186Y-102964944D02*
X147638044Y-102850658D01*
X147638044Y-102850658D02*
X147523758Y-102793515D01*
X147523758Y-102793515D02*
X147466615Y-102793515D01*
X147466615Y-102793515D02*
X147352329Y-102850658D01*
X147352329Y-102850658D02*
X147295186Y-102964944D01*
X147295186Y-102964944D02*
X147295186Y-103136372D01*
X147295186Y-103136372D02*
X147352329Y-103250658D01*
X147295186Y-103650658D02*
X147295186Y-104107801D01*
X146895186Y-103822087D02*
X147923758Y-103822087D01*
X147923758Y-103822087D02*
X148038044Y-103879230D01*
X148038044Y-103879230D02*
X148095186Y-103993515D01*
X148095186Y-103993515D02*
X148095186Y-104107801D01*
X147466615Y-105422087D02*
X147466615Y-105822087D01*
X148095186Y-105993515D02*
X148095186Y-105422087D01*
X148095186Y-105422087D02*
X146895186Y-105422087D01*
X146895186Y-105422087D02*
X146895186Y-105993515D01*
X148095186Y-107022087D02*
X146895186Y-107022087D01*
X148038044Y-107022087D02*
X148095186Y-106907801D01*
X148095186Y-106907801D02*
X148095186Y-106679229D01*
X148095186Y-106679229D02*
X148038044Y-106564944D01*
X148038044Y-106564944D02*
X147980901Y-106507801D01*
X147980901Y-106507801D02*
X147866615Y-106450658D01*
X147866615Y-106450658D02*
X147523758Y-106450658D01*
X147523758Y-106450658D02*
X147409472Y-106507801D01*
X147409472Y-106507801D02*
X147352329Y-106564944D01*
X147352329Y-106564944D02*
X147295186Y-106679229D01*
X147295186Y-106679229D02*
X147295186Y-106907801D01*
X147295186Y-106907801D02*
X147352329Y-107022087D01*
X148095186Y-107593515D02*
X147295186Y-107593515D01*
X146895186Y-107593515D02*
X146952329Y-107536372D01*
X146952329Y-107536372D02*
X147009472Y-107593515D01*
X147009472Y-107593515D02*
X146952329Y-107650658D01*
X146952329Y-107650658D02*
X146895186Y-107593515D01*
X146895186Y-107593515D02*
X147009472Y-107593515D01*
X147295186Y-107993515D02*
X147295186Y-108450658D01*
X146895186Y-108164944D02*
X147923758Y-108164944D01*
X147923758Y-108164944D02*
X148038044Y-108222087D01*
X148038044Y-108222087D02*
X148095186Y-108336372D01*
X148095186Y-108336372D02*
X148095186Y-108450658D01*
X148095186Y-108850658D02*
X147295186Y-108850658D01*
X146895186Y-108850658D02*
X146952329Y-108793515D01*
X146952329Y-108793515D02*
X147009472Y-108850658D01*
X147009472Y-108850658D02*
X146952329Y-108907801D01*
X146952329Y-108907801D02*
X146895186Y-108850658D01*
X146895186Y-108850658D02*
X147009472Y-108850658D01*
X148095186Y-109593515D02*
X148038044Y-109479230D01*
X148038044Y-109479230D02*
X147980901Y-109422087D01*
X147980901Y-109422087D02*
X147866615Y-109364944D01*
X147866615Y-109364944D02*
X147523758Y-109364944D01*
X147523758Y-109364944D02*
X147409472Y-109422087D01*
X147409472Y-109422087D02*
X147352329Y-109479230D01*
X147352329Y-109479230D02*
X147295186Y-109593515D01*
X147295186Y-109593515D02*
X147295186Y-109764944D01*
X147295186Y-109764944D02*
X147352329Y-109879230D01*
X147352329Y-109879230D02*
X147409472Y-109936373D01*
X147409472Y-109936373D02*
X147523758Y-109993515D01*
X147523758Y-109993515D02*
X147866615Y-109993515D01*
X147866615Y-109993515D02*
X147980901Y-109936373D01*
X147980901Y-109936373D02*
X148038044Y-109879230D01*
X148038044Y-109879230D02*
X148095186Y-109764944D01*
X148095186Y-109764944D02*
X148095186Y-109593515D01*
X147295186Y-110507801D02*
X148095186Y-110507801D01*
X147409472Y-110507801D02*
X147352329Y-110564944D01*
X147352329Y-110564944D02*
X147295186Y-110679229D01*
X147295186Y-110679229D02*
X147295186Y-110850658D01*
X147295186Y-110850658D02*
X147352329Y-110964944D01*
X147352329Y-110964944D02*
X147466615Y-111022087D01*
X147466615Y-111022087D02*
X148095186Y-111022087D01*
X155756485Y-89119663D02*
X155089819Y-89119663D01*
X155089819Y-89119663D02*
X155518390Y-90119663D01*
X157828866Y-89214901D02*
X157781247Y-89167282D01*
X157781247Y-89167282D02*
X157686009Y-89119663D01*
X157686009Y-89119663D02*
X157447914Y-89119663D01*
X157447914Y-89119663D02*
X157352676Y-89167282D01*
X157352676Y-89167282D02*
X157305057Y-89214901D01*
X157305057Y-89214901D02*
X157257438Y-89310139D01*
X157257438Y-89310139D02*
X157257438Y-89405377D01*
X157257438Y-89405377D02*
X157305057Y-89548234D01*
X157305057Y-89548234D02*
X157876485Y-90119663D01*
X157876485Y-90119663D02*
X157257438Y-90119663D01*
X143047914Y-83557761D02*
X143451975Y-83153700D01*
X143249945Y-83355730D02*
X142542838Y-82648623D01*
X142542838Y-82648623D02*
X142711197Y-82682295D01*
X142711197Y-82682295D02*
X142845884Y-82682295D01*
X142845884Y-82682295D02*
X142946899Y-82648623D01*
X157297914Y-108687761D02*
X157701975Y-108283700D01*
X157499945Y-108485730D02*
X156792838Y-107778623D01*
X156792838Y-107778623D02*
X156961197Y-107812295D01*
X156961197Y-107812295D02*
X157095884Y-107812295D01*
X157095884Y-107812295D02*
X157196899Y-107778623D01*
X156489792Y-108687761D02*
X156523464Y-108586745D01*
X156523464Y-108586745D02*
X156523464Y-108519402D01*
X156523464Y-108519402D02*
X156489792Y-108418387D01*
X156489792Y-108418387D02*
X156456120Y-108384715D01*
X156456120Y-108384715D02*
X156355105Y-108351043D01*
X156355105Y-108351043D02*
X156287762Y-108351043D01*
X156287762Y-108351043D02*
X156186746Y-108384715D01*
X156186746Y-108384715D02*
X156052059Y-108519402D01*
X156052059Y-108519402D02*
X156018387Y-108620417D01*
X156018387Y-108620417D02*
X156018387Y-108687761D01*
X156018387Y-108687761D02*
X156052059Y-108788776D01*
X156052059Y-108788776D02*
X156085731Y-108822448D01*
X156085731Y-108822448D02*
X156186746Y-108856119D01*
X156186746Y-108856119D02*
X156254090Y-108856119D01*
X156254090Y-108856119D02*
X156355105Y-108822448D01*
X156355105Y-108822448D02*
X156489792Y-108687761D01*
X156489792Y-108687761D02*
X156590807Y-108654089D01*
X156590807Y-108654089D02*
X156658151Y-108654089D01*
X156658151Y-108654089D02*
X156759166Y-108687761D01*
X156759166Y-108687761D02*
X156893853Y-108822448D01*
X156893853Y-108822448D02*
X156927525Y-108923463D01*
X156927525Y-108923463D02*
X156927525Y-108990806D01*
X156927525Y-108990806D02*
X156893853Y-109091822D01*
X156893853Y-109091822D02*
X156759166Y-109226509D01*
X156759166Y-109226509D02*
X156658151Y-109260180D01*
X156658151Y-109260180D02*
X156590807Y-109260180D01*
X156590807Y-109260180D02*
X156489792Y-109226509D01*
X156489792Y-109226509D02*
X156355105Y-109091822D01*
X156355105Y-109091822D02*
X156321433Y-108990806D01*
X156321433Y-108990806D02*
X156321433Y-108923463D01*
X156321433Y-108923463D02*
X156355105Y-108822448D01*
D11*
X126178947Y-80980666D02*
X123131327Y-80980666D01*
X123893232Y-81742571D02*
X123131327Y-80980666D01*
X123131327Y-80980666D02*
X123893232Y-80218761D01*
D10*
X157297914Y-113767761D02*
X157701975Y-113363700D01*
X157499945Y-113565730D02*
X156792838Y-112858623D01*
X156792838Y-112858623D02*
X156961197Y-112892295D01*
X156961197Y-112892295D02*
X157095884Y-112892295D01*
X157095884Y-112892295D02*
X157196899Y-112858623D01*
X155984716Y-113666745D02*
X156119403Y-113532058D01*
X156119403Y-113532058D02*
X156220418Y-113498387D01*
X156220418Y-113498387D02*
X156287762Y-113498387D01*
X156287762Y-113498387D02*
X156456120Y-113532058D01*
X156456120Y-113532058D02*
X156624479Y-113633074D01*
X156624479Y-113633074D02*
X156893853Y-113902448D01*
X156893853Y-113902448D02*
X156927525Y-114003463D01*
X156927525Y-114003463D02*
X156927525Y-114070806D01*
X156927525Y-114070806D02*
X156893853Y-114171822D01*
X156893853Y-114171822D02*
X156759166Y-114306509D01*
X156759166Y-114306509D02*
X156658151Y-114340180D01*
X156658151Y-114340180D02*
X156590807Y-114340180D01*
X156590807Y-114340180D02*
X156489792Y-114306509D01*
X156489792Y-114306509D02*
X156321433Y-114138150D01*
X156321433Y-114138150D02*
X156287762Y-114037135D01*
X156287762Y-114037135D02*
X156287762Y-113969791D01*
X156287762Y-113969791D02*
X156321433Y-113868776D01*
X156321433Y-113868776D02*
X156456120Y-113734089D01*
X156456120Y-113734089D02*
X156557136Y-113700417D01*
X156557136Y-113700417D02*
X156624479Y-113700417D01*
X156624479Y-113700417D02*
X156725494Y-113734089D01*
X142374479Y-93026982D02*
X142711197Y-92690265D01*
X142711197Y-92690265D02*
X143081586Y-92993310D01*
X143081586Y-92993310D02*
X143014242Y-92993310D01*
X143014242Y-92993310D02*
X142913227Y-93026982D01*
X142913227Y-93026982D02*
X142744868Y-93195341D01*
X142744868Y-93195341D02*
X142711197Y-93296356D01*
X142711197Y-93296356D02*
X142711197Y-93363700D01*
X142711197Y-93363700D02*
X142744868Y-93464715D01*
X142744868Y-93464715D02*
X142913227Y-93633074D01*
X142913227Y-93633074D02*
X143014242Y-93666745D01*
X143014242Y-93666745D02*
X143081586Y-93666745D01*
X143081586Y-93666745D02*
X143182601Y-93633074D01*
X143182601Y-93633074D02*
X143350960Y-93464715D01*
X143350960Y-93464715D02*
X143384632Y-93363700D01*
X143384632Y-93363700D02*
X143384632Y-93296356D01*
X143547914Y-110997761D02*
X143951975Y-110593700D01*
X143749945Y-110795730D02*
X143042838Y-110088623D01*
X143042838Y-110088623D02*
X143211197Y-110122295D01*
X143211197Y-110122295D02*
X143345884Y-110122295D01*
X143345884Y-110122295D02*
X143446899Y-110088623D01*
X142638777Y-110627371D02*
X142571433Y-110627371D01*
X142571433Y-110627371D02*
X142470418Y-110661043D01*
X142470418Y-110661043D02*
X142302059Y-110829402D01*
X142302059Y-110829402D02*
X142268387Y-110930417D01*
X142268387Y-110930417D02*
X142268387Y-110997761D01*
X142268387Y-110997761D02*
X142302059Y-111098776D01*
X142302059Y-111098776D02*
X142369403Y-111166119D01*
X142369403Y-111166119D02*
X142504090Y-111233463D01*
X142504090Y-111233463D02*
X143312212Y-111233463D01*
X143312212Y-111233463D02*
X142874479Y-111671196D01*
X154119663Y-110410180D02*
X153643472Y-110076847D01*
X154119663Y-109838752D02*
X153119663Y-109838752D01*
X153119663Y-109838752D02*
X153119663Y-110219704D01*
X153119663Y-110219704D02*
X153167282Y-110314942D01*
X153167282Y-110314942D02*
X153214901Y-110362561D01*
X153214901Y-110362561D02*
X153310139Y-110410180D01*
X153310139Y-110410180D02*
X153452996Y-110410180D01*
X153452996Y-110410180D02*
X153548234Y-110362561D01*
X153548234Y-110362561D02*
X153595853Y-110314942D01*
X153595853Y-110314942D02*
X153643472Y-110219704D01*
X153643472Y-110219704D02*
X153643472Y-109838752D01*
X157312212Y-94223936D02*
X157244868Y-94223936D01*
X157244868Y-94223936D02*
X157143853Y-94257608D01*
X157143853Y-94257608D02*
X156975494Y-94425967D01*
X156975494Y-94425967D02*
X156941823Y-94526982D01*
X156941823Y-94526982D02*
X156941823Y-94594326D01*
X156941823Y-94594326D02*
X156975494Y-94695341D01*
X156975494Y-94695341D02*
X157042838Y-94762684D01*
X157042838Y-94762684D02*
X157177525Y-94830028D01*
X157177525Y-94830028D02*
X157985647Y-94830028D01*
X157985647Y-94830028D02*
X157547914Y-95267761D01*
X156234716Y-95166745D02*
X156369403Y-95032058D01*
X156369403Y-95032058D02*
X156470418Y-94998387D01*
X156470418Y-94998387D02*
X156537762Y-94998387D01*
X156537762Y-94998387D02*
X156706120Y-95032058D01*
X156706120Y-95032058D02*
X156874479Y-95133074D01*
X156874479Y-95133074D02*
X157143853Y-95402448D01*
X157143853Y-95402448D02*
X157177525Y-95503463D01*
X157177525Y-95503463D02*
X157177525Y-95570806D01*
X157177525Y-95570806D02*
X157143853Y-95671822D01*
X157143853Y-95671822D02*
X157009166Y-95806509D01*
X157009166Y-95806509D02*
X156908151Y-95840180D01*
X156908151Y-95840180D02*
X156840807Y-95840180D01*
X156840807Y-95840180D02*
X156739792Y-95806509D01*
X156739792Y-95806509D02*
X156571433Y-95638150D01*
X156571433Y-95638150D02*
X156537762Y-95537135D01*
X156537762Y-95537135D02*
X156537762Y-95469791D01*
X156537762Y-95469791D02*
X156571433Y-95368776D01*
X156571433Y-95368776D02*
X156706120Y-95234089D01*
X156706120Y-95234089D02*
X156807136Y-95200417D01*
X156807136Y-95200417D02*
X156874479Y-95200417D01*
X156874479Y-95200417D02*
X156975494Y-95234089D01*
X156874479Y-117844326D02*
X156908151Y-117743310D01*
X156908151Y-117743310D02*
X157009166Y-117642295D01*
X157009166Y-117642295D02*
X157143853Y-117574952D01*
X157143853Y-117574952D02*
X157278540Y-117574952D01*
X157278540Y-117574952D02*
X157379555Y-117608623D01*
X157379555Y-117608623D02*
X157547914Y-117709639D01*
X157547914Y-117709639D02*
X157648929Y-117810654D01*
X157648929Y-117810654D02*
X157749945Y-117979013D01*
X157749945Y-117979013D02*
X157783616Y-118080028D01*
X157783616Y-118080028D02*
X157783616Y-118214715D01*
X157783616Y-118214715D02*
X157716273Y-118349402D01*
X157716273Y-118349402D02*
X157648929Y-118416745D01*
X157648929Y-118416745D02*
X157514242Y-118484089D01*
X157514242Y-118484089D02*
X157446899Y-118484089D01*
X157446899Y-118484089D02*
X157211197Y-118248387D01*
X157211197Y-118248387D02*
X157345884Y-118113700D01*
X157211197Y-118854478D02*
X156504090Y-118147371D01*
X156504090Y-118147371D02*
X156807136Y-119258539D01*
X156807136Y-119258539D02*
X156100029Y-118551432D01*
X156470418Y-119595257D02*
X155763311Y-118888150D01*
X155763311Y-118888150D02*
X155594953Y-119056509D01*
X155594953Y-119056509D02*
X155527609Y-119191196D01*
X155527609Y-119191196D02*
X155527609Y-119325883D01*
X155527609Y-119325883D02*
X155561281Y-119426898D01*
X155561281Y-119426898D02*
X155662296Y-119595257D01*
X155662296Y-119595257D02*
X155763311Y-119696272D01*
X155763311Y-119696272D02*
X155931670Y-119797287D01*
X155931670Y-119797287D02*
X156032685Y-119830959D01*
X156032685Y-119830959D02*
X156167372Y-119830959D01*
X156167372Y-119830959D02*
X156302059Y-119763615D01*
X156302059Y-119763615D02*
X156470418Y-119595257D01*
X142408151Y-95483310D02*
X142542838Y-95348623D01*
X142542838Y-95348623D02*
X142643853Y-95314952D01*
X142643853Y-95314952D02*
X142711197Y-95314952D01*
X142711197Y-95314952D02*
X142879555Y-95348623D01*
X142879555Y-95348623D02*
X143047914Y-95449639D01*
X143047914Y-95449639D02*
X143317288Y-95719013D01*
X143317288Y-95719013D02*
X143350960Y-95820028D01*
X143350960Y-95820028D02*
X143350960Y-95887371D01*
X143350960Y-95887371D02*
X143317288Y-95988387D01*
X143317288Y-95988387D02*
X143182601Y-96123074D01*
X143182601Y-96123074D02*
X143081586Y-96156745D01*
X143081586Y-96156745D02*
X143014242Y-96156745D01*
X143014242Y-96156745D02*
X142913227Y-96123074D01*
X142913227Y-96123074D02*
X142744868Y-95954715D01*
X142744868Y-95954715D02*
X142711197Y-95853700D01*
X142711197Y-95853700D02*
X142711197Y-95786356D01*
X142711197Y-95786356D02*
X142744868Y-95685341D01*
X142744868Y-95685341D02*
X142879555Y-95550654D01*
X142879555Y-95550654D02*
X142980571Y-95516982D01*
X142980571Y-95516982D02*
X143047914Y-95516982D01*
X143047914Y-95516982D02*
X143148929Y-95550654D01*
X143954663Y-85488095D02*
X143954663Y-86059523D01*
X144954663Y-85773809D02*
X143954663Y-85773809D01*
X144954663Y-86916666D02*
X144954663Y-86345238D01*
X144954663Y-86630952D02*
X143954663Y-86630952D01*
X143954663Y-86630952D02*
X144097520Y-86535714D01*
X144097520Y-86535714D02*
X144192758Y-86440476D01*
X144192758Y-86440476D02*
X144240377Y-86345238D01*
X151761904Y-87204663D02*
X151190476Y-87204663D01*
X151476190Y-88204663D02*
X151476190Y-87204663D01*
X150952380Y-87204663D02*
X150333333Y-87204663D01*
X150333333Y-87204663D02*
X150666666Y-87585615D01*
X150666666Y-87585615D02*
X150523809Y-87585615D01*
X150523809Y-87585615D02*
X150428571Y-87633234D01*
X150428571Y-87633234D02*
X150380952Y-87680853D01*
X150380952Y-87680853D02*
X150333333Y-87776091D01*
X150333333Y-87776091D02*
X150333333Y-88014186D01*
X150333333Y-88014186D02*
X150380952Y-88109424D01*
X150380952Y-88109424D02*
X150428571Y-88157044D01*
X150428571Y-88157044D02*
X150523809Y-88204663D01*
X150523809Y-88204663D02*
X150809523Y-88204663D01*
X150809523Y-88204663D02*
X150904761Y-88157044D01*
X150904761Y-88157044D02*
X150952380Y-88109424D01*
X155761904Y-103204663D02*
X155190476Y-103204663D01*
X155476190Y-104204663D02*
X155476190Y-103204663D01*
X154904761Y-103299901D02*
X154857142Y-103252282D01*
X154857142Y-103252282D02*
X154761904Y-103204663D01*
X154761904Y-103204663D02*
X154523809Y-103204663D01*
X154523809Y-103204663D02*
X154428571Y-103252282D01*
X154428571Y-103252282D02*
X154380952Y-103299901D01*
X154380952Y-103299901D02*
X154333333Y-103395139D01*
X154333333Y-103395139D02*
X154333333Y-103490377D01*
X154333333Y-103490377D02*
X154380952Y-103633234D01*
X154380952Y-103633234D02*
X154952380Y-104204663D01*
X154952380Y-104204663D02*
X154333333Y-104204663D01*
X155261904Y-86204663D02*
X154690476Y-86204663D01*
X154976190Y-87204663D02*
X154976190Y-86204663D01*
X153880952Y-86204663D02*
X154357142Y-86204663D01*
X154357142Y-86204663D02*
X154404761Y-86680853D01*
X154404761Y-86680853D02*
X154357142Y-86633234D01*
X154357142Y-86633234D02*
X154261904Y-86585615D01*
X154261904Y-86585615D02*
X154023809Y-86585615D01*
X154023809Y-86585615D02*
X153928571Y-86633234D01*
X153928571Y-86633234D02*
X153880952Y-86680853D01*
X153880952Y-86680853D02*
X153833333Y-86776091D01*
X153833333Y-86776091D02*
X153833333Y-87014186D01*
X153833333Y-87014186D02*
X153880952Y-87109424D01*
X153880952Y-87109424D02*
X153928571Y-87157044D01*
X153928571Y-87157044D02*
X154023809Y-87204663D01*
X154023809Y-87204663D02*
X154261904Y-87204663D01*
X154261904Y-87204663D02*
X154357142Y-87157044D01*
X154357142Y-87157044D02*
X154404761Y-87109424D01*
X149154663Y-92738095D02*
X149154663Y-93309523D01*
X150154663Y-93023809D02*
X149154663Y-93023809D01*
X149487996Y-94071428D02*
X150154663Y-94071428D01*
X149107044Y-93833333D02*
X149821329Y-93595238D01*
X149821329Y-93595238D02*
X149821329Y-94214285D01*
D12*
%TO.C,D1*%
X156410000Y-102500000D02*
G75*
G02*
X156310000Y-102500000I-50000J0D01*
G01*
X156310000Y-102500000D02*
G75*
G02*
X156410000Y-102500000I50000J0D01*
G01*
D13*
%TO.C,T1*%
X143400000Y-86900000D02*
X143400000Y-88300000D01*
X143400000Y-88300000D02*
X144800000Y-88300000D01*
X144800000Y-86900000D02*
X143400000Y-86900000D01*
X144800000Y-88300000D02*
X144800000Y-86900000D01*
D12*
%TO.C,SW1*%
X145300000Y-87800000D02*
X145300000Y-91700000D01*
X148200000Y-87800000D02*
X148200000Y-91700000D01*
D13*
%TO.C,T3*%
X148750000Y-87300000D02*
X148750000Y-88700000D01*
X148750000Y-88700000D02*
X150150000Y-88700000D01*
X150150000Y-87300000D02*
X148750000Y-87300000D01*
X150150000Y-88700000D02*
X150150000Y-87300000D01*
%TO.C,T2*%
X155500000Y-104350000D02*
X155500000Y-105750000D01*
X155500000Y-105750000D02*
X156900000Y-105750000D01*
X156900000Y-104350000D02*
X155500000Y-104350000D01*
X156900000Y-105750000D02*
X156900000Y-104350000D01*
%TO.C,T5*%
X155550000Y-86050000D02*
X155550000Y-87450000D01*
X155550000Y-87450000D02*
X156950000Y-87450000D01*
X156950000Y-86050000D02*
X155550000Y-86050000D01*
X156950000Y-87450000D02*
X156950000Y-86050000D01*
D14*
%TO.C,G\u002A\u002A\u002A*%
G36*
X150451012Y-111116038D02*
G01*
X150450911Y-111132322D01*
X150450713Y-111162647D01*
X150450513Y-111191685D01*
X150450312Y-111219181D01*
X150450112Y-111244878D01*
X150449917Y-111268522D01*
X150449727Y-111289856D01*
X150449546Y-111308626D01*
X150449376Y-111324575D01*
X150449220Y-111337449D01*
X150449078Y-111346990D01*
X150448955Y-111352945D01*
X150448851Y-111355056D01*
X150448811Y-111355081D01*
X150446308Y-111355728D01*
X150440277Y-111357068D01*
X150431164Y-111359009D01*
X150419413Y-111361457D01*
X150405469Y-111364320D01*
X150389777Y-111367505D01*
X150372783Y-111370919D01*
X150371753Y-111371125D01*
X150354575Y-111374562D01*
X150338521Y-111377777D01*
X150324074Y-111380673D01*
X150311718Y-111383155D01*
X150301933Y-111385125D01*
X150295203Y-111386486D01*
X150292010Y-111387141D01*
X150286602Y-111388297D01*
X150285858Y-111233634D01*
X150285847Y-111231452D01*
X150285712Y-111206738D01*
X150285557Y-111183254D01*
X150285386Y-111161318D01*
X150285203Y-111141251D01*
X150285011Y-111123369D01*
X150284814Y-111107992D01*
X150284616Y-111095439D01*
X150284420Y-111086028D01*
X150284230Y-111080079D01*
X150284050Y-111077909D01*
X150282833Y-111077911D01*
X150277851Y-111078610D01*
X150269257Y-111080079D01*
X150257279Y-111082271D01*
X150242151Y-111085142D01*
X150224103Y-111088645D01*
X150203365Y-111092734D01*
X150180170Y-111097363D01*
X150154749Y-111102486D01*
X150127331Y-111108058D01*
X150098150Y-111114032D01*
X150067435Y-111120362D01*
X150035419Y-111127003D01*
X150002331Y-111133908D01*
X149977167Y-111139168D01*
X149949046Y-111145027D01*
X149921824Y-111150680D01*
X149895782Y-111156069D01*
X149871205Y-111161136D01*
X149848375Y-111165823D01*
X149827575Y-111170073D01*
X149809088Y-111173828D01*
X149793197Y-111177030D01*
X149780185Y-111179620D01*
X149770335Y-111181543D01*
X149763930Y-111182738D01*
X149761254Y-111183150D01*
X149761129Y-111182962D01*
X149760757Y-111179812D01*
X149760444Y-111173084D01*
X149760198Y-111163179D01*
X149760022Y-111150497D01*
X149759925Y-111135435D01*
X149759912Y-111118395D01*
X149759989Y-111099774D01*
X149760524Y-111016399D01*
X149874255Y-110993297D01*
X149880074Y-110992115D01*
X149901318Y-110987803D01*
X149925833Y-110982830D01*
X149953050Y-110977312D01*
X149982400Y-110971363D01*
X150013313Y-110965100D01*
X150045219Y-110958638D01*
X150077550Y-110952091D01*
X150109735Y-110945576D01*
X150141205Y-110939208D01*
X150171391Y-110933102D01*
X150193905Y-110928546D01*
X150221667Y-110922925D01*
X150248816Y-110917422D01*
X150274973Y-110912115D01*
X150299761Y-110907081D01*
X150322801Y-110902396D01*
X150343714Y-110898139D01*
X150362123Y-110894385D01*
X150377649Y-110891211D01*
X150389915Y-110888695D01*
X150398541Y-110886913D01*
X150403328Y-110885924D01*
X150416153Y-110883336D01*
X150427638Y-110881108D01*
X150437114Y-110879362D01*
X150443917Y-110878224D01*
X150447378Y-110877817D01*
X150452469Y-110877817D01*
X150451012Y-111116038D01*
G37*
G36*
X149588685Y-110112617D02*
G01*
X149587193Y-110117627D01*
X149584584Y-110125506D01*
X149581044Y-110135711D01*
X149576759Y-110147698D01*
X149571913Y-110160924D01*
X149560549Y-110191811D01*
X149549964Y-110221134D01*
X149540534Y-110247956D01*
X149532045Y-110272934D01*
X149524283Y-110296727D01*
X149517033Y-110319990D01*
X149510081Y-110343382D01*
X149503214Y-110367559D01*
X149496217Y-110393178D01*
X149488199Y-110423780D01*
X149472487Y-110489315D01*
X149459303Y-110553088D01*
X149448489Y-110615972D01*
X149439888Y-110678841D01*
X149433342Y-110742569D01*
X149433053Y-110746239D01*
X149432295Y-110759496D01*
X149431693Y-110775708D01*
X149431248Y-110794171D01*
X149430959Y-110814179D01*
X149430826Y-110835026D01*
X149430849Y-110856009D01*
X149431029Y-110876421D01*
X149431365Y-110895559D01*
X149431858Y-110912716D01*
X149432508Y-110927187D01*
X149433315Y-110938269D01*
X149433760Y-110942783D01*
X149440412Y-110996706D01*
X149449266Y-111047461D01*
X149460406Y-111095365D01*
X149473914Y-111140738D01*
X149489873Y-111183896D01*
X149508368Y-111225159D01*
X149520474Y-111248749D01*
X149535765Y-111275225D01*
X149552260Y-111300031D01*
X149570764Y-111324365D01*
X149592084Y-111349421D01*
X149594802Y-111352438D01*
X149610853Y-111369117D01*
X149628768Y-111386118D01*
X149647691Y-111402715D01*
X149666767Y-111418180D01*
X149685141Y-111431786D01*
X149701958Y-111442807D01*
X149713392Y-111449692D01*
X149714417Y-111717555D01*
X149714449Y-111725977D01*
X149714565Y-111758620D01*
X149714666Y-111790124D01*
X149714752Y-111820243D01*
X149714822Y-111848730D01*
X149714877Y-111875338D01*
X149714915Y-111899821D01*
X149714936Y-111921933D01*
X149714941Y-111941426D01*
X149714929Y-111958054D01*
X149714900Y-111971570D01*
X149714854Y-111981727D01*
X149714789Y-111988280D01*
X149714707Y-111990980D01*
X149713973Y-111996544D01*
X149705486Y-111992253D01*
X149703318Y-111991122D01*
X149691485Y-111984057D01*
X149677468Y-111974496D01*
X149661766Y-111962860D01*
X149644878Y-111949569D01*
X149627303Y-111935043D01*
X149609542Y-111919701D01*
X149592092Y-111903964D01*
X149575452Y-111888252D01*
X149560123Y-111872985D01*
X149546604Y-111858582D01*
X149545465Y-111857316D01*
X149504281Y-111808543D01*
X149466688Y-111758005D01*
X149432661Y-111705642D01*
X149402177Y-111651394D01*
X149375211Y-111595202D01*
X149351740Y-111537007D01*
X149331739Y-111476748D01*
X149315184Y-111414366D01*
X149302052Y-111349802D01*
X149292317Y-111282996D01*
X149285957Y-111213888D01*
X149285225Y-111199436D01*
X149284700Y-111180548D01*
X149284445Y-111159149D01*
X149284447Y-111136058D01*
X149284694Y-111112096D01*
X149285172Y-111088083D01*
X149285869Y-111064841D01*
X149286772Y-111043190D01*
X149287868Y-111023950D01*
X149289146Y-111007942D01*
X149292158Y-110979290D01*
X149302903Y-110900674D01*
X149317386Y-110821088D01*
X149335624Y-110740472D01*
X149357634Y-110658768D01*
X149383433Y-110575915D01*
X149413037Y-110491853D01*
X149446464Y-110406523D01*
X149483731Y-110319866D01*
X149490514Y-110304908D01*
X149498949Y-110286667D01*
X149507848Y-110267754D01*
X149517040Y-110248506D01*
X149526355Y-110229260D01*
X149535624Y-110210353D01*
X149544678Y-110192123D01*
X149553345Y-110174905D01*
X149561458Y-110159038D01*
X149568844Y-110144857D01*
X149575336Y-110132701D01*
X149580762Y-110122905D01*
X149584954Y-110115807D01*
X149587741Y-110111745D01*
X149588954Y-110111053D01*
X149588685Y-110112617D01*
G37*
G36*
X150215980Y-111479985D02*
G01*
X150246626Y-111483538D01*
X150275906Y-111489490D01*
X150303090Y-111497718D01*
X150327448Y-111508104D01*
X150351709Y-111522230D01*
X150374586Y-111539954D01*
X150394462Y-111560439D01*
X150411310Y-111583638D01*
X150425100Y-111609503D01*
X150435803Y-111637987D01*
X150443389Y-111669044D01*
X150447829Y-111702625D01*
X150448822Y-111715381D01*
X150449464Y-111726185D01*
X150449693Y-111735620D01*
X150449512Y-111745047D01*
X150448923Y-111755829D01*
X150447928Y-111769327D01*
X150446230Y-111786676D01*
X150439702Y-111826236D01*
X150429686Y-111864075D01*
X150416289Y-111900016D01*
X150399615Y-111933885D01*
X150379770Y-111965504D01*
X150356858Y-111994697D01*
X150330985Y-112021289D01*
X150302257Y-112045102D01*
X150270778Y-112065961D01*
X150268406Y-112067315D01*
X150260800Y-112071316D01*
X150251750Y-112075739D01*
X150242106Y-112080207D01*
X150232718Y-112084340D01*
X150224437Y-112087761D01*
X150218114Y-112090090D01*
X150214598Y-112090951D01*
X150214083Y-112089955D01*
X150213543Y-112085852D01*
X150213111Y-112078428D01*
X150212783Y-112067528D01*
X150212554Y-112052997D01*
X150212419Y-112034678D01*
X150212376Y-112012418D01*
X150212376Y-111933885D01*
X150227005Y-111923889D01*
X150230913Y-111921141D01*
X150251619Y-111903767D01*
X150270006Y-111883470D01*
X150285634Y-111860870D01*
X150298065Y-111836585D01*
X150306861Y-111811234D01*
X150308468Y-111804080D01*
X150310516Y-111789385D01*
X150311501Y-111773334D01*
X150311406Y-111757253D01*
X150310214Y-111742463D01*
X150307907Y-111730290D01*
X150301835Y-111713105D01*
X150291491Y-111694463D01*
X150277977Y-111678363D01*
X150261376Y-111664886D01*
X150241776Y-111654114D01*
X150219259Y-111646126D01*
X150216392Y-111645402D01*
X150203793Y-111643158D01*
X150188531Y-111641531D01*
X150171699Y-111640566D01*
X150154392Y-111640310D01*
X150137703Y-111640807D01*
X150122726Y-111642104D01*
X150104107Y-111645028D01*
X150080506Y-111650235D01*
X150056885Y-111656936D01*
X150034271Y-111664802D01*
X150013694Y-111673501D01*
X149996184Y-111682704D01*
X149972316Y-111698888D01*
X149951142Y-111717566D01*
X149933570Y-111738192D01*
X149919606Y-111760757D01*
X149909255Y-111785252D01*
X149902523Y-111811667D01*
X149899416Y-111839993D01*
X149899157Y-111853024D01*
X149900524Y-111874780D01*
X149904414Y-111893819D01*
X149910975Y-111910583D01*
X149920355Y-111925511D01*
X149932702Y-111939045D01*
X149935875Y-111941821D01*
X149943563Y-111947650D01*
X149952479Y-111953587D01*
X149961726Y-111959111D01*
X149970409Y-111963701D01*
X149977633Y-111966837D01*
X149982501Y-111967998D01*
X149983197Y-111968428D01*
X149984174Y-111971706D01*
X149984736Y-111978463D01*
X149984917Y-111989003D01*
X149984917Y-111989302D01*
X149984971Y-111997139D01*
X149985111Y-112008263D01*
X149985324Y-112021906D01*
X149985599Y-112037297D01*
X149985921Y-112053665D01*
X149986278Y-112070242D01*
X149987636Y-112130477D01*
X149963221Y-112129359D01*
X149951452Y-112128483D01*
X149923563Y-112123615D01*
X149896944Y-112114992D01*
X149871939Y-112102770D01*
X149848889Y-112087104D01*
X149828139Y-112068150D01*
X149813572Y-112051348D01*
X149801102Y-112033397D01*
X149790022Y-112013081D01*
X149780528Y-111990718D01*
X149771599Y-111961244D01*
X149765561Y-111929822D01*
X149762394Y-111896959D01*
X149762078Y-111863159D01*
X149764592Y-111828930D01*
X149769917Y-111794777D01*
X149778033Y-111761206D01*
X149788918Y-111728722D01*
X149802554Y-111697831D01*
X149819523Y-111667699D01*
X149841338Y-111636739D01*
X149866264Y-111608224D01*
X149894138Y-111582255D01*
X149924796Y-111558932D01*
X149958075Y-111538354D01*
X149993812Y-111520622D01*
X150031843Y-111505835D01*
X150072006Y-111494093D01*
X150114136Y-111485497D01*
X150158071Y-111480147D01*
X150184698Y-111478950D01*
X150215980Y-111479985D01*
G37*
G36*
X150293973Y-109540591D02*
G01*
X150320468Y-109544397D01*
X150344873Y-109551661D01*
X150367067Y-109562282D01*
X150386929Y-109576160D01*
X150404339Y-109593194D01*
X150419175Y-109613284D01*
X150431317Y-109636329D01*
X150440642Y-109662229D01*
X150447032Y-109690883D01*
X150448124Y-109699654D01*
X150449085Y-109714144D01*
X150449493Y-109730818D01*
X150449374Y-109748632D01*
X150448753Y-109766543D01*
X150447655Y-109783506D01*
X150446106Y-109798477D01*
X150444131Y-109810414D01*
X150439547Y-109829047D01*
X150428644Y-109861474D01*
X150414606Y-109891352D01*
X150397493Y-109918607D01*
X150377363Y-109943158D01*
X150354276Y-109964931D01*
X150328291Y-109983847D01*
X150299467Y-109999829D01*
X150296493Y-110001246D01*
X150285816Y-110006133D01*
X150275697Y-110010353D01*
X150265479Y-110014101D01*
X150254506Y-110017576D01*
X150242122Y-110020973D01*
X150227670Y-110024490D01*
X150210494Y-110028323D01*
X150189938Y-110032670D01*
X150183386Y-110034032D01*
X150166158Y-110037616D01*
X150146372Y-110041736D01*
X150125032Y-110046182D01*
X150103146Y-110050745D01*
X150081719Y-110055215D01*
X150061758Y-110059381D01*
X150053927Y-110061015D01*
X150035440Y-110064859D01*
X150015314Y-110069029D01*
X149993903Y-110073454D01*
X149971560Y-110078061D01*
X149948639Y-110082777D01*
X149925493Y-110087531D01*
X149902475Y-110092251D01*
X149879938Y-110096863D01*
X149858235Y-110101297D01*
X149837720Y-110105479D01*
X149818746Y-110109338D01*
X149801667Y-110112801D01*
X149786835Y-110115797D01*
X149774604Y-110118252D01*
X149765326Y-110120096D01*
X149759356Y-110121255D01*
X149757047Y-110121657D01*
X149756920Y-110121414D01*
X149756569Y-110118117D01*
X149756249Y-110111306D01*
X149755967Y-110101415D01*
X149755732Y-110088878D01*
X149755554Y-110074129D01*
X149755441Y-110057600D01*
X149755401Y-110039728D01*
X149755401Y-109957798D01*
X149760012Y-109956750D01*
X149761462Y-109956422D01*
X149765911Y-109955437D01*
X149771358Y-109954261D01*
X149778180Y-109952817D01*
X149786756Y-109951026D01*
X149797462Y-109948810D01*
X149810675Y-109946091D01*
X149826773Y-109942791D01*
X149846133Y-109938831D01*
X149869132Y-109934133D01*
X149871766Y-109933595D01*
X149893491Y-109929145D01*
X149918057Y-109924093D01*
X149944433Y-109918652D01*
X149971588Y-109913036D01*
X149998491Y-109907458D01*
X150024110Y-109902131D01*
X150047414Y-109897268D01*
X150059571Y-109894727D01*
X150080605Y-109890336D01*
X150101483Y-109885984D01*
X150121563Y-109881804D01*
X150140202Y-109877930D01*
X150156758Y-109874496D01*
X150170588Y-109871635D01*
X150181050Y-109869481D01*
X150182611Y-109869160D01*
X150199876Y-109865488D01*
X150213835Y-109862205D01*
X150225175Y-109859077D01*
X150234582Y-109855873D01*
X150242743Y-109852362D01*
X150250346Y-109848312D01*
X150258076Y-109843491D01*
X150259978Y-109842209D01*
X150274637Y-109829796D01*
X150285966Y-109815048D01*
X150294026Y-109797870D01*
X150298876Y-109778165D01*
X150299529Y-109773206D01*
X150299875Y-109756869D01*
X150297357Y-109742278D01*
X150292134Y-109729856D01*
X150284369Y-109720030D01*
X150274223Y-109713225D01*
X150268224Y-109711148D01*
X150256155Y-109709237D01*
X150241564Y-109708999D01*
X150225198Y-109710429D01*
X150207801Y-109713526D01*
X150202460Y-109714682D01*
X150194048Y-109716370D01*
X150187437Y-109717530D01*
X150183722Y-109717962D01*
X150182879Y-109717911D01*
X150181999Y-109717503D01*
X150181292Y-109716362D01*
X150180738Y-109714115D01*
X150180320Y-109710388D01*
X150180018Y-109704806D01*
X150179813Y-109696996D01*
X150179686Y-109686584D01*
X150179619Y-109673196D01*
X150179593Y-109656457D01*
X150179588Y-109635994D01*
X150179590Y-109629638D01*
X150179619Y-109612180D01*
X150179677Y-109596218D01*
X150179762Y-109582185D01*
X150179870Y-109570516D01*
X150179997Y-109561643D01*
X150180139Y-109556002D01*
X150180293Y-109554025D01*
X150180955Y-109553917D01*
X150184910Y-109553156D01*
X150191800Y-109551788D01*
X150200915Y-109549953D01*
X150211544Y-109547794D01*
X150224362Y-109545416D01*
X150239401Y-109543099D01*
X150253753Y-109541327D01*
X150265775Y-109540328D01*
X150293973Y-109540591D01*
G37*
G36*
X150562421Y-109543737D02*
G01*
X150572202Y-109544372D01*
X150583419Y-109545367D01*
X150595392Y-109546667D01*
X150607443Y-109548219D01*
X150618892Y-109549969D01*
X150629326Y-109551806D01*
X150674681Y-109561779D01*
X150719815Y-109574838D01*
X150764135Y-109590731D01*
X150807046Y-109609208D01*
X150847957Y-109630019D01*
X150886274Y-109652913D01*
X150921403Y-109677640D01*
X150947611Y-109698635D01*
X150985947Y-109733060D01*
X151021429Y-109769802D01*
X151054227Y-109809086D01*
X151084510Y-109851135D01*
X151112450Y-109896175D01*
X151138214Y-109944430D01*
X151161974Y-109996125D01*
X151165959Y-110005604D01*
X151186716Y-110059832D01*
X151205317Y-110116960D01*
X151221629Y-110176411D01*
X151235519Y-110237612D01*
X151246854Y-110299988D01*
X151255501Y-110362964D01*
X151261328Y-110425965D01*
X151261423Y-110427375D01*
X151262220Y-110442992D01*
X151262795Y-110461579D01*
X151263145Y-110482127D01*
X151263271Y-110503628D01*
X151263171Y-110525073D01*
X151262844Y-110545453D01*
X151262288Y-110563758D01*
X151261502Y-110578981D01*
X151260289Y-110595655D01*
X151253813Y-110661977D01*
X151244650Y-110730239D01*
X151232952Y-110799667D01*
X151218871Y-110869483D01*
X151202562Y-110938914D01*
X151184177Y-111007184D01*
X151163869Y-111073517D01*
X151146078Y-111125820D01*
X151117027Y-111202682D01*
X151085532Y-111276374D01*
X151051538Y-111347008D01*
X151014990Y-111414696D01*
X150975833Y-111479551D01*
X150934011Y-111541685D01*
X150926969Y-111551386D01*
X150917088Y-111564563D01*
X150905731Y-111579370D01*
X150893386Y-111595192D01*
X150880546Y-111611414D01*
X150867699Y-111627422D01*
X150855337Y-111642600D01*
X150843950Y-111656334D01*
X150834028Y-111668009D01*
X150826062Y-111677010D01*
X150817675Y-111686117D01*
X150777882Y-111727703D01*
X150737717Y-111767080D01*
X150697624Y-111803837D01*
X150658046Y-111837564D01*
X150619429Y-111867850D01*
X150605351Y-111878176D01*
X150590060Y-111888984D01*
X150574617Y-111899532D01*
X150559455Y-111909551D01*
X150545006Y-111918770D01*
X150531702Y-111926919D01*
X150519976Y-111933727D01*
X150510259Y-111938925D01*
X150502985Y-111942242D01*
X150498585Y-111943408D01*
X150498391Y-111943381D01*
X150497918Y-111942992D01*
X150497493Y-111941980D01*
X150497114Y-111940139D01*
X150496779Y-111937265D01*
X150496484Y-111933155D01*
X150496227Y-111927603D01*
X150496005Y-111920405D01*
X150495816Y-111911356D01*
X150495658Y-111900254D01*
X150495527Y-111886892D01*
X150495422Y-111871067D01*
X150495339Y-111852574D01*
X150495275Y-111831209D01*
X150495229Y-111806767D01*
X150495198Y-111779045D01*
X150495179Y-111747837D01*
X150495170Y-111712940D01*
X150495167Y-111674149D01*
X150495167Y-111404889D01*
X150502134Y-111398772D01*
X150506279Y-111395435D01*
X150513075Y-111390353D01*
X150521407Y-111384368D01*
X150530311Y-111378181D01*
X150550337Y-111363939D01*
X150586404Y-111335478D01*
X150622216Y-111303741D01*
X150657310Y-111269243D01*
X150691223Y-111232495D01*
X150723493Y-111194009D01*
X150753656Y-111154297D01*
X150781250Y-111113873D01*
X150805812Y-111073247D01*
X150810254Y-111065174D01*
X150817229Y-111051960D01*
X150824746Y-111037232D01*
X150832157Y-111022268D01*
X150838811Y-111008347D01*
X150863355Y-110954001D01*
X150886144Y-110899374D01*
X150906325Y-110846018D01*
X150924075Y-110793285D01*
X150939569Y-110740526D01*
X150952984Y-110687092D01*
X150964496Y-110632335D01*
X150974280Y-110575604D01*
X150982513Y-110516252D01*
X150989371Y-110453630D01*
X150989808Y-110448885D01*
X150991273Y-110429035D01*
X150992464Y-110406442D01*
X150993380Y-110381788D01*
X150994017Y-110355757D01*
X150994373Y-110329032D01*
X150994444Y-110302296D01*
X150994228Y-110276231D01*
X150993722Y-110251522D01*
X150992923Y-110228851D01*
X150991829Y-110208901D01*
X150990436Y-110192355D01*
X150987650Y-110167993D01*
X150979264Y-110110811D01*
X150968588Y-110056799D01*
X150955562Y-110005753D01*
X150940122Y-109957471D01*
X150922206Y-109911747D01*
X150901752Y-109868378D01*
X150878697Y-109827161D01*
X150872457Y-109817028D01*
X150850868Y-109784474D01*
X150828323Y-109754497D01*
X150804069Y-109726200D01*
X150777352Y-109698687D01*
X150747416Y-109671060D01*
X150742112Y-109666409D01*
X150724334Y-109651135D01*
X150708459Y-109638095D01*
X150693745Y-109626731D01*
X150679450Y-109616484D01*
X150664831Y-109606795D01*
X150649145Y-109597107D01*
X150640083Y-109591719D01*
X150629848Y-109585814D01*
X150620046Y-109580423D01*
X150609840Y-109575115D01*
X150598393Y-109569456D01*
X150584867Y-109563013D01*
X150568426Y-109555354D01*
X150561850Y-109552214D01*
X150554915Y-109548645D01*
X150550192Y-109545896D01*
X150548447Y-109544387D01*
X150549884Y-109543759D01*
X150554756Y-109543514D01*
X150562421Y-109543737D01*
G37*
G36*
X150795727Y-112229653D02*
G01*
X150805262Y-112233027D01*
X150813953Y-112238401D01*
X150820342Y-112245099D01*
X150822097Y-112248293D01*
X150825426Y-112256866D01*
X150828977Y-112268788D01*
X150832661Y-112283592D01*
X150836391Y-112300810D01*
X150840079Y-112319974D01*
X150843636Y-112340616D01*
X150846976Y-112362268D01*
X150850010Y-112384462D01*
X150852650Y-112406730D01*
X150854808Y-112428605D01*
X150855144Y-112432681D01*
X150856234Y-112450762D01*
X150856930Y-112471116D01*
X150857243Y-112492947D01*
X150857189Y-112515459D01*
X150856778Y-112537859D01*
X150856025Y-112559351D01*
X150854943Y-112579139D01*
X150853543Y-112596429D01*
X150851840Y-112610427D01*
X150848761Y-112628880D01*
X150838160Y-112677255D01*
X150824248Y-112723499D01*
X150807077Y-112767501D01*
X150786699Y-112809151D01*
X150763166Y-112848339D01*
X150736530Y-112884956D01*
X150706842Y-112918889D01*
X150692029Y-112933695D01*
X150667943Y-112955129D01*
X150642306Y-112974752D01*
X150614758Y-112992758D01*
X150584939Y-113009342D01*
X150552488Y-113024698D01*
X150517045Y-113039022D01*
X150478249Y-113052508D01*
X150435740Y-113065352D01*
X150433276Y-113066044D01*
X150418834Y-113069980D01*
X150400846Y-113074717D01*
X150379683Y-113080165D01*
X150355719Y-113086233D01*
X150329328Y-113092830D01*
X150300882Y-113099865D01*
X150270756Y-113107248D01*
X150239321Y-113114888D01*
X150206951Y-113122693D01*
X150174019Y-113130575D01*
X150140899Y-113138440D01*
X150107963Y-113146200D01*
X150075585Y-113153762D01*
X150044138Y-113161037D01*
X150013994Y-113167934D01*
X150004065Y-113170194D01*
X149988095Y-113173840D01*
X149969692Y-113178048D01*
X149949390Y-113182697D01*
X149927726Y-113187664D01*
X149905236Y-113192824D01*
X149882455Y-113198056D01*
X149859919Y-113203236D01*
X149838164Y-113208240D01*
X149817725Y-113212947D01*
X149799138Y-113217232D01*
X149782940Y-113220973D01*
X149769665Y-113224046D01*
X149759850Y-113226328D01*
X149752245Y-113228003D01*
X149741654Y-113229735D01*
X149733334Y-113230017D01*
X149726296Y-113228846D01*
X149719552Y-113226221D01*
X149713187Y-113222357D01*
X149705265Y-113213876D01*
X149700147Y-113202464D01*
X149699922Y-113201384D01*
X149699503Y-113197263D01*
X149699148Y-113190476D01*
X149698856Y-113180866D01*
X149698624Y-113168272D01*
X149698452Y-113152536D01*
X149698338Y-113133498D01*
X149698280Y-113110999D01*
X149698277Y-113084880D01*
X149698327Y-113054981D01*
X149698430Y-113021143D01*
X149699048Y-112847834D01*
X149704548Y-112839524D01*
X149710572Y-112832680D01*
X149718892Y-112826986D01*
X149719213Y-112826837D01*
X149722083Y-112825700D01*
X149726311Y-112824326D01*
X149732162Y-112822650D01*
X149739900Y-112820609D01*
X149749789Y-112818139D01*
X149762096Y-112815176D01*
X149777083Y-112811656D01*
X149795016Y-112807516D01*
X149816158Y-112802691D01*
X149840776Y-112797118D01*
X149869132Y-112790733D01*
X149875633Y-112789278D01*
X149887351Y-112786683D01*
X149897947Y-112784370D01*
X149906463Y-112782548D01*
X149911941Y-112781424D01*
X149923284Y-112780724D01*
X149934967Y-112783289D01*
X149945100Y-112788922D01*
X149953091Y-112797156D01*
X149958348Y-112807523D01*
X149960277Y-112819556D01*
X149961365Y-112827706D01*
X149965471Y-112838313D01*
X149971895Y-112847687D01*
X149979854Y-112854429D01*
X149979947Y-112854484D01*
X149982220Y-112855882D01*
X149984234Y-112857126D01*
X149986224Y-112858173D01*
X149988427Y-112858979D01*
X149991079Y-112859503D01*
X149994416Y-112859701D01*
X149998674Y-112859531D01*
X150004091Y-112858949D01*
X150010901Y-112857913D01*
X150019341Y-112856380D01*
X150029648Y-112854308D01*
X150042057Y-112851653D01*
X150056806Y-112848373D01*
X150074129Y-112844425D01*
X150094264Y-112839766D01*
X150117447Y-112834353D01*
X150143914Y-112828144D01*
X150173901Y-112821096D01*
X150207644Y-112813166D01*
X150213777Y-112811724D01*
X150243090Y-112804805D01*
X150268836Y-112798668D01*
X150291378Y-112793219D01*
X150311077Y-112788362D01*
X150328296Y-112784004D01*
X150343396Y-112780050D01*
X150356741Y-112776405D01*
X150368693Y-112772976D01*
X150379613Y-112769666D01*
X150389865Y-112766383D01*
X150399809Y-112763031D01*
X150417637Y-112756513D01*
X150447829Y-112743427D01*
X150474224Y-112729044D01*
X150496896Y-112713308D01*
X150515922Y-112696162D01*
X150531377Y-112677551D01*
X150543339Y-112657419D01*
X150550469Y-112640430D01*
X150557600Y-112615782D01*
X150562589Y-112587674D01*
X150565436Y-112556100D01*
X150566142Y-112521056D01*
X150564706Y-112482536D01*
X150561129Y-112440537D01*
X150555411Y-112395052D01*
X150547551Y-112346078D01*
X150546198Y-112338109D01*
X150544518Y-112326251D01*
X150543857Y-112317154D01*
X150544225Y-112310035D01*
X150545630Y-112304114D01*
X150548080Y-112298607D01*
X150548691Y-112297567D01*
X150553817Y-112291606D01*
X150560859Y-112285974D01*
X150568154Y-112282044D01*
X150571221Y-112281136D01*
X150577850Y-112279379D01*
X150587548Y-112276896D01*
X150599852Y-112273800D01*
X150614298Y-112270203D01*
X150630422Y-112266218D01*
X150647760Y-112261959D01*
X150665849Y-112257538D01*
X150684225Y-112253067D01*
X150702423Y-112248661D01*
X150719979Y-112244431D01*
X150736431Y-112240490D01*
X150751314Y-112236952D01*
X150764164Y-112233929D01*
X150774517Y-112231534D01*
X150781910Y-112229880D01*
X150785879Y-112229080D01*
X150786803Y-112228957D01*
X150795727Y-112229653D01*
G37*
G36*
X150811455Y-113132656D02*
G01*
X150822818Y-113136593D01*
X150832067Y-113143656D01*
X150838588Y-113153468D01*
X150838880Y-113154558D01*
X150839185Y-113156887D01*
X150839463Y-113160525D01*
X150839715Y-113165627D01*
X150839942Y-113172349D01*
X150840145Y-113180844D01*
X150840324Y-113191270D01*
X150840480Y-113203779D01*
X150840615Y-113218527D01*
X150840729Y-113235670D01*
X150840822Y-113255361D01*
X150840896Y-113277757D01*
X150840952Y-113303011D01*
X150840991Y-113331279D01*
X150841012Y-113362716D01*
X150841018Y-113397477D01*
X150841009Y-113435716D01*
X150840985Y-113477589D01*
X150840949Y-113523250D01*
X150840900Y-113572855D01*
X150840460Y-113986093D01*
X150834180Y-113993968D01*
X150832392Y-113996040D01*
X150826543Y-114001478D01*
X150820860Y-114005283D01*
X150819556Y-114005788D01*
X150814221Y-114007407D01*
X150805582Y-114009768D01*
X150794093Y-114012755D01*
X150780212Y-114016253D01*
X150764395Y-114020146D01*
X150747098Y-114024317D01*
X150728777Y-114028651D01*
X150711667Y-114032661D01*
X150690160Y-114037700D01*
X150672090Y-114041918D01*
X150657126Y-114045380D01*
X150644942Y-114048149D01*
X150635207Y-114050289D01*
X150627594Y-114051864D01*
X150621775Y-114052935D01*
X150617420Y-114053569D01*
X150614201Y-114053827D01*
X150611790Y-114053773D01*
X150609859Y-114053472D01*
X150608078Y-114052986D01*
X150606119Y-114052379D01*
X150597322Y-114048514D01*
X150587740Y-114040749D01*
X150580987Y-114030616D01*
X150580973Y-114030585D01*
X150580409Y-114029191D01*
X150579905Y-114027489D01*
X150579456Y-114025256D01*
X150579060Y-114022269D01*
X150578713Y-114018306D01*
X150578412Y-114013142D01*
X150578154Y-114006556D01*
X150577934Y-113998323D01*
X150577750Y-113988222D01*
X150577599Y-113976030D01*
X150577476Y-113961522D01*
X150577379Y-113944477D01*
X150577305Y-113924671D01*
X150577249Y-113901882D01*
X150577209Y-113875886D01*
X150577180Y-113846461D01*
X150577161Y-113813383D01*
X150577147Y-113776429D01*
X150577068Y-113530524D01*
X150572460Y-113522387D01*
X150566782Y-113514805D01*
X150557503Y-113507601D01*
X150546842Y-113503640D01*
X150545593Y-113503483D01*
X150543522Y-113503459D01*
X150540697Y-113503676D01*
X150536904Y-113504183D01*
X150531926Y-113505027D01*
X150525549Y-113506258D01*
X150517558Y-113507924D01*
X150507738Y-113510076D01*
X150495872Y-113512760D01*
X150481747Y-113516026D01*
X150465146Y-113519923D01*
X150445856Y-113524500D01*
X150423659Y-113529806D01*
X150398343Y-113535888D01*
X150369690Y-113542797D01*
X150337486Y-113550581D01*
X150301516Y-113559288D01*
X150293615Y-113561201D01*
X150270953Y-113566678D01*
X150248320Y-113572135D01*
X150226280Y-113577437D01*
X150205398Y-113582449D01*
X150186240Y-113587034D01*
X150169369Y-113591057D01*
X150155352Y-113594384D01*
X150144752Y-113596879D01*
X150143248Y-113597230D01*
X150130694Y-113600189D01*
X150115009Y-113603917D01*
X150096938Y-113608234D01*
X150077222Y-113612964D01*
X150056607Y-113617927D01*
X150035835Y-113622945D01*
X150015651Y-113627841D01*
X150010433Y-113629109D01*
X149970145Y-113638876D01*
X149932649Y-113647926D01*
X149898054Y-113656234D01*
X149866466Y-113663773D01*
X149837993Y-113670520D01*
X149812744Y-113676449D01*
X149790825Y-113681535D01*
X149772343Y-113685752D01*
X149757408Y-113689076D01*
X149746126Y-113691482D01*
X149738605Y-113692943D01*
X149734952Y-113693436D01*
X149730747Y-113693077D01*
X149720822Y-113689879D01*
X149711591Y-113684052D01*
X149704548Y-113676433D01*
X149699048Y-113668124D01*
X149698464Y-113543995D01*
X149698396Y-113528979D01*
X149698308Y-113505029D01*
X149698267Y-113484684D01*
X149698280Y-113467627D01*
X149698352Y-113453541D01*
X149698491Y-113442109D01*
X149698702Y-113433014D01*
X149698992Y-113425939D01*
X149699367Y-113420568D01*
X149699832Y-113416583D01*
X149700395Y-113413668D01*
X149701062Y-113411505D01*
X149704122Y-113405261D01*
X149712077Y-113395923D01*
X149722676Y-113389397D01*
X149725099Y-113388609D01*
X149731399Y-113386863D01*
X149740907Y-113384382D01*
X149753185Y-113381275D01*
X149767795Y-113377651D01*
X149784299Y-113373620D01*
X149802259Y-113369292D01*
X149821239Y-113364775D01*
X149824324Y-113364045D01*
X149846928Y-113358683D01*
X149871168Y-113352912D01*
X149896106Y-113346958D01*
X149920804Y-113341043D01*
X149944326Y-113335393D01*
X149965733Y-113330232D01*
X149984089Y-113325784D01*
X149987308Y-113325002D01*
X150008657Y-113319836D01*
X150032353Y-113314135D01*
X150057128Y-113308200D01*
X150081719Y-113302334D01*
X150104859Y-113296840D01*
X150125284Y-113292021D01*
X150132726Y-113290268D01*
X150153750Y-113285294D01*
X150177123Y-113279734D01*
X150201680Y-113273869D01*
X150226253Y-113267975D01*
X150249674Y-113262334D01*
X150270778Y-113257224D01*
X150278808Y-113255276D01*
X150300973Y-113249917D01*
X150324992Y-113244136D01*
X150349698Y-113238210D01*
X150373925Y-113232420D01*
X150396506Y-113227045D01*
X150416272Y-113222365D01*
X150417569Y-113222059D01*
X150438465Y-113217114D01*
X150461871Y-113211551D01*
X150486487Y-113205681D01*
X150511013Y-113199814D01*
X150534149Y-113194261D01*
X150554594Y-113189332D01*
X150555454Y-113189124D01*
X150595392Y-113179486D01*
X150631465Y-113170818D01*
X150663783Y-113163094D01*
X150692454Y-113156291D01*
X150717587Y-113150381D01*
X150739291Y-113145341D01*
X150757676Y-113141145D01*
X150772849Y-113137769D01*
X150784921Y-113135186D01*
X150793999Y-113133372D01*
X150800193Y-113132303D01*
X150803612Y-113131952D01*
X150811455Y-113132656D01*
G37*
G36*
X150523849Y-116365971D02*
G01*
X150542408Y-116366853D01*
X150558061Y-116368495D01*
X150558857Y-116368613D01*
X150579851Y-116372195D01*
X150598423Y-116376487D01*
X150616188Y-116381917D01*
X150634758Y-116388915D01*
X150642310Y-116392088D01*
X150667385Y-116404358D01*
X150690889Y-116418836D01*
X150713699Y-116436107D01*
X150736693Y-116456754D01*
X150748376Y-116468622D01*
X150771630Y-116496462D01*
X150792223Y-116527308D01*
X150810076Y-116561017D01*
X150825110Y-116597449D01*
X150837246Y-116636462D01*
X150839709Y-116646043D01*
X150843340Y-116661603D01*
X150846471Y-116677274D01*
X150849230Y-116693854D01*
X150851743Y-116712138D01*
X150854139Y-116732925D01*
X150856545Y-116757010D01*
X150856588Y-116757492D01*
X150856998Y-116764847D01*
X150857288Y-116775465D01*
X150857465Y-116788580D01*
X150857531Y-116803429D01*
X150857491Y-116819247D01*
X150857349Y-116835269D01*
X150857109Y-116850731D01*
X150856775Y-116864868D01*
X150856352Y-116876916D01*
X150855844Y-116886111D01*
X150854083Y-116907336D01*
X150848075Y-116957708D01*
X150839656Y-117005200D01*
X150828741Y-117050178D01*
X150815246Y-117093011D01*
X150799088Y-117134065D01*
X150798789Y-117134751D01*
X150778787Y-117175945D01*
X150756061Y-117214143D01*
X150730660Y-117249297D01*
X150702634Y-117281359D01*
X150672033Y-117310282D01*
X150638908Y-117336020D01*
X150603307Y-117358524D01*
X150565281Y-117377748D01*
X150524881Y-117393644D01*
X150514506Y-117396932D01*
X150501686Y-117399894D01*
X150491131Y-117400655D01*
X150482152Y-117399244D01*
X150474058Y-117395687D01*
X150473019Y-117395045D01*
X150466066Y-117389218D01*
X150460776Y-117382375D01*
X150456143Y-117374131D01*
X150456700Y-117244204D01*
X150457257Y-117114276D01*
X150462940Y-117106826D01*
X150463006Y-117106741D01*
X150467777Y-117101961D01*
X150474738Y-117096598D01*
X150482408Y-117091796D01*
X150485096Y-117090299D01*
X150510539Y-117073957D01*
X150532445Y-117055587D01*
X150550894Y-117035091D01*
X150565962Y-117012370D01*
X150577726Y-116987325D01*
X150586265Y-116959858D01*
X150587543Y-116954241D01*
X150591410Y-116931372D01*
X150593876Y-116906247D01*
X150594917Y-116880077D01*
X150594510Y-116854076D01*
X150592630Y-116829456D01*
X150589255Y-116807430D01*
X150583690Y-116785999D01*
X150574624Y-116763675D01*
X150562754Y-116744317D01*
X150548017Y-116727857D01*
X150530346Y-116714223D01*
X150509678Y-116703345D01*
X150485946Y-116695151D01*
X150481228Y-116694061D01*
X150468952Y-116692249D01*
X150454058Y-116691034D01*
X150437516Y-116690423D01*
X150420296Y-116690424D01*
X150403368Y-116691047D01*
X150387701Y-116692299D01*
X150374263Y-116694189D01*
X150372612Y-116694507D01*
X150364828Y-116696172D01*
X150353938Y-116698668D01*
X150340414Y-116701876D01*
X150324730Y-116705677D01*
X150307357Y-116709949D01*
X150288769Y-116714573D01*
X150269438Y-116719428D01*
X150249836Y-116724395D01*
X150230436Y-116729353D01*
X150211710Y-116734182D01*
X150194131Y-116738763D01*
X150178172Y-116742975D01*
X150164305Y-116746697D01*
X150153002Y-116749811D01*
X150144737Y-116752196D01*
X150139981Y-116753731D01*
X150117749Y-116763175D01*
X150088166Y-116779474D01*
X150060873Y-116799136D01*
X150035974Y-116822070D01*
X150013575Y-116848188D01*
X149993781Y-116877400D01*
X149989043Y-116885595D01*
X149975087Y-116914284D01*
X149964333Y-116944173D01*
X149956948Y-116974624D01*
X149953097Y-117004995D01*
X149952947Y-117034648D01*
X149954288Y-117050446D01*
X149959195Y-117080089D01*
X149967049Y-117106930D01*
X149977843Y-117130950D01*
X149991568Y-117152128D01*
X150008218Y-117170446D01*
X150013448Y-117175140D01*
X150025738Y-117184424D01*
X150038432Y-117191206D01*
X150053034Y-117196357D01*
X150057907Y-117198043D01*
X150068457Y-117204024D01*
X150076431Y-117212103D01*
X150081108Y-117221631D01*
X150081337Y-117222904D01*
X150081791Y-117228445D01*
X150082188Y-117237423D01*
X150082526Y-117249396D01*
X150082807Y-117263918D01*
X150083031Y-117280548D01*
X150083198Y-117298842D01*
X150083308Y-117318358D01*
X150083362Y-117338650D01*
X150083360Y-117359277D01*
X150083303Y-117379796D01*
X150083191Y-117399762D01*
X150083024Y-117418733D01*
X150082803Y-117436265D01*
X150082527Y-117451915D01*
X150082198Y-117465240D01*
X150081816Y-117475797D01*
X150081381Y-117483143D01*
X150080893Y-117486833D01*
X150077070Y-117495147D01*
X150069135Y-117503812D01*
X150057624Y-117510711D01*
X150042507Y-117515853D01*
X150023756Y-117519247D01*
X150001342Y-117520903D01*
X149975237Y-117520829D01*
X149944935Y-117518531D01*
X149911534Y-117512739D01*
X149880206Y-117503661D01*
X149851099Y-117491372D01*
X149824359Y-117475946D01*
X149800135Y-117457458D01*
X149778574Y-117435984D01*
X149759822Y-117411597D01*
X149755691Y-117405211D01*
X149743513Y-117383884D01*
X149731842Y-117359879D01*
X149721132Y-117334259D01*
X149711840Y-117308085D01*
X149704421Y-117282419D01*
X149699008Y-117258635D01*
X149693029Y-117225335D01*
X149688203Y-117189639D01*
X149684631Y-117152437D01*
X149682410Y-117114618D01*
X149681639Y-117077071D01*
X149681807Y-117059876D01*
X149684766Y-117004902D01*
X149691391Y-116951561D01*
X149701657Y-116899922D01*
X149715534Y-116850055D01*
X149732995Y-116802029D01*
X149754014Y-116755914D01*
X149778563Y-116711779D01*
X149806614Y-116669695D01*
X149838140Y-116629730D01*
X149873113Y-116591954D01*
X149880187Y-116584984D01*
X149914065Y-116554289D01*
X149948990Y-116527125D01*
X149985364Y-116503270D01*
X150023592Y-116482498D01*
X150064075Y-116464588D01*
X150107216Y-116449315D01*
X150153418Y-116436457D01*
X150175007Y-116431180D01*
X150204430Y-116424024D01*
X150233420Y-116417015D01*
X150261654Y-116410226D01*
X150288810Y-116403736D01*
X150314566Y-116397618D01*
X150338599Y-116391950D01*
X150360587Y-116386807D01*
X150380208Y-116382266D01*
X150397138Y-116378402D01*
X150411057Y-116375291D01*
X150421641Y-116373009D01*
X150428568Y-116371632D01*
X150442850Y-116369505D01*
X150461883Y-116367617D01*
X150482471Y-116366380D01*
X150503498Y-116365823D01*
X150523849Y-116365971D01*
G37*
G36*
X150528671Y-114138507D02*
G01*
X150550550Y-114140273D01*
X150576767Y-114144367D01*
X150607334Y-114151710D01*
X150635899Y-114161765D01*
X150663281Y-114174831D01*
X150690302Y-114191207D01*
X150706464Y-114202752D01*
X150733915Y-114226228D01*
X150758738Y-114252779D01*
X150780893Y-114282327D01*
X150800342Y-114314796D01*
X150817045Y-114350107D01*
X150830964Y-114388185D01*
X150842059Y-114428952D01*
X150850292Y-114472331D01*
X150855624Y-114518244D01*
X150856320Y-114528052D01*
X150857319Y-114551009D01*
X150857723Y-114576469D01*
X150857555Y-114603387D01*
X150856837Y-114630717D01*
X150855592Y-114657414D01*
X150853842Y-114682431D01*
X150851610Y-114704723D01*
X150846623Y-114740182D01*
X150836856Y-114790330D01*
X150824243Y-114837938D01*
X150808830Y-114882921D01*
X150790664Y-114925196D01*
X150769790Y-114964677D01*
X150746254Y-115001281D01*
X150720102Y-115034923D01*
X150691382Y-115065519D01*
X150660137Y-115092984D01*
X150626416Y-115117235D01*
X150617006Y-115123113D01*
X150598500Y-115133696D01*
X150578888Y-115143833D01*
X150559048Y-115153122D01*
X150539859Y-115161162D01*
X150522197Y-115167551D01*
X150506940Y-115171888D01*
X150504389Y-115172428D01*
X150490725Y-115173433D01*
X150478846Y-115170950D01*
X150469001Y-115165067D01*
X150461435Y-115155871D01*
X150456232Y-115146993D01*
X150456232Y-115019528D01*
X150456232Y-115015721D01*
X150456238Y-114990207D01*
X150456259Y-114968428D01*
X150456306Y-114950066D01*
X150456388Y-114934801D01*
X150456515Y-114922314D01*
X150456695Y-114912286D01*
X150456940Y-114904399D01*
X150457257Y-114898332D01*
X150457657Y-114893766D01*
X150458149Y-114890384D01*
X150458743Y-114887865D01*
X150459448Y-114885890D01*
X150460273Y-114884141D01*
X150462156Y-114880725D01*
X150464895Y-114876926D01*
X150468585Y-114873345D01*
X150473892Y-114869447D01*
X150481483Y-114864694D01*
X150492024Y-114858548D01*
X150497967Y-114855010D01*
X150521121Y-114838395D01*
X150541264Y-114819024D01*
X150558320Y-114796981D01*
X150572210Y-114772347D01*
X150577769Y-114759746D01*
X150583262Y-114744488D01*
X150587497Y-114728618D01*
X150590592Y-114711451D01*
X150592665Y-114692299D01*
X150593837Y-114670476D01*
X150594225Y-114645296D01*
X150593961Y-114623754D01*
X150593012Y-114605130D01*
X150591266Y-114589029D01*
X150588610Y-114574678D01*
X150584932Y-114561302D01*
X150580120Y-114548130D01*
X150578957Y-114545344D01*
X150567980Y-114524463D01*
X150554230Y-114506598D01*
X150537707Y-114491748D01*
X150518408Y-114479913D01*
X150496333Y-114471090D01*
X150471480Y-114465280D01*
X150443847Y-114462482D01*
X150442095Y-114462407D01*
X150428845Y-114462109D01*
X150415889Y-114462367D01*
X150402699Y-114463265D01*
X150388751Y-114464883D01*
X150373518Y-114467305D01*
X150356475Y-114470613D01*
X150337094Y-114474889D01*
X150314852Y-114480216D01*
X150289221Y-114486675D01*
X150278324Y-114489470D01*
X150252155Y-114496190D01*
X150229561Y-114502006D01*
X150210255Y-114506993D01*
X150193951Y-114511229D01*
X150180359Y-114514790D01*
X150169194Y-114517754D01*
X150160168Y-114520196D01*
X150152992Y-114522193D01*
X150147381Y-114523822D01*
X150143045Y-114525160D01*
X150139699Y-114526284D01*
X150137054Y-114527269D01*
X150132682Y-114529034D01*
X150102224Y-114543797D01*
X150073910Y-114561912D01*
X150047956Y-114583133D01*
X150024580Y-114607215D01*
X150003997Y-114633910D01*
X149986424Y-114662974D01*
X149972078Y-114694159D01*
X149961175Y-114727221D01*
X149961017Y-114727810D01*
X149955167Y-114756951D01*
X149952746Y-114786849D01*
X149953696Y-114816825D01*
X149957956Y-114846198D01*
X149965470Y-114874291D01*
X149976177Y-114900423D01*
X149977506Y-114903086D01*
X149982638Y-114912500D01*
X149987989Y-114920489D01*
X149994541Y-114928398D01*
X150003273Y-114937570D01*
X150008374Y-114942599D01*
X150019229Y-114952161D01*
X150029514Y-114959248D01*
X150040346Y-114964561D01*
X150052841Y-114968806D01*
X150058582Y-114970877D01*
X150068858Y-114977048D01*
X150076683Y-114985262D01*
X150081253Y-114994785D01*
X150081650Y-114997599D01*
X150082083Y-115004827D01*
X150082428Y-115016082D01*
X150082685Y-115031326D01*
X150082853Y-115050519D01*
X150082932Y-115073621D01*
X150082922Y-115100594D01*
X150082822Y-115131398D01*
X150082251Y-115260060D01*
X150077537Y-115267641D01*
X150076748Y-115268856D01*
X150070195Y-115276162D01*
X150061237Y-115282045D01*
X150049554Y-115286605D01*
X150034831Y-115289939D01*
X150016751Y-115292147D01*
X149994995Y-115293327D01*
X149972892Y-115293380D01*
X149941577Y-115291057D01*
X149911945Y-115285699D01*
X149883190Y-115277147D01*
X149854505Y-115265238D01*
X149844916Y-115260512D01*
X149823088Y-115247823D01*
X149803854Y-115233463D01*
X149786176Y-115216693D01*
X149778236Y-115207963D01*
X149766901Y-115193928D01*
X149756480Y-115178755D01*
X149746344Y-115161497D01*
X149735861Y-115141205D01*
X149734295Y-115137980D01*
X149721460Y-115108261D01*
X149710525Y-115076431D01*
X149701436Y-115042211D01*
X149694135Y-115005320D01*
X149688567Y-114965480D01*
X149684674Y-114922411D01*
X149682400Y-114875832D01*
X149682271Y-114825653D01*
X149685572Y-114770654D01*
X149692535Y-114717478D01*
X149703167Y-114666106D01*
X149717474Y-114616518D01*
X149735461Y-114568696D01*
X149757133Y-114522620D01*
X149782496Y-114478272D01*
X149811557Y-114435632D01*
X149818480Y-114426430D01*
X149850431Y-114387795D01*
X149884459Y-114352675D01*
X149920639Y-114321017D01*
X149959044Y-114292764D01*
X149999750Y-114267861D01*
X150042829Y-114246252D01*
X150088356Y-114227881D01*
X150090259Y-114227231D01*
X150098052Y-114224847D01*
X150109273Y-114221667D01*
X150123512Y-114217794D01*
X150140356Y-114213331D01*
X150159393Y-114208379D01*
X150180211Y-114203042D01*
X150202400Y-114197422D01*
X150225546Y-114191620D01*
X150249238Y-114185740D01*
X150273064Y-114179884D01*
X150296613Y-114174154D01*
X150319472Y-114168653D01*
X150341230Y-114163482D01*
X150361475Y-114158745D01*
X150379795Y-114154544D01*
X150395778Y-114150981D01*
X150409012Y-114148159D01*
X150425088Y-114145181D01*
X150451186Y-114141575D01*
X150477885Y-114139219D01*
X150504082Y-114138176D01*
X150528671Y-114138507D01*
G37*
G36*
X150810339Y-115200019D02*
G01*
X150821231Y-115203695D01*
X150830675Y-115210860D01*
X150838072Y-115221125D01*
X150838587Y-115222300D01*
X150839190Y-115224493D01*
X150839701Y-115227675D01*
X150840126Y-115232158D01*
X150840473Y-115238252D01*
X150840751Y-115246268D01*
X150840968Y-115256517D01*
X150841130Y-115269310D01*
X150841247Y-115284958D01*
X150841326Y-115303772D01*
X150841375Y-115326062D01*
X150841402Y-115352140D01*
X150841405Y-115355883D01*
X150841416Y-115381099D01*
X150841410Y-115402585D01*
X150841376Y-115420667D01*
X150841304Y-115435668D01*
X150841184Y-115447913D01*
X150841006Y-115457727D01*
X150840761Y-115465435D01*
X150840439Y-115471360D01*
X150840028Y-115475829D01*
X150839521Y-115479165D01*
X150838906Y-115481692D01*
X150838173Y-115483737D01*
X150837314Y-115485622D01*
X150836787Y-115486699D01*
X150834934Y-115490177D01*
X150832839Y-115493222D01*
X150830161Y-115495960D01*
X150826559Y-115498516D01*
X150821694Y-115501016D01*
X150815225Y-115503585D01*
X150806811Y-115506348D01*
X150796112Y-115509432D01*
X150782787Y-115512960D01*
X150766496Y-115517058D01*
X150746899Y-115521853D01*
X150723654Y-115527469D01*
X150715944Y-115529328D01*
X150693284Y-115534800D01*
X150669587Y-115540536D01*
X150645690Y-115546330D01*
X150622429Y-115551981D01*
X150600643Y-115557284D01*
X150581168Y-115562038D01*
X150564840Y-115566037D01*
X150500290Y-115581890D01*
X150499021Y-115716061D01*
X150498780Y-115740227D01*
X150498473Y-115766829D01*
X150498136Y-115790075D01*
X150497750Y-115810373D01*
X150497296Y-115828133D01*
X150496754Y-115843767D01*
X150496104Y-115857684D01*
X150495327Y-115870294D01*
X150494403Y-115882008D01*
X150493312Y-115893236D01*
X150492034Y-115904387D01*
X150490550Y-115915873D01*
X150488840Y-115928103D01*
X150483293Y-115961718D01*
X150472603Y-116009803D01*
X150459094Y-116054957D01*
X150442775Y-116097169D01*
X150423654Y-116136425D01*
X150401739Y-116172715D01*
X150377040Y-116206024D01*
X150349565Y-116236342D01*
X150319322Y-116263655D01*
X150286321Y-116287951D01*
X150250568Y-116309218D01*
X150212074Y-116327444D01*
X150205851Y-116329979D01*
X150192866Y-116334979D01*
X150179224Y-116339941D01*
X150167018Y-116344093D01*
X150165716Y-116344511D01*
X150152064Y-116348629D01*
X150136025Y-116353089D01*
X150118500Y-116357671D01*
X150100390Y-116362157D01*
X150082598Y-116366330D01*
X150066025Y-116369972D01*
X150051571Y-116372863D01*
X150040140Y-116374787D01*
X150035608Y-116375385D01*
X150014146Y-116377208D01*
X149991424Y-116377719D01*
X149969154Y-116376918D01*
X149949052Y-116374805D01*
X149924391Y-116370068D01*
X149892873Y-116360648D01*
X149863571Y-116347820D01*
X149836525Y-116331632D01*
X149811776Y-116312131D01*
X149789365Y-116289366D01*
X149769331Y-116263384D01*
X149751715Y-116234235D01*
X149736559Y-116201965D01*
X149723903Y-116166624D01*
X149713786Y-116128258D01*
X149706250Y-116086917D01*
X149705901Y-116084493D01*
X149704781Y-116076343D01*
X149703773Y-116068202D01*
X149702870Y-116059829D01*
X149702067Y-116050983D01*
X149701358Y-116041421D01*
X149700736Y-116030902D01*
X149700197Y-116019185D01*
X149699734Y-116006027D01*
X149699342Y-115991187D01*
X149699016Y-115974424D01*
X149698748Y-115955496D01*
X149698534Y-115934160D01*
X149698368Y-115910176D01*
X149698244Y-115883302D01*
X149698157Y-115853296D01*
X149698100Y-115819917D01*
X149698085Y-115802727D01*
X149941881Y-115802727D01*
X149941886Y-115812632D01*
X149941965Y-115838732D01*
X149942155Y-115861256D01*
X149942475Y-115880589D01*
X149942946Y-115897118D01*
X149943588Y-115911232D01*
X149944423Y-115923315D01*
X149945469Y-115933756D01*
X149946747Y-115942941D01*
X149948277Y-115951257D01*
X149950081Y-115959091D01*
X149950794Y-115961822D01*
X149958442Y-115983604D01*
X149968811Y-116002812D01*
X149981684Y-116019208D01*
X149996841Y-116032554D01*
X150014064Y-116042614D01*
X150033133Y-116049149D01*
X150034276Y-116049410D01*
X150050763Y-116051577D01*
X150069113Y-116051497D01*
X150087930Y-116049251D01*
X150105817Y-116044920D01*
X150127673Y-116036494D01*
X150150787Y-116023643D01*
X150171489Y-116007558D01*
X150189704Y-115988334D01*
X150205353Y-115966070D01*
X150218359Y-115940861D01*
X150228646Y-115912804D01*
X150236135Y-115881996D01*
X150236756Y-115878268D01*
X150237431Y-115872797D01*
X150238012Y-115866048D01*
X150238512Y-115857668D01*
X150238942Y-115847306D01*
X150239313Y-115834607D01*
X150239639Y-115819221D01*
X150239930Y-115800794D01*
X150240199Y-115778974D01*
X150240457Y-115753408D01*
X150240604Y-115736094D01*
X150240747Y-115711879D01*
X150240789Y-115691075D01*
X150240729Y-115673798D01*
X150240570Y-115660162D01*
X150240312Y-115650280D01*
X150239956Y-115644268D01*
X150239503Y-115642238D01*
X150238917Y-115642321D01*
X150234877Y-115643096D01*
X150227390Y-115644616D01*
X150216845Y-115646798D01*
X150203629Y-115649559D01*
X150188129Y-115652818D01*
X150170735Y-115656491D01*
X150151834Y-115660495D01*
X150131813Y-115664747D01*
X150111061Y-115669165D01*
X150089965Y-115673665D01*
X150068914Y-115678166D01*
X150048296Y-115682584D01*
X150028498Y-115686836D01*
X150009908Y-115690839D01*
X149992914Y-115694512D01*
X149977905Y-115697770D01*
X149965267Y-115700532D01*
X149955389Y-115702713D01*
X149948660Y-115704233D01*
X149945466Y-115705006D01*
X149945391Y-115705029D01*
X149944570Y-115705519D01*
X149943888Y-115706650D01*
X149943331Y-115708768D01*
X149942887Y-115712218D01*
X149942544Y-115717347D01*
X149942288Y-115724500D01*
X149942108Y-115734023D01*
X149941989Y-115746262D01*
X149941920Y-115761561D01*
X149941889Y-115780268D01*
X149941881Y-115802727D01*
X149698085Y-115802727D01*
X149698068Y-115782923D01*
X149698055Y-115742071D01*
X149698054Y-115706456D01*
X149698063Y-115672021D01*
X149698086Y-115641272D01*
X149698124Y-115613998D01*
X149698180Y-115589985D01*
X149698257Y-115569022D01*
X149698357Y-115550894D01*
X149698483Y-115535389D01*
X149698638Y-115522295D01*
X149698823Y-115511398D01*
X149699041Y-115502486D01*
X149699295Y-115495346D01*
X149699588Y-115489765D01*
X149699922Y-115485530D01*
X149700299Y-115482429D01*
X149700723Y-115480248D01*
X149701195Y-115478775D01*
X149702465Y-115475996D01*
X149709597Y-115465746D01*
X149719098Y-115458550D01*
X149719377Y-115458421D01*
X149723237Y-115457153D01*
X149730537Y-115455105D01*
X149740805Y-115452397D01*
X149753567Y-115449150D01*
X149768351Y-115445485D01*
X149784683Y-115441522D01*
X149802091Y-115437381D01*
X149802380Y-115437313D01*
X149822434Y-115432576D01*
X149845437Y-115427116D01*
X149870375Y-115421176D01*
X149896232Y-115415000D01*
X149921991Y-115408829D01*
X149946636Y-115402907D01*
X149969153Y-115397476D01*
X149974833Y-115396103D01*
X149996217Y-115390946D01*
X150018273Y-115385642D01*
X150040228Y-115380377D01*
X150061303Y-115375336D01*
X150080724Y-115370704D01*
X150097714Y-115366668D01*
X150111497Y-115363414D01*
X150113146Y-115363026D01*
X150126221Y-115359937D01*
X150142555Y-115356060D01*
X150161521Y-115351544D01*
X150182487Y-115346540D01*
X150204825Y-115341198D01*
X150227905Y-115335669D01*
X150239503Y-115332886D01*
X150251099Y-115330103D01*
X150273776Y-115324650D01*
X150276151Y-115324079D01*
X150299156Y-115318547D01*
X150322788Y-115312873D01*
X150346389Y-115307214D01*
X150369299Y-115301727D01*
X150390861Y-115296572D01*
X150410414Y-115291904D01*
X150427301Y-115287882D01*
X150440863Y-115284664D01*
X150442436Y-115284292D01*
X150460089Y-115280097D01*
X150480451Y-115275236D01*
X150502367Y-115269986D01*
X150524678Y-115264624D01*
X150546230Y-115259428D01*
X150565865Y-115254675D01*
X150574611Y-115252554D01*
X150610330Y-115243925D01*
X150643533Y-115235958D01*
X150674075Y-115228687D01*
X150701809Y-115222146D01*
X150726590Y-115216368D01*
X150748271Y-115211387D01*
X150766708Y-115207236D01*
X150781753Y-115203949D01*
X150793260Y-115201560D01*
X150801085Y-115200101D01*
X150805081Y-115199608D01*
X150810339Y-115200019D01*
G37*
G36*
X150238533Y-110097386D02*
G01*
X150261696Y-110101604D01*
X150283606Y-110108316D01*
X150305077Y-110117679D01*
X150310177Y-110120297D01*
X150336367Y-110136363D01*
X150359799Y-110155440D01*
X150380474Y-110177534D01*
X150398395Y-110202650D01*
X150413565Y-110230791D01*
X150425986Y-110261963D01*
X150435662Y-110296170D01*
X150442595Y-110333418D01*
X150446787Y-110373710D01*
X150446847Y-110374657D01*
X150447161Y-110385282D01*
X150447095Y-110398772D01*
X150446696Y-110414037D01*
X150446010Y-110429988D01*
X150445081Y-110445533D01*
X150443958Y-110459583D01*
X150442684Y-110471048D01*
X150441426Y-110479518D01*
X150438405Y-110496625D01*
X150434676Y-110514889D01*
X150430531Y-110533002D01*
X150426258Y-110549657D01*
X150422148Y-110563545D01*
X150420386Y-110568759D01*
X150416812Y-110578412D01*
X150413181Y-110587237D01*
X150409836Y-110594470D01*
X150407117Y-110599347D01*
X150405365Y-110601104D01*
X150402558Y-110600606D01*
X150396767Y-110599314D01*
X150388892Y-110597446D01*
X150379800Y-110595220D01*
X150370358Y-110592853D01*
X150361434Y-110590563D01*
X150353895Y-110588568D01*
X150348609Y-110587085D01*
X150346442Y-110586330D01*
X150346415Y-110586280D01*
X150346799Y-110583751D01*
X150348281Y-110578007D01*
X150350686Y-110569660D01*
X150353838Y-110559327D01*
X150357559Y-110547620D01*
X150358672Y-110544169D01*
X150364626Y-110524899D01*
X150369192Y-110508162D01*
X150372543Y-110492884D01*
X150374851Y-110477995D01*
X150376286Y-110462423D01*
X150377021Y-110445095D01*
X150377228Y-110424941D01*
X150377120Y-110408263D01*
X150376744Y-110394025D01*
X150376048Y-110382237D01*
X150374983Y-110372058D01*
X150373498Y-110362648D01*
X150371352Y-110351855D01*
X150363014Y-110320376D01*
X150352171Y-110292048D01*
X150338849Y-110266903D01*
X150323074Y-110244973D01*
X150304870Y-110226289D01*
X150284263Y-110210883D01*
X150261279Y-110198788D01*
X150235942Y-110190035D01*
X150226530Y-110188183D01*
X150212725Y-110186756D01*
X150196824Y-110186101D01*
X150179862Y-110186207D01*
X150162876Y-110187065D01*
X150146901Y-110188666D01*
X150132971Y-110190999D01*
X150117907Y-110194611D01*
X150086783Y-110204362D01*
X150056276Y-110216863D01*
X150027472Y-110231643D01*
X150001456Y-110248228D01*
X149990814Y-110256336D01*
X149977014Y-110267913D01*
X149962583Y-110280943D01*
X149948526Y-110294486D01*
X149935846Y-110307600D01*
X149925548Y-110319345D01*
X149921493Y-110324464D01*
X149912494Y-110336590D01*
X149902812Y-110350438D01*
X149893270Y-110364787D01*
X149884690Y-110378416D01*
X149877894Y-110390104D01*
X149874039Y-110397525D01*
X149867820Y-110410541D01*
X149861245Y-110425271D01*
X149854865Y-110440435D01*
X149849229Y-110454755D01*
X149844886Y-110466950D01*
X149840874Y-110479832D01*
X149832540Y-110512624D01*
X149826832Y-110545268D01*
X149823704Y-110577431D01*
X149823114Y-110608782D01*
X149825016Y-110638988D01*
X149829366Y-110667718D01*
X149836120Y-110694639D01*
X149845234Y-110719420D01*
X149856664Y-110741728D01*
X149870364Y-110761231D01*
X149886292Y-110777597D01*
X149896209Y-110785413D01*
X149916744Y-110797821D01*
X149939143Y-110807082D01*
X149962977Y-110813254D01*
X149987818Y-110816393D01*
X150013238Y-110816557D01*
X150038809Y-110813805D01*
X150064104Y-110808193D01*
X150088694Y-110799779D01*
X150112152Y-110788620D01*
X150134050Y-110774774D01*
X150153959Y-110758299D01*
X150171453Y-110739253D01*
X150179027Y-110729398D01*
X150184671Y-110721016D01*
X150189064Y-110712802D01*
X150192944Y-110703370D01*
X150197050Y-110691338D01*
X150198067Y-110688018D01*
X150201135Y-110674733D01*
X150202849Y-110661337D01*
X150203168Y-110648810D01*
X150202054Y-110638132D01*
X150199469Y-110630284D01*
X150193304Y-110622665D01*
X150184407Y-110617407D01*
X150173977Y-110615525D01*
X150170943Y-110615710D01*
X150161542Y-110617490D01*
X150148772Y-110621105D01*
X150132805Y-110626487D01*
X150113812Y-110633568D01*
X150091964Y-110642282D01*
X150067432Y-110652560D01*
X150040387Y-110664337D01*
X150011000Y-110677544D01*
X149979443Y-110692113D01*
X149973639Y-110694805D01*
X149964143Y-110699114D01*
X149956276Y-110702564D01*
X149950729Y-110704853D01*
X149948192Y-110705683D01*
X149947591Y-110704879D01*
X149946876Y-110700639D01*
X149946373Y-110692654D01*
X149946076Y-110680808D01*
X149945978Y-110664984D01*
X149945978Y-110624285D01*
X149958696Y-110617507D01*
X149959649Y-110616997D01*
X149965759Y-110613580D01*
X149968757Y-110611376D01*
X149969152Y-110609861D01*
X149967454Y-110608512D01*
X149966801Y-110608138D01*
X149957058Y-110600098D01*
X149949451Y-110588786D01*
X149944050Y-110574460D01*
X149940926Y-110557375D01*
X149940152Y-110537788D01*
X149940943Y-110527287D01*
X150013613Y-110527287D01*
X150014040Y-110537666D01*
X150016029Y-110548566D01*
X150019942Y-110557341D01*
X150026107Y-110564979D01*
X150027536Y-110566387D01*
X150032203Y-110570373D01*
X150035850Y-110571901D01*
X150039714Y-110571571D01*
X150040147Y-110571462D01*
X150045832Y-110569646D01*
X150054450Y-110566492D01*
X150065275Y-110562298D01*
X150077579Y-110557365D01*
X150090637Y-110551989D01*
X150103722Y-110546469D01*
X150116108Y-110541105D01*
X150127070Y-110536195D01*
X150135879Y-110532037D01*
X150145180Y-110527345D01*
X150152935Y-110522989D01*
X150158697Y-110518987D01*
X150163406Y-110514675D01*
X150168004Y-110509389D01*
X150168416Y-110508877D01*
X150178600Y-110493925D01*
X150187095Y-110477118D01*
X150192940Y-110460349D01*
X150193529Y-110457957D01*
X150195561Y-110442996D01*
X150194495Y-110429640D01*
X150190462Y-110418284D01*
X150183592Y-110409326D01*
X150174019Y-110403160D01*
X150168790Y-110401534D01*
X150157915Y-110400260D01*
X150145183Y-110400665D01*
X150131734Y-110402687D01*
X150118709Y-110406260D01*
X150108945Y-110410040D01*
X150089755Y-110419747D01*
X150071868Y-110431760D01*
X150055671Y-110445634D01*
X150041553Y-110460922D01*
X150029900Y-110477177D01*
X150021101Y-110493954D01*
X150015543Y-110510806D01*
X150013613Y-110527287D01*
X149940943Y-110527287D01*
X149941797Y-110515955D01*
X149942560Y-110510512D01*
X149948845Y-110482879D01*
X149958953Y-110455754D01*
X149972652Y-110429480D01*
X149989715Y-110404406D01*
X150009910Y-110380876D01*
X150033008Y-110359237D01*
X150058779Y-110339835D01*
X150077039Y-110328446D01*
X150103139Y-110315336D01*
X150128753Y-110306288D01*
X150153891Y-110301297D01*
X150157915Y-110301144D01*
X150178567Y-110300359D01*
X150187825Y-110300861D01*
X150195491Y-110301674D01*
X150201689Y-110303063D01*
X150207808Y-110305349D01*
X150215234Y-110308854D01*
X150216551Y-110309518D01*
X150232055Y-110319689D01*
X150244699Y-110332694D01*
X150254397Y-110348360D01*
X150261063Y-110366512D01*
X150264611Y-110386974D01*
X150264953Y-110409572D01*
X150264888Y-110410696D01*
X150261233Y-110437122D01*
X150253518Y-110463072D01*
X150241740Y-110488560D01*
X150225891Y-110513602D01*
X150222981Y-110517694D01*
X150218581Y-110524116D01*
X150215552Y-110528857D01*
X150214425Y-110531107D01*
X150215847Y-110532515D01*
X150220105Y-110535076D01*
X150226208Y-110538112D01*
X150231483Y-110540707D01*
X150244352Y-110549153D01*
X150254401Y-110559674D01*
X150262497Y-110573107D01*
X150267060Y-110583935D01*
X150271411Y-110600313D01*
X150273384Y-110618596D01*
X150273107Y-110639584D01*
X150272499Y-110647646D01*
X150267566Y-110679905D01*
X150258812Y-110711094D01*
X150246405Y-110740942D01*
X150230517Y-110769174D01*
X150211315Y-110795520D01*
X150188971Y-110819707D01*
X150163652Y-110841462D01*
X150135530Y-110860514D01*
X150132532Y-110862279D01*
X150104450Y-110876522D01*
X150074711Y-110887795D01*
X150043995Y-110895950D01*
X150012982Y-110900839D01*
X149982352Y-110902314D01*
X149952786Y-110900229D01*
X149927871Y-110895724D01*
X149902039Y-110888099D01*
X149878586Y-110877621D01*
X149857023Y-110864067D01*
X149836858Y-110847212D01*
X149835391Y-110845811D01*
X149815478Y-110823754D01*
X149798321Y-110798669D01*
X149783923Y-110770564D01*
X149772288Y-110739447D01*
X149763420Y-110705325D01*
X149757323Y-110668208D01*
X149756636Y-110661528D01*
X149755671Y-110644706D01*
X149755370Y-110625327D01*
X149755696Y-110604398D01*
X149756612Y-110582928D01*
X149758082Y-110561925D01*
X149760068Y-110542397D01*
X149762534Y-110525352D01*
X149770190Y-110488171D01*
X149783343Y-110441570D01*
X149800318Y-110396094D01*
X149821245Y-110351353D01*
X149826142Y-110342055D01*
X149848772Y-110303731D01*
X149873695Y-110268721D01*
X149901098Y-110236845D01*
X149931165Y-110207919D01*
X149964084Y-110181760D01*
X150000039Y-110158185D01*
X150039217Y-110137013D01*
X150048684Y-110132447D01*
X150074441Y-110120945D01*
X150098258Y-110111887D01*
X150120956Y-110105047D01*
X150143355Y-110100201D01*
X150166277Y-110097124D01*
X150190541Y-110095592D01*
X150213303Y-110095504D01*
X150238533Y-110097386D01*
G37*
G36*
X150809391Y-117420009D02*
G01*
X150811105Y-117420406D01*
X150821852Y-117424749D01*
X150830947Y-117431516D01*
X150837199Y-117439855D01*
X150841593Y-117448620D01*
X150840840Y-117726288D01*
X150840738Y-117764054D01*
X150840634Y-117800611D01*
X150840530Y-117833536D01*
X150840416Y-117863070D01*
X150840288Y-117889454D01*
X150840136Y-117912929D01*
X150839954Y-117933736D01*
X150839735Y-117952115D01*
X150839470Y-117968308D01*
X150839154Y-117982556D01*
X150838778Y-117995099D01*
X150838335Y-118006178D01*
X150837819Y-118016035D01*
X150837221Y-118024910D01*
X150836534Y-118033044D01*
X150835752Y-118040678D01*
X150834867Y-118048052D01*
X150833871Y-118055409D01*
X150832758Y-118062988D01*
X150831519Y-118071030D01*
X150830148Y-118079777D01*
X150828526Y-118089717D01*
X150818574Y-118138423D01*
X150805751Y-118184220D01*
X150790047Y-118227134D01*
X150771449Y-118267189D01*
X150749946Y-118304410D01*
X150725527Y-118338822D01*
X150698181Y-118370449D01*
X150689355Y-118379146D01*
X150668752Y-118396280D01*
X150644920Y-118412584D01*
X150618430Y-118427772D01*
X150589848Y-118441558D01*
X150559745Y-118453654D01*
X150528689Y-118463776D01*
X150497250Y-118471635D01*
X150493431Y-118472427D01*
X150482908Y-118474399D01*
X150473346Y-118475735D01*
X150463482Y-118476553D01*
X150452051Y-118476969D01*
X150437789Y-118477099D01*
X150422963Y-118476906D01*
X150405664Y-118475836D01*
X150390479Y-118473624D01*
X150376308Y-118470036D01*
X150362048Y-118464839D01*
X150346599Y-118457801D01*
X150336251Y-118452275D01*
X150316099Y-118438360D01*
X150298351Y-118421381D01*
X150282898Y-118401205D01*
X150269630Y-118377699D01*
X150258439Y-118350730D01*
X150257489Y-118348079D01*
X150254988Y-118341401D01*
X150253128Y-118336874D01*
X150252255Y-118335361D01*
X150251667Y-118336662D01*
X150249895Y-118341132D01*
X150247271Y-118347991D01*
X150244112Y-118356421D01*
X150240992Y-118364497D01*
X150232697Y-118383797D01*
X150223338Y-118403143D01*
X150213586Y-118421193D01*
X150204112Y-118436601D01*
X150197623Y-118445462D01*
X150186681Y-118458361D01*
X150173873Y-118471805D01*
X150160121Y-118484883D01*
X150146349Y-118496685D01*
X150133481Y-118506298D01*
X150119935Y-118515065D01*
X150096316Y-118528245D01*
X150071884Y-118539090D01*
X150045861Y-118547887D01*
X150017471Y-118554921D01*
X149985938Y-118560476D01*
X149970180Y-118562494D01*
X149942797Y-118564284D01*
X149917556Y-118563456D01*
X149893765Y-118559968D01*
X149870732Y-118553780D01*
X149852882Y-118546791D01*
X149829610Y-118533926D01*
X149808195Y-118517438D01*
X149788651Y-118497351D01*
X149770992Y-118473690D01*
X149755230Y-118446481D01*
X149741381Y-118415747D01*
X149729458Y-118381513D01*
X149719474Y-118343804D01*
X149711444Y-118302644D01*
X149705382Y-118258059D01*
X149704420Y-118248923D01*
X149703351Y-118237618D01*
X149702401Y-118225977D01*
X149701566Y-118213732D01*
X149700839Y-118200614D01*
X149700215Y-118186353D01*
X149699689Y-118170682D01*
X149699254Y-118153331D01*
X149698906Y-118134032D01*
X149698638Y-118112516D01*
X149698446Y-118088514D01*
X149698323Y-118061758D01*
X149698264Y-118031978D01*
X149698263Y-117998906D01*
X149698274Y-117991345D01*
X149913302Y-117991345D01*
X149913463Y-118008032D01*
X149913783Y-118028414D01*
X149914080Y-118044134D01*
X149914600Y-118064788D01*
X149915251Y-118082282D01*
X149916083Y-118097181D01*
X149917143Y-118110050D01*
X149918484Y-118121452D01*
X149920153Y-118131953D01*
X149922201Y-118142116D01*
X149924676Y-118152507D01*
X149929876Y-118169929D01*
X149938343Y-118189789D01*
X149948613Y-118206092D01*
X149960650Y-118218779D01*
X149974412Y-118227790D01*
X149977469Y-118229230D01*
X149983219Y-118231437D01*
X149989296Y-118232831D01*
X149996955Y-118233655D01*
X150007454Y-118234150D01*
X150025613Y-118233933D01*
X150041949Y-118231698D01*
X150057366Y-118227120D01*
X150073280Y-118219893D01*
X150092547Y-118207736D01*
X150110620Y-118191714D01*
X150126683Y-118172384D01*
X150140636Y-118149933D01*
X150152380Y-118124546D01*
X150161815Y-118096412D01*
X150168841Y-118065716D01*
X150173358Y-118032645D01*
X150174018Y-118023328D01*
X150174576Y-118009754D01*
X150174931Y-117993857D01*
X150175082Y-117976576D01*
X150175026Y-117958852D01*
X150174761Y-117941623D01*
X150174286Y-117925829D01*
X150173599Y-117912409D01*
X150173520Y-117911233D01*
X150172736Y-117902491D01*
X150172278Y-117900021D01*
X150364163Y-117900021D01*
X150364231Y-117915376D01*
X150364362Y-117934080D01*
X150364545Y-117956509D01*
X150364547Y-117956715D01*
X150364746Y-117979294D01*
X150364943Y-117998186D01*
X150365156Y-118013798D01*
X150365405Y-118026538D01*
X150365707Y-118036814D01*
X150366080Y-118045032D01*
X150366545Y-118051601D01*
X150367118Y-118056927D01*
X150367818Y-118061420D01*
X150368665Y-118065485D01*
X150369676Y-118069531D01*
X150377103Y-118092108D01*
X150386605Y-118111209D01*
X150398232Y-118126864D01*
X150412042Y-118139140D01*
X150428093Y-118148100D01*
X150446446Y-118153808D01*
X150461478Y-118155755D01*
X150480939Y-118154785D01*
X150500035Y-118150020D01*
X150518416Y-118141627D01*
X150535735Y-118129774D01*
X150551646Y-118114629D01*
X150565800Y-118096357D01*
X150574058Y-118082956D01*
X150582848Y-118065419D01*
X150590041Y-118046484D01*
X150595961Y-118025267D01*
X150600934Y-118000883D01*
X150601703Y-117995967D01*
X150602523Y-117988917D01*
X150603200Y-117980469D01*
X150603753Y-117970171D01*
X150604200Y-117957575D01*
X150604562Y-117942231D01*
X150604855Y-117923687D01*
X150605100Y-117901496D01*
X150605251Y-117884193D01*
X150605358Y-117865626D01*
X150605338Y-117850432D01*
X150605154Y-117838206D01*
X150604771Y-117828542D01*
X150604153Y-117821035D01*
X150603264Y-117815281D01*
X150602069Y-117810874D01*
X150600531Y-117807409D01*
X150598615Y-117804481D01*
X150596286Y-117801684D01*
X150593331Y-117799009D01*
X150585952Y-117794541D01*
X150577526Y-117791199D01*
X150570000Y-117789859D01*
X150568725Y-117789923D01*
X150566041Y-117790276D01*
X150562040Y-117790992D01*
X150556455Y-117792133D01*
X150549020Y-117793760D01*
X150539468Y-117795935D01*
X150527535Y-117798720D01*
X150512953Y-117802176D01*
X150495456Y-117806365D01*
X150474778Y-117811348D01*
X150450652Y-117817188D01*
X150422814Y-117823946D01*
X150415989Y-117825620D01*
X150402409Y-117829128D01*
X150392025Y-117832225D01*
X150384261Y-117835203D01*
X150378541Y-117838352D01*
X150374288Y-117841965D01*
X150370928Y-117846331D01*
X150367884Y-117851744D01*
X150367353Y-117852811D01*
X150366481Y-117854855D01*
X150365767Y-117857251D01*
X150365201Y-117860376D01*
X150364771Y-117864602D01*
X150364463Y-117870306D01*
X150364268Y-117877860D01*
X150364172Y-117887640D01*
X150364163Y-117900021D01*
X150172278Y-117900021D01*
X150171654Y-117896651D01*
X150169988Y-117892632D01*
X150167448Y-117889356D01*
X150163314Y-117886043D01*
X150156340Y-117884077D01*
X150154332Y-117884356D01*
X150148497Y-117885548D01*
X150139473Y-117887577D01*
X150127704Y-117890329D01*
X150113637Y-117893695D01*
X150097715Y-117897561D01*
X150080386Y-117901817D01*
X150062093Y-117906350D01*
X150043282Y-117911048D01*
X150024398Y-117915801D01*
X150005887Y-117920495D01*
X149988194Y-117925020D01*
X149971765Y-117929263D01*
X149957044Y-117933114D01*
X149944476Y-117936459D01*
X149934508Y-117939188D01*
X149927584Y-117941188D01*
X149924150Y-117942349D01*
X149923544Y-117942631D01*
X149920691Y-117944229D01*
X149918384Y-117946307D01*
X149916575Y-117949265D01*
X149915216Y-117953507D01*
X149914257Y-117959434D01*
X149913651Y-117967448D01*
X149913349Y-117977951D01*
X149913302Y-117991345D01*
X149698274Y-117991345D01*
X149698315Y-117962274D01*
X149698415Y-117921812D01*
X149699048Y-117700321D01*
X149704912Y-117691860D01*
X149706093Y-117690278D01*
X149712374Y-117683939D01*
X149719256Y-117679325D01*
X149719765Y-117679103D01*
X149724416Y-117677552D01*
X149732467Y-117675236D01*
X149743430Y-117672282D01*
X149756816Y-117668817D01*
X149772138Y-117664968D01*
X149788906Y-117660862D01*
X149806631Y-117656626D01*
X149819812Y-117653508D01*
X149840876Y-117648508D01*
X149864474Y-117642890D01*
X149889766Y-117636855D01*
X149915912Y-117630603D01*
X149942070Y-117624336D01*
X149967400Y-117618254D01*
X149991061Y-117612558D01*
X150012903Y-117607299D01*
X150035794Y-117601800D01*
X150058615Y-117596329D01*
X150080715Y-117591042D01*
X150101441Y-117586095D01*
X150120140Y-117581643D01*
X150136161Y-117577844D01*
X150148850Y-117574852D01*
X150156340Y-117573088D01*
X150156650Y-117573015D01*
X150171958Y-117569387D01*
X150190096Y-117565065D01*
X150210357Y-117560221D01*
X150232031Y-117555024D01*
X150254409Y-117549644D01*
X150276783Y-117544250D01*
X150298443Y-117539013D01*
X150312596Y-117535589D01*
X150334483Y-117530308D01*
X150356460Y-117525022D01*
X150377848Y-117519892D01*
X150397968Y-117515081D01*
X150416142Y-117510751D01*
X150431691Y-117507066D01*
X150443937Y-117504186D01*
X150451663Y-117502373D01*
X150466178Y-117498942D01*
X150483547Y-117494814D01*
X150503090Y-117490151D01*
X150524128Y-117485115D01*
X150545984Y-117479870D01*
X150567978Y-117474576D01*
X150570000Y-117474088D01*
X150589431Y-117469397D01*
X150603130Y-117466086D01*
X150636227Y-117458100D01*
X150665641Y-117451030D01*
X150691587Y-117444826D01*
X150714279Y-117439441D01*
X150733931Y-117434825D01*
X150750758Y-117430932D01*
X150764974Y-117427713D01*
X150776794Y-117425120D01*
X150786431Y-117423105D01*
X150794101Y-117421619D01*
X150800018Y-117420614D01*
X150804395Y-117420043D01*
X150807448Y-117419857D01*
X150809391Y-117420009D01*
G37*
D12*
%TO.C,SW2*%
X152150000Y-108525000D02*
X152150000Y-104625000D01*
X155050000Y-108525000D02*
X155050000Y-104625000D01*
D13*
%TO.C,T4*%
X148850000Y-91100000D02*
X148850000Y-92500000D01*
X148850000Y-92500000D02*
X150250000Y-92500000D01*
X150250000Y-91100000D02*
X148850000Y-91100000D01*
X150250000Y-92500000D02*
X150250000Y-91100000D01*
%TO.C,U3*%
D12*
X150750000Y-94250000D02*
X157750000Y-94250000D01*
X157750000Y-90550000D01*
X150750000Y-90550000D01*
X150750000Y-94250000D01*
%TD*%
M02*
