%TF.GenerationSoftware,KiCad,Pcbnew,9.0.0*%
%TF.CreationDate,2025-05-15T12:24:39+09:00*%
%TF.ProjectId,Raspberry Pi Pico(Designed By TORICA),52617370-6265-4727-9279-205069205069,rev?*%
%TF.SameCoordinates,Original*%
%TF.FileFunction,Soldermask,Bot*%
%TF.FilePolarity,Negative*%
%FSLAX46Y46*%
G04 Gerber Fmt 4.6, Leading zero omitted, Abs format (unit mm)*
G04 Created by KiCad (PCBNEW 9.0.0) date 2025-05-15 12:24:39*
%MOMM*%
%LPD*%
G01*
G04 APERTURE LIST*
G04 Aperture macros list*
%AMRoundRect*
0 Rectangle with rounded corners*
0 $1 Rounding radius*
0 $2 $3 $4 $5 $6 $7 $8 $9 X,Y pos of 4 corners*
0 Add a 4 corners polygon primitive as box body*
4,1,4,$2,$3,$4,$5,$6,$7,$8,$9,$2,$3,0*
0 Add four circle primitives for the rounded corners*
1,1,$1+$1,$2,$3*
1,1,$1+$1,$4,$5*
1,1,$1+$1,$6,$7*
1,1,$1+$1,$8,$9*
0 Add four rect primitives between the rounded corners*
20,1,$1+$1,$2,$3,$4,$5,0*
20,1,$1+$1,$4,$5,$6,$7,0*
20,1,$1+$1,$6,$7,$8,$9,0*
20,1,$1+$1,$8,$9,$2,$3,0*%
G04 Aperture macros list end*
%ADD10C,2.200000*%
%ADD11R,1.700000X1.700000*%
%ADD12O,1.700000X1.700000*%
%ADD13RoundRect,0.100000X0.130000X0.100000X-0.130000X0.100000X-0.130000X-0.100000X0.130000X-0.100000X0*%
%ADD14R,1.000000X1.000000*%
%ADD15R,0.300000X1.140000*%
%ADD16O,1.100000X1.800000*%
%ADD17O,1.100000X2.100000*%
%ADD18R,1.600000X1.050000*%
%ADD19R,1.200000X2.200000*%
%ADD20R,3.500000X2.200000*%
G04 APERTURE END LIST*
D10*
%TO.C,REF\u002A\u002A*%
X165500000Y-86000000D03*
%TD*%
%TO.C,REF\u002A\u002A*%
X165500000Y-114000000D03*
%TD*%
D11*
%TO.C,J2*%
X141110000Y-80500000D03*
D12*
X141110000Y-83040000D03*
X141110000Y-85580000D03*
X141110000Y-88120000D03*
X141110000Y-90660000D03*
X141110000Y-93200000D03*
X141110000Y-95740000D03*
X141110000Y-98280000D03*
X141110000Y-100820000D03*
X141110000Y-103360000D03*
X141110000Y-105900000D03*
X141110000Y-108440000D03*
X141110000Y-110980000D03*
X141110000Y-113520000D03*
X141110000Y-116060000D03*
X141110000Y-118600000D03*
%TD*%
D10*
%TO.C,REF\u002A\u002A*%
X165500000Y-100250000D03*
%TD*%
D11*
%TO.C,J4*%
X158890000Y-80500000D03*
D12*
X158890000Y-83040000D03*
X158890000Y-85580000D03*
X158890000Y-88120000D03*
X158890000Y-90660000D03*
X158890000Y-93200000D03*
X158890000Y-95740000D03*
X158890000Y-98280000D03*
X158890000Y-100820000D03*
X158890000Y-103360000D03*
X158890000Y-105900000D03*
X158890000Y-108440000D03*
X158890000Y-110980000D03*
X158890000Y-113520000D03*
X158890000Y-116060000D03*
X158890000Y-118600000D03*
%TD*%
D10*
%TO.C,REF\u002A\u002A*%
X134750000Y-100000000D03*
%TD*%
%TO.C,REF\u002A\u002A*%
X150250000Y-123000000D03*
%TD*%
%TO.C,REF\u002A\u002A*%
X134750000Y-85750000D03*
%TD*%
%TO.C,REF\u002A\u002A*%
X134750000Y-112750000D03*
%TD*%
D13*
%TO.C,D1*%
X155820000Y-102500000D03*
X155180000Y-102500000D03*
%TD*%
D14*
%TO.C,T1*%
X144100000Y-87600000D03*
%TD*%
D15*
%TO.C,J1*%
X146650000Y-85750000D03*
X147450000Y-85750000D03*
X148750000Y-85750000D03*
X149750000Y-85750000D03*
X150250000Y-85750000D03*
X151750000Y-85750000D03*
X150750000Y-85750000D03*
X149250000Y-85750000D03*
X146950000Y-85750000D03*
D16*
X145680000Y-81000000D03*
D17*
X145680000Y-85090000D03*
D16*
X154320000Y-81000000D03*
D17*
X154320000Y-85090000D03*
%TD*%
D18*
%TO.C,SW1*%
X146750000Y-87525000D03*
X146750000Y-91975000D03*
%TD*%
D14*
%TO.C,T3*%
X149450000Y-88000000D03*
%TD*%
%TO.C,T2*%
X156200000Y-105050000D03*
%TD*%
%TO.C,T5*%
X156250000Y-86750000D03*
%TD*%
D18*
%TO.C,SW2*%
X153600000Y-108800000D03*
X153600000Y-104350000D03*
%TD*%
D14*
%TO.C,T4*%
X149550000Y-91800000D03*
%TD*%
D19*
%TO.C,U3*%
X151950000Y-89300000D03*
X154250000Y-89300000D03*
D20*
X154250000Y-95500000D03*
D19*
X156550000Y-89300000D03*
%TD*%
M02*
